<svg width="36" height="36" viewBox="0 0 36 36" fill="none" xmlns="http://www.w3.org/2000/svg">
<path fill-rule="evenodd" clip-rule="evenodd" d="M14.6338 13C16.0902 13.0004 17.2715 14.1812 17.2715 15.6377C17.2714 16.3309 16.9994 16.9828 16.5352 17.4658C17.2538 18.0455 17.6932 18.9284 17.6934 19.8857C17.6931 21.6028 16.301 22.9958 14.584 22.9961H11.751C10.6462 22.9961 9.75034 22.0998 9.75 20.9951V15.001C9.75 13.896 10.646 13 11.751 13H14.6338ZM22.3936 15.0234C24.246 15.0237 25.748 16.5254 25.748 18.3779C25.748 19.1113 25.1532 19.707 24.4189 19.707H20.1943C20.4709 20.7371 21.409 21.496 22.5264 21.4961C23.1816 21.496 23.8093 21.23 24.2646 20.7588L24.458 20.5576C24.7458 20.2598 25.2207 20.2523 25.5186 20.54C25.8164 20.8278 25.8249 21.3027 25.5371 21.6006L25.3428 21.8008C24.6048 22.5645 23.5884 22.996 22.5264 22.9961C20.3633 22.996 18.6095 21.2421 18.6094 19.0791V18.5928C18.6094 16.6217 20.2076 15.0236 22.1787 15.0234H22.3936ZM11.25 20.9951C11.2503 21.2714 11.4746 21.4961 11.751 21.4961H14.584C15.4726 21.4958 16.1931 20.7743 16.1934 19.8857C16.1932 19.2161 15.7779 18.6162 15.1514 18.3799L14.9053 18.2871H11.25V20.9951ZM22.1787 16.5234C21.1679 16.5236 20.3272 17.2487 20.1465 18.207H24.2393C24.1529 17.2631 23.3599 16.5237 22.3936 16.5234H22.1787ZM11.751 14.5C11.4744 14.5 11.25 14.7244 11.25 15.001V16.7871H14.8701L15.1299 16.6611C15.5218 16.4709 15.7713 16.0733 15.7715 15.6377C15.7715 15.0096 15.2618 14.5004 14.6338 14.5H11.751ZM23.9912 13C24.4052 13.0002 24.7412 13.3359 24.7412 13.75C24.741 14.1639 24.4051 14.4998 23.9912 14.5H20.3662C19.9522 14.4999 19.6164 14.1639 19.6162 13.75C19.6162 13.3359 19.9521 13.0001 20.3662 13H23.9912Z" fill="#1A1A1A"/>
<rect x="6.5" y="6.75" width="22.5" height="22.5" rx="5.25" stroke="#1A1A1A" stroke-width="1.5"/>
</svg>
