<svg width="36" height="36" viewBox="0 0 36 36" fill="none" xmlns="http://www.w3.org/2000/svg">
<path d="M18 6C24.6274 6 30 11.3726 30 18C30 24.6274 24.6274 30 18 30H10.7998C9.11978 30 8.27941 29.9998 7.6377 29.6729C7.14381 29.4211 6.73057 29.0383 6.44238 28.5684L6.32715 28.3623C6.0819 27.881 6.02021 27.2878 6.00488 26.3125L6 25.2002V18C6 11.3726 11.3726 6 18 6ZM18 7.5C12.201 7.5 7.5 12.201 7.5 18V25.2002C7.5 26.0647 7.50144 26.6229 7.53613 27.0479C7.56936 27.4546 7.6253 27.6063 7.66309 27.6807C7.8069 27.9629 8.03709 28.1931 8.31934 28.3369C8.39365 28.3747 8.54542 28.4306 8.95215 28.4639C9.37708 28.4986 9.93534 28.5 10.7998 28.5H18C23.799 28.5 28.5 23.799 28.5 18C28.5 12.201 23.799 7.5 18 7.5Z" fill="black" fill-opacity="0.9"/>
</svg>
