<svg width="36" height="36" viewBox="0 0 36 36" fill="none" xmlns="http://www.w3.org/2000/svg">
<path d="M24 7.75C22.4124 7.75 20.8674 8.76228 19.6826 10.624C18.5035 12.477 17.75 15.083 17.75 18C17.75 20.917 18.5035 23.523 19.6826 25.376C20.8674 27.2377 22.4124 28.25 24 28.25C25.5876 28.25 27.1326 27.2377 28.3174 25.376C29.4965 23.523 30.25 20.917 30.25 18C30.25 15.083 29.4965 12.477 28.3174 10.624C27.1326 8.76228 25.5876 7.75 24 7.75Z" stroke="#1A1A1A" stroke-width="1.5"/>
<path d="M12 7C8.13401 7 5 11.9249 5 18C5 24.0751 8.13401 29 12 29C13.878 29 15.5817 27.8369 16.8389 25.9453C16.5593 25.4151 16.3104 24.8535 16.0908 24.2666C15.9621 24.5139 15.8265 24.7496 15.6846 24.9727C14.5817 26.7057 13.2423 27.5 12 27.5C10.7577 27.5 9.41829 26.7057 8.31543 24.9727C7.22399 23.2574 6.5 20.7962 6.5 18C6.5 15.2038 7.22399 12.7426 8.31543 11.0273C9.41829 9.29427 10.7577 8.5 12 8.5C13.2423 8.5 14.5817 9.29427 15.6846 11.0273C15.8263 11.2501 15.9622 11.4854 16.0908 11.7324C16.3105 11.1455 16.5593 10.5839 16.8389 10.0537C15.5817 8.16255 13.8777 7 12 7ZM18 12.333C17.6668 13.2024 17.409 14.15 17.2383 15.1543C17.4064 16.0479 17.5 17.0025 17.5 18C17.5 18.9972 17.4063 19.9514 17.2383 20.8447C17.4089 21.849 17.6669 22.7966 18 23.666C18.6342 22.011 19 20.0727 19 18C19 15.927 18.6344 13.9882 18 12.333Z" fill="#1A1A1A"/>
<circle cx="2.5" cy="2.5" r="2.5" transform="matrix(-1 0 0 1 23 15)" fill="#1A1A1A"/>
<circle cx="2.5" cy="2.5" r="2.5" transform="matrix(-1 0 0 1 11 15)" fill="#1A1A1A"/>
</svg>
