<svg width="32" height="32" viewBox="0 0 32 32" fill="none" xmlns="http://www.w3.org/2000/svg">
<rect width="32" height="32" rx="5" fill="#0D99FF"/>
<path fill-rule="evenodd" clip-rule="evenodd" d="M8.33311 9.96739C8.15037 8.98459 8.98548 8.14928 9.96829 8.3322C13.1571 8.9263 19.3162 10.3153 21.5002 12.4989C23.467 14.4656 23.9289 16.6483 23.3094 18.6225L24.7071 20.0202C25.0976 20.4107 25.0976 21.0439 24.7071 21.4344L21.4353 24.7061C21.0448 25.0967 20.4116 25.0967 20.0211 24.7061L18.6234 23.3085C16.6494 23.9282 14.4677 23.467 12.5005 21.5C10.3164 19.3159 8.92716 13.1563 8.33311 9.96739ZM14.985 14.2784C15.7519 13.8253 16.7553 13.9262 17.4143 14.585C18.1953 15.366 18.1953 16.6324 17.4143 17.4134C16.6333 18.1945 15.3669 18.1945 14.5859 17.4134C13.9275 16.7548 13.8258 15.7522 14.2779 14.9855L9.37305 10.0806C9.67113 11.6399 10.1387 13.7854 10.7748 15.8107C11.4266 17.8858 12.2025 19.6566 13.0398 20.6127L13.2076 20.7929C14.9409 22.526 16.7432 22.8503 18.3238 22.3542L18.9024 22.1733L20.7282 23.999L23.9999 20.7273L22.1742 18.9015L22.3551 18.3228C22.851 16.7421 22.526 14.9389 20.7931 13.206C19.8916 12.3047 18.0246 11.4689 15.8116 10.7739C13.7852 10.1376 11.6383 9.67015 10.0788 9.37215L14.985 14.2784ZM15.293 15.2921C14.9026 15.6825 14.9027 16.3158 15.293 16.7063C15.6835 17.0968 16.3167 17.0968 16.7072 16.7063C17.0977 16.3158 17.0977 15.6826 16.7072 15.2921C16.3167 14.9019 15.6834 14.9017 15.293 15.2921Z" fill="white"/>
</svg>
