<svg width="32" height="32" viewBox="0 0 32 32" fill="none" xmlns="http://www.w3.org/2000/svg">
<path d="M15.2279 4.24465C15.7219 3.89361 16.3994 3.91898 16.8676 4.31984L26.2006 12.3198C26.496 12.5731 26.6663 12.9435 26.6664 13.3325V25.3325C26.6664 26.0688 26.0696 26.6654 25.3334 26.6655H19.9994C19.2633 26.6652 18.6664 26.0687 18.6664 25.3325V17.3325H13.3334V25.3325C13.3334 26.0689 12.7358 26.6655 11.9994 26.6655H6.66638C5.93015 26.6654 5.33337 26.0688 5.33337 25.3325V13.3325C5.33349 12.9435 5.50284 12.5731 5.79822 12.3198L15.1322 4.31984L15.2279 4.24465ZM6.66638 13.3325V25.3325H11.9994V17.3325C11.9996 16.6425 12.5246 16.0748 13.1967 16.0064L13.3334 15.9995H18.6664L18.8031 16.0064C19.4751 16.0748 19.9992 16.6425 19.9994 17.3325V25.3325H25.3334V13.3325L15.9994 5.33254L6.66638 13.3325Z" fill="#1A1A1A" fill-opacity="0.9"/>
</svg>
