<svg width="36" height="36" viewBox="0 0 36 36" fill="none" xmlns="http://www.w3.org/2000/svg">
<path fill-rule="evenodd" clip-rule="evenodd" d="M6.87866 6.87866C7.72243 6.0349 8.98578 5.77155 10.0964 6.20776L29.5964 13.8679C30.7832 14.3342 31.5461 15.5 31.4978 16.7742C31.4495 18.0484 30.6003 19.1531 29.3816 19.5281L21.8455 21.8455L19.5281 29.3816C19.1531 30.6003 18.0484 31.4495 16.7742 31.4978C15.5 31.5461 14.3342 30.7832 13.8679 29.5964L6.20776 10.0964C5.77155 8.98578 6.0349 7.72243 6.87866 6.87866ZM9.54859 7.60327C8.99324 7.38512 8.36111 7.51731 7.93921 7.93921L7.86304 8.02026C7.50172 8.43935 7.39876 9.02794 7.60327 9.54859L15.2644 29.0486C15.483 29.6047 16.0088 29.9745 16.5984 29.9988H16.7175C17.3148 29.9761 17.837 29.6014 18.0544 29.0525L18.0945 28.9412L20.6462 20.6462L28.9412 18.0945C29.5124 17.9187 29.9213 17.422 29.99 16.8357L29.9988 16.7175C30.0214 16.1203 29.6877 15.5707 29.157 15.3123L29.0486 15.2644L9.54859 7.60327Z" fill="white"/>
</svg>
