<svg width="36" height="36" viewBox="0 0 36 36" fill="none" xmlns="http://www.w3.org/2000/svg">
<rect x="6.5" y="6.75" width="22.5" height="22.5" rx="5.25" stroke="#1A1A1A" stroke-width="1.5"/>
<path d="M13.4248 15.4727C13.7975 15.4727 14.1005 15.7748 14.1006 16.1475V22.3271C14.1006 22.6997 13.7983 23.0017 13.4258 23.002C13.053 23.002 12.751 22.6999 12.751 22.3271V16.1475C12.7511 15.7749 13.0523 15.4729 13.4248 15.4727ZM16.9326 15.4707C17.3052 15.4708 17.6083 15.7729 17.6084 16.1455V16.4961C18.1422 16.1106 18.7961 15.881 19.5049 15.8809C21.2981 15.881 22.7529 17.3347 22.7529 19.1279V22.3232C22.7527 22.6955 22.4503 22.9976 22.0781 22.998C21.7055 22.998 21.4035 22.6958 21.4033 22.3232V19.1279C21.4033 18.0804 20.5533 17.2309 19.5059 17.2305C18.4583 17.2305 17.6086 18.0801 17.6084 19.1279V22.3252C17.6083 22.6976 17.3059 22.9996 16.9336 23C16.5609 23 16.2589 22.6979 16.2588 22.3252L16.2578 16.1455C16.2579 15.773 16.5601 15.471 16.9326 15.4707ZM13.4258 13C13.7982 13.0003 14.1004 13.3024 14.1006 13.6748L14.0996 14.0869C14.0996 14.4597 13.7976 14.7617 13.4248 14.7617C13.0523 14.7615 12.75 14.4595 12.75 14.0869L12.751 13.6748C12.7512 13.3022 13.0531 13 13.4258 13Z" fill="#1A1A1A"/>
</svg>
