<svg width="24" height="24" viewBox="0 0 24 24" fill="none" xmlns="http://www.w3.org/2000/svg">
<path d="M12.8533 15.1456C13.0484 15.3406 13.0493 15.6573 12.8546 15.8528L11.678 17.0308C10.3787 18.3324 8.26991 18.3331 6.96921 17.0329C5.67085 15.7341 5.66949 13.6291 6.96645 12.329L8.14588 11.1454C8.34086 10.9503 8.65759 10.9507 8.85299 11.1454C9.04817 11.3403 9.04903 11.657 8.85437 11.8525L7.67424 13.034C6.76673 13.9436 6.76783 15.4172 7.67632 16.3258C8.58636 17.2357 10.0626 17.2354 10.9715 16.3244L12.1461 15.1456C12.3412 14.9505 12.6579 14.9507 12.8533 15.1456ZM14.3538 9.64555C14.549 9.84074 14.5488 10.1574 14.3538 10.3527L10.3535 14.3529C10.1582 14.5479 9.84159 14.5481 9.64641 14.3529C9.45124 14.1577 9.45141 13.8411 9.64641 13.6458L13.6467 9.64555C13.842 9.45051 14.1586 9.45036 14.3538 9.64555ZM17.0172 6.9725C18.3131 8.2685 18.318 10.3689 17.0275 11.6702L15.855 12.8524C15.6605 13.048 15.3438 13.0481 15.1479 12.8538C14.9521 12.6593 14.9507 12.3426 15.1451 12.1467L16.317 10.9665C17.22 10.0562 17.2167 8.58631 16.3101 7.6796C15.3982 6.768 13.9195 6.77183 13.0114 7.6872L11.8547 8.85213C11.6603 9.0476 11.3442 9.04822 11.1483 8.8542C10.9524 8.6597 10.9504 8.3424 11.1449 8.1464L12.3015 6.98147C13.5998 5.67348 15.7139 5.66946 17.0172 6.9725Z" fill="#007BE5"/>
</svg>
