<svg width="23" height="23" viewBox="0 0 23 23" fill="none" xmlns="http://www.w3.org/2000/svg">
<path d="M11.3137 22.2579C11.7814 22.2508 12.1745 21.837 12.1744 21.3518L12.1738 12.2188L20.8501 12.2195C21.3111 12.2196 21.7177 11.8058 21.7109 11.3134C21.704 10.8211 21.3176 10.4144 20.8568 10.4143L12.1736 10.4065L12.173 1.27346C12.1729 0.788336 11.7865 0.367259 11.3188 0.374363C10.8443 0.374329 10.4512 0.788123 10.458 1.28049L10.4587 10.4135L1.78235 10.4128C1.31464 10.4056 0.907965 10.8194 0.921559 11.3189C0.928373 11.8112 1.31477 12.2179 1.7757 12.218L10.4521 12.2187L10.4595 21.3588C10.4595 21.844 10.8459 22.265 11.3137 22.2579Z" fill="#1A1A1A" fill-opacity="0.5"/>
</svg>
