<svg width="86" height="54" viewBox="0 0 86 54" fill="none" xmlns="http://www.w3.org/2000/svg">
<g filter="url(#filter0_ddd_327_11245)">
<path d="M12 12C12 9.23858 14.2386 7 17 7H69C71.7614 7 74 9.23858 74 12V26C74 28.7614 71.7614 31 69 31H17C14.2386 31 12 28.7614 12 26V12Z" fill="#1E1E1E"/>
<path d="M20.9219 23V15H23.7891C24.3516 15 24.8164 15.0951 25.1836 15.2852C25.5508 15.4727 25.8242 15.7266 26.0039 16.0469C26.1836 16.3646 26.2734 16.7201 26.2734 17.1133C26.2734 17.4518 26.2122 17.7344 26.0898 17.9609C25.9701 18.1849 25.8099 18.3646 25.6094 18.5C25.4089 18.6328 25.1901 18.7305 24.9531 18.793V18.8711C25.2083 18.8867 25.4609 18.9727 25.7109 19.1289C25.9609 19.2852 26.1693 19.5091 26.3359 19.8008C26.5026 20.0898 26.5859 20.4427 26.5859 20.8594C26.5859 21.2656 26.4922 21.6302 26.3047 21.9531C26.1198 22.2734 25.8294 22.5286 25.4336 22.7187C25.0378 22.9062 24.5273 23 23.9023 23H20.9219ZM22.0117 22.0547H23.8438C24.4505 22.0547 24.8828 21.9375 25.1406 21.7031C25.3984 21.4661 25.5273 21.1758 25.5273 20.832C25.5273 20.569 25.4609 20.3281 25.3281 20.1094C25.1953 19.888 25.0065 19.7122 24.7617 19.582C24.5169 19.4492 24.2266 19.3828 23.8906 19.3828H22.0117V22.0547ZM22.0117 18.4883H23.7188C24 18.4883 24.2539 18.4336 24.4805 18.3242C24.707 18.2148 24.8867 18.0612 25.0195 17.8633C25.1549 17.6628 25.2227 17.4284 25.2227 17.1602C25.2227 16.819 25.1029 16.5312 24.8633 16.2969C24.6263 16.0625 24.2552 15.9453 23.75 15.9453H22.0117V18.4883ZM30.598 23.125C30.012 23.125 29.5081 22.9974 29.0862 22.7422C28.6644 22.4844 28.3389 22.125 28.1097 21.6641C27.8831 21.2005 27.7698 20.6602 27.7698 20.043C27.7698 19.4284 27.8831 18.8867 28.1097 18.418C28.3389 17.9466 28.6579 17.5794 29.0667 17.3164C29.4782 17.0534 29.9586 16.9219 30.5081 16.9219C30.8336 16.9219 31.1514 16.9766 31.4613 17.0859C31.7738 17.1927 32.055 17.3646 32.305 17.6016C32.5576 17.8359 32.7568 18.1445 32.9027 18.5273C33.0511 18.9102 33.1253 19.3776 33.1253 19.9297V20.332H28.4261V19.4961H32.0823C32.0823 19.1732 32.0172 18.8867 31.887 18.6367C31.7594 18.3841 31.5771 18.1849 31.3402 18.0391C31.1058 17.8932 30.8297 17.8203 30.512 17.8203C30.1631 17.8203 29.861 17.9049 29.6058 18.0742C29.3532 18.2435 29.1579 18.4648 29.0198 18.7383C28.8818 19.0117 28.8128 19.306 28.8128 19.6211V20.2266C28.8128 20.6536 28.887 21.0169 29.0355 21.3164C29.1865 21.6133 29.3961 21.8398 29.6644 21.9961C29.9326 22.1497 30.2451 22.2266 30.6019 22.2266C30.8336 22.2266 31.0446 22.194 31.2347 22.1289C31.4248 22.0612 31.5876 21.9609 31.723 21.8281C31.861 21.6953 31.9678 21.5286 32.0433 21.3281L33.0433 21.5547C32.9521 21.8672 32.7933 22.1419 32.5667 22.3789C32.3428 22.6133 32.0628 22.7969 31.7269 22.9297C31.3935 23.0599 31.0172 23.125 30.598 23.125ZM35.5797 19.4141V23H34.5329V15H35.5719V17.957H35.65C35.7881 17.6393 36.0003 17.388 36.2868 17.2031C36.5732 17.0156 36.9508 16.9219 37.4196 16.9219C37.8284 16.9219 38.1865 17.0052 38.4938 17.1719C38.8037 17.3359 39.0433 17.5859 39.2125 17.9219C39.3844 18.2578 39.4704 18.6797 39.4704 19.1875V23H38.4235V19.2891C38.4235 18.8307 38.305 18.4753 38.068 18.2227C37.8336 17.9701 37.5068 17.8438 37.0875 17.8438C36.7985 17.8438 36.5394 17.9049 36.3102 18.0273C36.0836 18.1497 35.9052 18.3281 35.775 18.5625C35.6448 18.7969 35.5797 19.0807 35.5797 19.4141ZM42.9091 23.1367C42.5289 23.1367 42.1839 23.0651 41.874 22.9219C41.5667 22.7786 41.3219 22.5716 41.1396 22.3008C40.9599 22.0273 40.8701 21.694 40.8701 21.3008C40.8701 20.9596 40.9365 20.681 41.0693 20.4648C41.2047 20.2461 41.3844 20.0742 41.6084 19.9492C41.8323 19.8242 42.081 19.7305 42.3545 19.668C42.6279 19.6055 42.9052 19.5573 43.1865 19.5234C43.5485 19.4766 43.8414 19.4401 44.0654 19.4141C44.292 19.388 44.4573 19.3451 44.5615 19.2852C44.6657 19.2253 44.7177 19.1224 44.7177 18.9766V18.9453C44.7177 18.5833 44.6175 18.3021 44.417 18.1016C44.2164 17.901 43.9157 17.8008 43.5146 17.8008C43.0979 17.8008 42.7711 17.8919 42.5341 18.0742C42.2972 18.2565 42.1305 18.4557 42.0341 18.6719L41.0498 18.3906C41.193 18.026 41.3922 17.737 41.6474 17.5234C41.9052 17.3073 42.193 17.1536 42.5107 17.0625C42.831 16.9687 43.1578 16.9219 43.4912 16.9219C43.7073 16.9219 43.9456 16.9479 44.206 17C44.4664 17.0495 44.7138 17.1471 44.9482 17.293C45.1852 17.4362 45.3805 17.6484 45.5341 17.9297C45.6878 18.2083 45.7646 18.5755 45.7646 19.0312V23H44.7334V22.1836H44.6865C44.6188 22.3242 44.5107 22.4687 44.3623 22.6172C44.2138 22.763 44.0198 22.8867 43.7802 22.9883C43.5407 23.0872 43.2503 23.1367 42.9091 23.1367ZM43.1045 22.2539C43.4508 22.2539 43.7438 22.1862 43.9834 22.0508C44.2229 21.9154 44.4052 21.7396 44.5302 21.5234C44.6578 21.3073 44.7216 21.0768 44.7216 20.832V20.0234C44.68 20.0677 44.5966 20.1081 44.4716 20.1445C44.3466 20.181 44.2034 20.2122 44.042 20.2383C43.8831 20.2643 43.7269 20.2878 43.5732 20.3086C43.4222 20.3268 43.2972 20.3424 43.1982 20.3555C42.9664 20.3867 42.7516 20.4362 42.5537 20.5039C42.3584 20.5716 42.2008 20.6719 42.081 20.8047C41.9638 20.9349 41.9052 21.1107 41.9052 21.332C41.9052 21.6367 42.0185 21.8672 42.2451 22.0234C42.4716 22.1771 42.7581 22.2539 43.1045 22.2539ZM48.4837 19.4141V23H47.4368V17H48.4446V17.957H48.5227C48.6608 17.6445 48.8756 17.3945 49.1673 17.207C49.4589 17.0169 49.83 16.9219 50.2805 16.9219C50.6894 16.9219 51.0462 17.0065 51.3509 17.1758C51.6555 17.3424 51.8925 17.5937 52.0618 17.9297C52.2337 18.2656 52.3196 18.6849 52.3196 19.1875V23H51.2727V19.2891C51.2727 18.8333 51.1542 18.4792 50.9173 18.2266C50.6829 17.9714 50.36 17.8438 49.9485 17.8438C49.6673 17.8438 49.416 17.9049 49.1946 18.0273C48.9733 18.1497 48.7988 18.3281 48.6712 18.5625C48.5462 18.7969 48.4837 19.0807 48.4837 19.4141ZM56.4752 23.125C55.9049 23.125 55.4127 22.9922 54.9986 22.7266C54.5872 22.4609 54.2708 22.0951 54.0494 21.6289C53.8281 21.1628 53.7174 20.6302 53.7174 20.0312C53.7174 19.4193 53.8307 18.8802 54.0572 18.4141C54.2864 17.9479 54.6054 17.5833 55.0143 17.3203C55.4257 17.0547 55.9075 16.9219 56.4596 16.9219C56.8997 16.9219 57.2929 17.0026 57.6393 17.1641C57.9882 17.3255 58.2721 17.5521 58.4908 17.8438C58.7096 18.1354 58.8424 18.4766 58.8893 18.8672H57.858C57.7929 18.5885 57.6432 18.3464 57.4088 18.1406C57.177 17.9323 56.8671 17.8281 56.4791 17.8281C56.1354 17.8281 55.8346 17.918 55.5768 18.0977C55.3216 18.2747 55.1223 18.526 54.9791 18.8516C54.8385 19.1771 54.7682 19.5599 54.7682 20C54.7682 20.4505 54.8385 20.8411 54.9791 21.1719C55.1197 21.5026 55.3176 21.7591 55.5729 21.9414C55.8307 22.1237 56.1327 22.2148 56.4791 22.2148C56.7109 22.2148 56.9205 22.1732 57.108 22.0898C57.2955 22.0065 57.4544 21.888 57.5846 21.7344C57.7148 21.5781 57.8059 21.3919 57.858 21.1758H58.8893C58.8398 21.5456 58.7109 21.8776 58.5025 22.1719C58.2968 22.4661 58.0221 22.6992 57.6783 22.8711C57.3346 23.0404 56.9335 23.125 56.4752 23.125ZM62.7988 23.125C62.2128 23.125 61.7089 22.9974 61.287 22.7422C60.8652 22.4844 60.5396 22.125 60.3105 21.6641C60.0839 21.2005 59.9706 20.6602 59.9706 20.043C59.9706 19.4284 60.0839 18.8867 60.3105 18.418C60.5396 17.9466 60.8586 17.5794 61.2675 17.3164C61.679 17.0534 62.1594 16.9219 62.7089 16.9219C63.0344 16.9219 63.3521 16.9766 63.662 17.0859C63.9745 17.1927 64.2558 17.3646 64.5058 17.6016C64.7584 17.8359 64.9576 18.1445 65.1034 18.5273C65.2519 18.9102 65.3261 19.3776 65.3261 19.9297V20.332H60.6269V19.4961H64.2831C64.2831 19.1732 64.218 18.8867 64.0878 18.6367C63.9602 18.3841 63.7779 18.1849 63.5409 18.0391C63.3066 17.8932 63.0305 17.8203 62.7128 17.8203C62.3639 17.8203 62.0618 17.9049 61.8066 18.0742C61.554 18.2435 61.3586 18.4648 61.2206 18.7383C61.0826 19.0117 61.0136 19.306 61.0136 19.6211V20.2266C61.0136 20.6536 61.0878 21.0169 61.2363 21.3164C61.3873 21.6133 61.5969 21.8398 61.8652 21.9961C62.1334 22.1497 62.4459 22.2266 62.8027 22.2266C63.0344 22.2266 63.2454 22.194 63.4355 22.1289C63.6256 22.0612 63.7883 21.9609 63.9238 21.8281C64.0618 21.6953 64.1685 21.5286 64.2441 21.3281L65.2441 21.5547C65.1529 21.8672 64.9941 22.1419 64.7675 22.3789C64.5435 22.6133 64.2636 22.7969 63.9277 22.9297C63.5943 23.0599 63.218 23.125 62.7988 23.125Z" fill="white"/>
<path d="M43 37L49 31H37L43 37Z" fill="#1E1E1E"/>
</g>
<defs>
<filter id="filter0_ddd_327_11245" x="0" y="0" width="86" height="54" filterUnits="userSpaceOnUse" color-interpolation-filters="sRGB">
<feFlood flood-opacity="0" result="BackgroundImageFix"/>
<feColorMatrix in="SourceAlpha" type="matrix" values="0 0 0 0 0 0 0 0 0 0 0 0 0 0 0 0 0 0 127 0" result="hardAlpha"/>
<feOffset dy="1"/>
<feGaussianBlur stdDeviation="1.5"/>
<feColorMatrix type="matrix" values="0 0 0 0 0 0 0 0 0 0 0 0 0 0 0 0 0 0 0.1 0"/>
<feBlend mode="normal" in2="BackgroundImageFix" result="effect1_dropShadow_327_11245"/>
<feColorMatrix in="SourceAlpha" type="matrix" values="0 0 0 0 0 0 0 0 0 0 0 0 0 0 0 0 0 0 127 0" result="hardAlpha"/>
<feOffset dy="5"/>
<feGaussianBlur stdDeviation="6"/>
<feColorMatrix type="matrix" values="0 0 0 0 0 0 0 0 0 0 0 0 0 0 0 0 0 0 0.13 0"/>
<feBlend mode="normal" in2="effect1_dropShadow_327_11245" result="effect2_dropShadow_327_11245"/>
<feColorMatrix in="SourceAlpha" type="matrix" values="0 0 0 0 0 0 0 0 0 0 0 0 0 0 0 0 0 0 127 0" result="hardAlpha"/>
<feOffset/>
<feGaussianBlur stdDeviation="0.25"/>
<feColorMatrix type="matrix" values="0 0 0 0 0 0 0 0 0 0 0 0 0 0 0 0 0 0 0.15 0"/>
<feBlend mode="normal" in2="effect2_dropShadow_327_11245" result="effect3_dropShadow_327_11245"/>
<feBlend mode="normal" in="SourceGraphic" in2="effect3_dropShadow_327_11245" result="shape"/>
</filter>
</defs>
</svg>
