<svg width="92" height="54" viewBox="0 0 92 54" fill="none" xmlns="http://www.w3.org/2000/svg">
<g filter="url(#filter0_ddd_327_11260)">
<path d="M12 12C12 9.23858 14.2386 7 17 7H75C77.7614 7 80 9.23858 80 12V26C80 28.7614 77.7614 31 75 31H17C14.2386 31 12 28.7614 12 26V12Z" fill="#1E1E1E"/>
<path d="M27.4648 17.5508H26.3711C26.319 17.2826 26.2253 17.0456 26.0898 16.8398C25.957 16.6341 25.793 16.4609 25.5977 16.3203C25.4049 16.1797 25.1901 16.0742 24.9531 16.0039C24.7161 15.931 24.4688 15.8945 24.2109 15.8945C23.737 15.8945 23.3112 16.0143 22.9336 16.2539C22.556 16.4909 22.2565 16.8411 22.0352 17.3047C21.8164 17.7656 21.707 18.3307 21.707 19C21.707 19.6719 21.8164 20.2396 22.0352 20.7031C22.2565 21.1641 22.556 21.513 22.9336 21.75C23.3112 21.987 23.7357 22.1055 24.207 22.1055C24.4674 22.1055 24.7148 22.0703 24.9492 22C25.1862 21.9271 25.401 21.8216 25.5938 21.6836C25.7891 21.543 25.9531 21.3711 26.0859 21.168C26.2214 20.9622 26.3164 20.7266 26.3711 20.4609H27.4648C27.3971 20.8646 27.2682 21.2292 27.0781 21.5547C26.888 21.8802 26.6484 22.1589 26.3594 22.3906C26.0729 22.6224 25.7474 22.8008 25.3828 22.9258C25.0182 23.0482 24.625 23.1094 24.2031 23.1094C23.5156 23.1094 22.9036 22.944 22.3672 22.6133C21.8307 22.2799 21.4089 21.8073 21.1016 21.1953C20.7943 20.5807 20.6406 19.849 20.6406 19C20.6406 18.151 20.7943 17.4193 21.1016 16.8047C21.4115 16.1901 21.8346 15.7174 22.3711 15.3867C22.9076 15.056 23.5182 14.8906 24.2031 14.8906C24.6172 14.8906 25.0052 14.9505 25.3672 15.0703C25.7292 15.1901 26.0547 15.3646 26.3438 15.5937C26.6354 15.8229 26.8776 16.1016 27.0703 16.4297C27.263 16.7578 27.3945 17.1315 27.4648 17.5508ZM31.3978 23.125C30.8457 23.125 30.3626 22.9961 29.9486 22.7383C29.5345 22.4779 29.2129 22.1159 28.9837 21.6523C28.7545 21.1888 28.64 20.6484 28.64 20.0312C28.64 19.4062 28.7545 18.8607 28.9837 18.3945C29.2129 17.9284 29.5345 17.5664 29.9486 17.3086C30.3626 17.0508 30.8457 16.9219 31.3978 16.9219C31.9499 16.9219 32.4329 17.0508 32.847 17.3086C33.2611 17.5664 33.5827 17.9284 33.8118 18.3945C34.041 18.8607 34.1556 19.4062 34.1556 20.0312C34.1556 20.6484 34.041 21.1888 33.8118 21.6523C33.5827 22.1159 33.2611 22.4779 32.847 22.7383C32.4329 22.9961 31.9499 23.125 31.3978 23.125ZM31.3978 22.2188C31.7884 22.2188 32.1087 22.1185 32.3587 21.918C32.6113 21.7148 32.7988 21.4479 32.9212 21.1172C33.0436 20.7839 33.1048 20.4206 33.1048 20.0273C33.1048 19.6367 33.0436 19.2747 32.9212 18.9414C32.7988 18.6055 32.6113 18.3359 32.3587 18.1328C32.1087 17.9271 31.7884 17.8242 31.3978 17.8242C31.0098 17.8242 30.6894 17.9271 30.4368 18.1328C30.1842 18.3359 29.9967 18.6055 29.8743 18.9414C29.7519 19.2747 29.6907 19.6367 29.6907 20.0273C29.6907 20.4206 29.7519 20.7839 29.8743 21.1172C29.9967 21.4479 30.1842 21.7148 30.4368 21.918C30.6894 22.1185 31.0098 22.2188 31.3978 22.2188ZM35.5641 23V17H36.5719V17.957H36.65C36.775 17.6315 36.9769 17.3776 37.2555 17.1953C37.5368 17.013 37.874 16.9219 38.2672 16.9219C38.6657 16.9219 38.999 17.013 39.2672 17.1953C39.5381 17.3776 39.7425 17.6315 39.8805 17.957H39.943C40.0914 17.6419 40.3206 17.3906 40.6305 17.2031C40.9404 17.0156 41.3115 16.9219 41.7438 16.9219C42.2829 16.9219 42.723 17.0911 43.0641 17.4297C43.4079 17.7682 43.5797 18.2852 43.5797 18.9805V23H42.5368V19.0352C42.5368 18.6107 42.4209 18.306 42.1891 18.1211C41.9573 17.9336 41.6826 17.8398 41.3649 17.8398C40.9638 17.8398 40.6526 17.9622 40.4313 18.207C40.2099 18.4492 40.0993 18.7578 40.0993 19.1328V23H39.0485V18.9531C39.0485 18.6198 38.9417 18.3516 38.7282 18.1484C38.5172 17.9427 38.2438 17.8398 37.9079 17.8398C37.6761 17.8398 37.4612 17.901 37.2633 18.0234C37.068 18.1458 36.9105 18.3151 36.7907 18.5312C36.6709 18.7448 36.611 18.9922 36.611 19.2734V23H35.5641ZM45.2548 23V17H46.2627V17.957H46.3408C46.4658 17.6315 46.6676 17.3776 46.9463 17.1953C47.2275 17.013 47.5647 16.9219 47.958 16.9219C48.3564 16.9219 48.6897 17.013 48.958 17.1953C49.2288 17.3776 49.4332 17.6315 49.5713 17.957H49.6338C49.7822 17.6419 50.0114 17.3906 50.3213 17.2031C50.6311 17.0156 51.0022 16.9219 51.4345 16.9219C51.9736 16.9219 52.4137 17.0911 52.7548 17.4297C53.0986 17.7682 53.2705 18.2852 53.2705 18.9805V23H52.2275V19.0352C52.2275 18.6107 52.1116 18.306 51.8798 18.1211C51.6481 17.9336 51.3733 17.8398 51.0556 17.8398C50.6546 17.8398 50.3434 17.9622 50.122 18.207C49.9007 18.4492 49.79 18.7578 49.79 19.1328V23H48.7392V18.9531C48.7392 18.6198 48.6324 18.3516 48.4189 18.1484C48.208 17.9427 47.9345 17.8398 47.5986 17.8398C47.3668 17.8398 47.152 17.901 46.9541 18.0234C46.7588 18.1458 46.6012 18.3151 46.4814 18.5312C46.3616 18.7448 46.3017 18.9922 46.3017 19.2734V23H45.2548ZM57.5003 23.125C56.9143 23.125 56.4104 22.9974 55.9886 22.7422C55.5667 22.4844 55.2412 22.125 55.012 21.6641C54.7854 21.2005 54.6721 20.6602 54.6721 20.043C54.6721 19.4284 54.7854 18.8867 55.012 18.418C55.2412 17.9466 55.5602 17.5794 55.969 17.3164C56.3805 17.0534 56.861 16.9219 57.4104 16.9219C57.736 16.9219 58.0537 16.9766 58.3636 17.0859C58.6761 17.1927 58.9573 17.3646 59.2073 17.6016C59.4599 17.8359 59.6591 18.1445 59.805 18.5273C59.9534 18.9102 60.0276 19.3776 60.0276 19.9297V20.332H55.3284V19.4961H58.9846C58.9846 19.1732 58.9195 18.8867 58.7893 18.6367C58.6617 18.3841 58.4794 18.1849 58.2425 18.0391C58.0081 17.8932 57.732 17.8203 57.4143 17.8203C57.0654 17.8203 56.7633 17.9049 56.5081 18.0742C56.2555 18.2435 56.0602 18.4648 55.9221 18.7383C55.7841 19.0117 55.7151 19.306 55.7151 19.6211V20.2266C55.7151 20.6536 55.7893 21.0169 55.9378 21.3164C56.0888 21.6133 56.2985 21.8398 56.5667 21.9961C56.8349 22.1497 57.1474 22.2266 57.5042 22.2266C57.736 22.2266 57.9469 22.194 58.137 22.1289C58.3271 22.0612 58.4899 21.9609 58.6253 21.8281C58.7633 21.6953 58.8701 21.5286 58.9456 21.3281L59.9456 21.5547C59.8544 21.8672 59.6956 22.1419 59.469 22.3789C59.2451 22.6133 58.9651 22.7969 58.6292 22.9297C58.2958 23.0599 57.9195 23.125 57.5003 23.125ZM62.482 19.4141V23H61.4352V17H62.443V17.957H62.5211C62.6591 17.6445 62.874 17.3945 63.1656 17.207C63.4573 17.0169 63.8284 16.9219 64.2789 16.9219C64.6878 16.9219 65.0445 17.0065 65.3492 17.1758C65.6539 17.3424 65.8909 17.5937 66.0602 17.9297C66.232 18.2656 66.318 18.6849 66.318 19.1875V23H65.2711V19.2891C65.2711 18.8333 65.1526 18.4792 64.9156 18.2266C64.6813 17.9714 64.3583 17.8438 63.9469 17.8438C63.6656 17.8438 63.4143 17.9049 63.193 18.0273C62.9716 18.1497 62.7971 18.3281 62.6695 18.5625C62.5445 18.7969 62.482 19.0807 62.482 19.4141ZM70.6962 17V17.8594H67.5048V17H70.6962ZM68.3954 15.5625H69.4423V21.2617C69.4423 21.5039 69.4775 21.6862 69.5478 21.8086C69.6207 21.9284 69.7144 22.0091 69.829 22.0508C69.9436 22.0924 70.0673 22.1133 70.2001 22.1133C70.2965 22.1133 70.3785 22.1081 70.4462 22.0977C70.5139 22.0846 70.5673 22.0742 70.6064 22.0664L70.8056 22.9609C70.7405 22.9844 70.648 23.0091 70.5282 23.0352C70.4111 23.0638 70.2626 23.0781 70.0829 23.0781C69.7991 23.0807 69.5282 23.026 69.2704 22.9141C69.0126 22.7995 68.8017 22.625 68.6376 22.3906C68.4762 22.1562 68.3954 21.8607 68.3954 21.5039V15.5625Z" fill="white"/>
<path d="M46 37L52 31H40L46 37Z" fill="#1E1E1E"/>
</g>
<defs>
<filter id="filter0_ddd_327_11260" x="0" y="0" width="92" height="54" filterUnits="userSpaceOnUse" color-interpolation-filters="sRGB">
<feFlood flood-opacity="0" result="BackgroundImageFix"/>
<feColorMatrix in="SourceAlpha" type="matrix" values="0 0 0 0 0 0 0 0 0 0 0 0 0 0 0 0 0 0 127 0" result="hardAlpha"/>
<feOffset dy="1"/>
<feGaussianBlur stdDeviation="1.5"/>
<feColorMatrix type="matrix" values="0 0 0 0 0 0 0 0 0 0 0 0 0 0 0 0 0 0 0.1 0"/>
<feBlend mode="normal" in2="BackgroundImageFix" result="effect1_dropShadow_327_11260"/>
<feColorMatrix in="SourceAlpha" type="matrix" values="0 0 0 0 0 0 0 0 0 0 0 0 0 0 0 0 0 0 127 0" result="hardAlpha"/>
<feOffset dy="5"/>
<feGaussianBlur stdDeviation="6"/>
<feColorMatrix type="matrix" values="0 0 0 0 0 0 0 0 0 0 0 0 0 0 0 0 0 0 0.13 0"/>
<feBlend mode="normal" in2="effect1_dropShadow_327_11260" result="effect2_dropShadow_327_11260"/>
<feColorMatrix in="SourceAlpha" type="matrix" values="0 0 0 0 0 0 0 0 0 0 0 0 0 0 0 0 0 0 127 0" result="hardAlpha"/>
<feOffset/>
<feGaussianBlur stdDeviation="0.25"/>
<feColorMatrix type="matrix" values="0 0 0 0 0 0 0 0 0 0 0 0 0 0 0 0 0 0 0.15 0"/>
<feBlend mode="normal" in2="effect2_dropShadow_327_11260" result="effect3_dropShadow_327_11260"/>
<feBlend mode="normal" in="SourceGraphic" in2="effect3_dropShadow_327_11260" result="shape"/>
</filter>
</defs>
</svg>
