<svg width="85" height="54" viewBox="0 0 85 54" fill="none" xmlns="http://www.w3.org/2000/svg">
<g filter="url(#filter0_ddd_327_11240)">
<path d="M12 12C12 9.23858 14.2386 7 17 7H68C70.7614 7 73 9.23858 73 12V26C73 28.7614 70.7614 31 68 31H17C14.2386 31 12 28.7614 12 26V12Z" fill="#1E1E1E"/>
<path d="M23.4531 23H20.9219V15H23.5469C24.3281 15 24.9974 15.1602 25.5547 15.4805C26.112 15.7982 26.5391 16.2552 26.8359 16.8516C27.1328 17.4453 27.2812 18.1562 27.2812 18.9844C27.2812 19.8177 27.1315 20.5352 26.832 21.1367C26.5326 21.7357 26.0977 22.1966 25.5273 22.5195C24.957 22.8398 24.2656 23 23.4531 23ZM22.0117 22.043H23.3906C24.0234 22.043 24.5495 21.9219 24.9688 21.6797C25.388 21.4375 25.7005 21.0885 25.9062 20.6328C26.1146 20.1771 26.2188 19.6276 26.2188 18.9844C26.2188 18.349 26.1159 17.806 25.9102 17.3555C25.707 16.9023 25.4023 16.556 24.9961 16.3164C24.5898 16.0768 24.0846 15.957 23.4805 15.957H22.0117V22.043ZM28.7845 23V17H29.7962V17.9297H29.8587C29.9681 17.6198 30.1634 17.3724 30.4446 17.1875C30.7285 17 31.0475 16.9062 31.4017 16.9062C31.472 16.9062 31.5566 16.9089 31.6556 16.9141C31.7571 16.9167 31.8366 16.9219 31.8939 16.9297V17.957C31.8548 17.9466 31.7767 17.9336 31.6595 17.918C31.5449 17.8997 31.4277 17.8906 31.3079 17.8906C31.0241 17.8906 30.7702 17.9505 30.5462 18.0703C30.3249 18.1875 30.1504 18.3503 30.0228 18.5586C29.8952 18.7669 29.8314 19.0039 29.8314 19.2695V23H28.7845ZM32.9967 23V17H34.0436V23H32.9967ZM33.528 16.0391C33.3379 16.0391 33.1738 15.974 33.0358 15.8437C32.9004 15.7135 32.8327 15.5573 32.8327 15.375C32.8327 15.1953 32.9004 15.0404 33.0358 14.9102C33.1738 14.7799 33.3379 14.7148 33.528 14.7148C33.7181 14.7148 33.8808 14.7799 34.0162 14.9102C34.1543 15.0404 34.2233 15.1953 34.2233 15.375C34.2233 15.5573 34.1543 15.7135 34.0162 15.8437C33.8808 15.974 33.7181 16.0391 33.528 16.0391ZM35.8359 23V15H36.8828V17.9609H36.957C37.0247 17.849 37.1211 17.7109 37.2461 17.5469C37.3711 17.3828 37.5468 17.2383 37.7734 17.1133C38 16.9857 38.3046 16.9219 38.6875 16.9219C39.1796 16.9219 39.6171 17.0469 40 17.2969C40.3828 17.5443 40.6823 17.8997 40.8984 18.3633C41.1171 18.8242 41.2265 19.375 41.2265 20.0156C41.2265 20.6562 41.1185 21.2083 40.9023 21.6719C40.6862 22.1354 40.388 22.4935 40.0078 22.7461C39.6276 22.9961 39.1914 23.1211 38.6992 23.1211C38.3242 23.1211 38.0208 23.0586 37.789 22.9336C37.5599 22.8086 37.3802 22.6641 37.25 22.5C37.1224 22.3333 37.0247 22.1901 36.957 22.0703H36.8515V23H35.8359ZM36.8632 20C36.8632 20.4375 36.927 20.8229 37.0546 21.1562C37.1823 21.487 37.3671 21.7461 37.6093 21.9336C37.8541 22.1185 38.1536 22.2109 38.5078 22.2109C38.8724 22.2109 39.1783 22.1133 39.4257 21.918C39.6731 21.7227 39.8593 21.4583 39.9843 21.125C40.1119 20.7891 40.1757 20.4141 40.1757 20C40.1757 19.5911 40.1132 19.224 39.9882 18.8984C39.8658 18.5703 39.681 18.3112 39.4336 18.1211C39.1862 17.9284 38.8776 17.832 38.5078 17.832C38.1484 17.832 37.8463 17.9232 37.6015 18.1055C37.3593 18.2852 37.1757 18.5378 37.0507 18.8633C36.9257 19.1888 36.8632 19.5677 36.8632 20ZM42.7444 23V15H43.7913V17.9609H43.8655C43.9332 17.849 44.0296 17.7109 44.1546 17.5469C44.2796 17.3828 44.4554 17.2383 44.6819 17.1133C44.9085 16.9857 45.2132 16.9219 45.596 16.9219C46.0882 16.9219 46.5257 17.0469 46.9085 17.2969C47.2913 17.5443 47.5908 17.8997 47.8069 18.3633C48.0257 18.8242 48.135 19.375 48.135 20.0156C48.135 20.6562 48.027 21.2083 47.8108 21.6719C47.5947 22.1354 47.2965 22.4935 46.9163 22.7461C46.5361 22.9961 46.0999 23.1211 45.6077 23.1211C45.2327 23.1211 44.9293 23.0586 44.6975 22.9336C44.4684 22.8086 44.2887 22.6641 44.1585 22.5C44.0309 22.3333 43.9332 22.1901 43.8655 22.0703H43.76V23H42.7444ZM43.7718 20C43.7718 20.4375 43.8356 20.8229 43.9632 21.1562C44.0908 21.487 44.2757 21.7461 44.5179 21.9336C44.7626 22.1185 45.0621 22.2109 45.4163 22.2109C45.7809 22.2109 46.0869 22.1133 46.3343 21.918C46.5817 21.7227 46.7679 21.4583 46.8929 21.125C47.0205 20.7891 47.0843 20.4141 47.0843 20C47.0843 19.5911 47.0218 19.224 46.8968 18.8984C46.7744 18.5703 46.5895 18.3112 46.3421 18.1211C46.0947 17.9284 45.7861 17.832 45.4163 17.832C45.0569 17.832 44.7548 17.9232 44.51 18.1055C44.2679 18.2852 44.0843 18.5378 43.9593 18.8633C43.8343 19.1888 43.7718 19.5677 43.7718 20ZM49.6529 23V15H50.6998V17.9609H50.774C50.8417 17.849 50.9381 17.7109 51.0631 17.5469C51.1881 17.3828 51.3639 17.2383 51.5904 17.1133C51.817 16.9857 52.1217 16.9219 52.5045 16.9219C52.9967 16.9219 53.4342 17.0469 53.817 17.2969C54.1998 17.5443 54.4993 17.8997 54.7154 18.3633C54.9342 18.8242 55.0436 19.375 55.0436 20.0156C55.0436 20.6562 54.9355 21.2083 54.7193 21.6719C54.5032 22.1354 54.205 22.4935 53.8248 22.7461C53.4446 22.9961 53.0084 23.1211 52.5162 23.1211C52.1412 23.1211 51.8378 23.0586 51.6061 22.9336C51.3769 22.8086 51.1972 22.6641 51.067 22.5C50.9394 22.3333 50.8417 22.1901 50.774 22.0703H50.6686V23H49.6529ZM50.6803 20C50.6803 20.4375 50.7441 20.8229 50.8717 21.1562C50.9993 21.487 51.1842 21.7461 51.4264 21.9336C51.6712 22.1185 51.9706 22.2109 52.3248 22.2109C52.6894 22.2109 52.9954 22.1133 53.2428 21.918C53.4902 21.7227 53.6764 21.4583 53.8014 21.125C53.929 20.7891 53.9928 20.4141 53.9928 20C53.9928 19.5911 53.9303 19.224 53.8053 18.8984C53.6829 18.5703 53.498 18.3112 53.2506 18.1211C53.0032 17.9284 52.6946 17.832 52.3248 17.832C51.9654 17.832 51.6633 17.9232 51.4186 18.1055C51.1764 18.2852 50.9928 18.5378 50.8678 18.8633C50.7428 19.1888 50.6803 19.5677 50.6803 20ZM57.4989 15V23H56.4521V15H57.4989ZM61.7366 23.125C61.1506 23.125 60.6467 22.9974 60.2248 22.7422C59.803 22.4844 59.4774 22.125 59.2483 21.6641C59.0217 21.2005 58.9084 20.6602 58.9084 20.043C58.9084 19.4284 59.0217 18.8867 59.2483 18.418C59.4774 17.9466 59.7965 17.5794 60.2053 17.3164C60.6168 17.0534 61.0972 16.9219 61.6467 16.9219C61.9722 16.9219 62.2899 16.9766 62.5998 17.0859C62.9123 17.1927 63.1936 17.3646 63.4436 17.6016C63.6962 17.8359 63.8954 18.1445 64.0412 18.5273C64.1897 18.9102 64.2639 19.3776 64.2639 19.9297V20.332H59.5647V19.4961H63.2209C63.2209 19.1732 63.1558 18.8867 63.0256 18.6367C62.898 18.3841 62.7157 18.1849 62.4787 18.0391C62.2444 17.8932 61.9683 17.8203 61.6506 17.8203C61.3017 17.8203 60.9996 17.9049 60.7444 18.0742C60.4918 18.2435 60.2965 18.4648 60.1584 18.7383C60.0204 19.0117 59.9514 19.306 59.9514 19.6211V20.2266C59.9514 20.6536 60.0256 21.0169 60.1741 21.3164C60.3251 21.6133 60.5347 21.8398 60.803 21.9961C61.0712 22.1497 61.3837 22.2266 61.7405 22.2266C61.9722 22.2266 62.1832 22.194 62.3733 22.1289C62.5634 22.0612 62.7261 21.9609 62.8616 21.8281C62.9996 21.6953 63.1064 21.5286 63.1819 21.3281L64.1819 21.5547C64.0907 21.8672 63.9319 22.1419 63.7053 22.3789C63.4814 22.6133 63.2014 22.7969 62.8655 22.9297C62.5321 23.0599 62.1558 23.125 61.7366 23.125Z" fill="white"/>
<path d="M43 37L49 31H37L43 37Z" fill="#1E1E1E"/>
</g>
<defs>
<filter id="filter0_ddd_327_11240" x="0" y="0" width="85" height="54" filterUnits="userSpaceOnUse" color-interpolation-filters="sRGB">
<feFlood flood-opacity="0" result="BackgroundImageFix"/>
<feColorMatrix in="SourceAlpha" type="matrix" values="0 0 0 0 0 0 0 0 0 0 0 0 0 0 0 0 0 0 127 0" result="hardAlpha"/>
<feOffset dy="1"/>
<feGaussianBlur stdDeviation="1.5"/>
<feColorMatrix type="matrix" values="0 0 0 0 0 0 0 0 0 0 0 0 0 0 0 0 0 0 0.1 0"/>
<feBlend mode="normal" in2="BackgroundImageFix" result="effect1_dropShadow_327_11240"/>
<feColorMatrix in="SourceAlpha" type="matrix" values="0 0 0 0 0 0 0 0 0 0 0 0 0 0 0 0 0 0 127 0" result="hardAlpha"/>
<feOffset dy="5"/>
<feGaussianBlur stdDeviation="6"/>
<feColorMatrix type="matrix" values="0 0 0 0 0 0 0 0 0 0 0 0 0 0 0 0 0 0 0.13 0"/>
<feBlend mode="normal" in2="effect1_dropShadow_327_11240" result="effect2_dropShadow_327_11240"/>
<feColorMatrix in="SourceAlpha" type="matrix" values="0 0 0 0 0 0 0 0 0 0 0 0 0 0 0 0 0 0 127 0" result="hardAlpha"/>
<feOffset/>
<feGaussianBlur stdDeviation="0.25"/>
<feColorMatrix type="matrix" values="0 0 0 0 0 0 0 0 0 0 0 0 0 0 0 0 0 0 0.15 0"/>
<feBlend mode="normal" in2="effect2_dropShadow_327_11240" result="effect3_dropShadow_327_11240"/>
<feBlend mode="normal" in="SourceGraphic" in2="effect3_dropShadow_327_11240" result="shape"/>
</filter>
</defs>
</svg>
