<svg width="85" height="54" viewBox="0 0 85 54" fill="none" xmlns="http://www.w3.org/2000/svg">
<g filter="url(#filter0_ddd_327_11250)">
<path d="M12 12C12 9.23858 14.2386 7 17 7H68C70.7614 7 73 9.23858 73 12V26C73 28.7614 70.7614 31 68 31H17C14.2386 31 12 28.7614 12 26V12Z" fill="#1E1E1E"/>
<path d="M20.9219 23V15H22.0117V22.0508H25.6836V23H20.9219ZM27.0657 23V17H28.1126V23H27.0657ZM27.597 16.0391C27.4069 16.0391 27.2428 15.974 27.1048 15.8437C26.9694 15.7135 26.9017 15.5573 26.9017 15.375C26.9017 15.1953 26.9694 15.0404 27.1048 14.9102C27.2428 14.7799 27.4069 14.7148 27.597 14.7148C27.7871 14.7148 27.9499 14.7799 28.0853 14.9102C28.2233 15.0404 28.2923 15.1953 28.2923 15.375C28.2923 15.5573 28.2233 15.7135 28.0853 15.8437C27.9499 15.974 27.7871 16.0391 27.597 16.0391ZM30.8424 19.4141V23H29.7955V17H30.8034V17.957H30.8815C31.0195 17.6445 31.2343 17.3945 31.526 17.207C31.8177 17.0169 32.1888 16.9219 32.6393 16.9219C33.0482 16.9219 33.4049 17.0065 33.7096 17.1758C34.0143 17.3424 34.2513 17.5937 34.4205 17.9297C34.5924 18.2656 34.6784 18.6849 34.6784 19.1875V23H33.6315V19.2891C33.6315 18.8333 33.513 18.4792 33.276 18.2266C33.0416 17.9714 32.7187 17.8438 32.3073 17.8438C32.026 17.8438 31.7747 17.9049 31.5534 18.0273C31.332 18.1497 31.1575 18.3281 31.0299 18.5625C30.9049 18.7969 30.8424 19.0807 30.8424 19.4141ZM37.3183 20.8906L37.3066 19.6055H37.5019L40.0097 17H41.2793L38.5175 19.8594H38.3886L37.3183 20.8906ZM36.3496 23V15H37.3964V23H36.3496ZM40.1543 23L37.9043 20.0898L38.6386 19.3594L41.455 23H40.1543ZM44.7708 23.125C44.1848 23.125 43.6809 22.9974 43.2591 22.7422C42.8372 22.4844 42.5117 22.125 42.2825 21.6641C42.0559 21.2005 41.9427 20.6602 41.9427 20.043C41.9427 19.4284 42.0559 18.8867 42.2825 18.418C42.5117 17.9466 42.8307 17.5794 43.2395 17.3164C43.651 17.0534 44.1315 16.9219 44.6809 16.9219C45.0065 16.9219 45.3242 16.9766 45.6341 17.0859C45.9466 17.1927 46.2278 17.3646 46.4778 17.6016C46.7304 17.8359 46.9296 18.1445 47.0755 18.5273C47.2239 18.9102 47.2981 19.3776 47.2981 19.9297V20.332H42.5989V19.4961H46.2552C46.2552 19.1732 46.1901 18.8867 46.0598 18.6367C45.9322 18.3841 45.7499 18.1849 45.513 18.0391C45.2786 17.8932 45.0026 17.8203 44.6848 17.8203C44.3359 17.8203 44.0338 17.9049 43.7786 18.0742C43.526 18.2435 43.3307 18.4648 43.1927 18.7383C43.0546 19.0117 42.9856 19.306 42.9856 19.6211V20.2266C42.9856 20.6536 43.0598 21.0169 43.2083 21.3164C43.3593 21.6133 43.569 21.8398 43.8372 21.9961C44.1054 22.1497 44.4179 22.2266 44.7747 22.2266C45.0065 22.2266 45.2174 22.194 45.4075 22.1289C45.5976 22.0612 45.7604 21.9609 45.8958 21.8281C46.0338 21.6953 46.1406 21.5286 46.2161 21.3281L47.2161 21.5547C47.1249 21.8672 46.9661 22.1419 46.7395 22.3789C46.5156 22.6133 46.2356 22.7969 45.8997 22.9297C45.5664 23.0599 45.1901 23.125 44.7708 23.125ZM50.9635 23.1211C50.4713 23.1211 50.0351 22.9961 49.6549 22.7461C49.2747 22.4935 48.9765 22.1354 48.7604 21.6719C48.5442 21.2083 48.4361 20.6562 48.4361 20.0156C48.4361 19.375 48.5442 18.8242 48.7604 18.3633C48.9765 17.8997 49.276 17.5443 49.6588 17.2969C50.0416 17.0469 50.4804 16.9219 50.9752 16.9219C51.358 16.9219 51.6627 16.9857 51.8893 17.1133C52.1158 17.2383 52.2916 17.3828 52.4166 17.5469C52.5416 17.7109 52.638 17.849 52.7057 17.9609H52.7799V15H53.8229V23H52.8072V22.0703H52.7057C52.6354 22.1901 52.5364 22.3333 52.4088 22.5C52.2812 22.6641 52.1015 22.8086 51.8697 22.9336C51.6406 23.0586 51.3385 23.1211 50.9635 23.1211ZM51.1549 22.2109C51.509 22.2109 51.8072 22.1185 52.0494 21.9336C52.2942 21.7461 52.4804 21.487 52.608 21.1562C52.7356 20.8229 52.7994 20.4375 52.7994 20C52.7994 19.5677 52.7369 19.1888 52.6119 18.8633C52.4869 18.5378 52.302 18.2852 52.0572 18.1055C51.8124 17.9232 51.5117 17.832 51.1549 17.832C50.7851 17.832 50.4765 17.9284 50.2291 18.1211C49.9817 18.3112 49.7955 18.5703 49.6705 18.8984C49.5481 19.224 49.4869 19.5911 49.4869 20C49.4869 20.4141 49.5494 20.7891 49.6744 21.125C49.802 21.4583 49.9882 21.7227 50.233 21.918C50.4804 22.1133 50.7877 22.2109 51.1549 22.2109ZM55.6142 23V17H56.6611V23H55.6142ZM56.1454 16.0391C55.9553 16.0391 55.7913 15.974 55.6532 15.8437C55.5178 15.7135 55.4501 15.5573 55.4501 15.375C55.4501 15.1953 55.5178 15.0404 55.6532 14.9102C55.7913 14.7799 55.9553 14.7148 56.1454 14.7148C56.3355 14.7148 56.4983 14.7799 56.6337 14.9102C56.7717 15.0404 56.8407 15.1953 56.8407 15.375C56.8407 15.5573 56.7717 15.7135 56.6337 15.8437C56.4983 15.974 56.3355 16.0391 56.1454 16.0391ZM59.3909 19.4141V23H58.344V17H59.3518V17.957H59.4299C59.5679 17.6445 59.7828 17.3945 60.0745 17.207C60.3661 17.0169 60.7372 16.9219 61.1877 16.9219C61.5966 16.9219 61.9534 17.0065 62.258 17.1758C62.5627 17.3424 62.7997 17.5937 62.969 17.9297C63.1409 18.2656 63.2268 18.6849 63.2268 19.1875V23H62.1799V19.2891C62.1799 18.8333 62.0614 18.4792 61.8245 18.2266C61.5901 17.9714 61.2672 17.8438 60.8557 17.8438C60.5745 17.8438 60.3231 17.9049 60.1018 18.0273C59.8804 18.1497 59.706 18.3281 59.5784 18.5625C59.4534 18.7969 59.3909 19.0807 59.3909 19.4141Z" fill="white"/>
<path d="M43 37L49 31H37L43 37Z" fill="#1E1E1E"/>
</g>
<defs>
<filter id="filter0_ddd_327_11250" x="0" y="0" width="85" height="54" filterUnits="userSpaceOnUse" color-interpolation-filters="sRGB">
<feFlood flood-opacity="0" result="BackgroundImageFix"/>
<feColorMatrix in="SourceAlpha" type="matrix" values="0 0 0 0 0 0 0 0 0 0 0 0 0 0 0 0 0 0 127 0" result="hardAlpha"/>
<feOffset dy="1"/>
<feGaussianBlur stdDeviation="1.5"/>
<feColorMatrix type="matrix" values="0 0 0 0 0 0 0 0 0 0 0 0 0 0 0 0 0 0 0.1 0"/>
<feBlend mode="normal" in2="BackgroundImageFix" result="effect1_dropShadow_327_11250"/>
<feColorMatrix in="SourceAlpha" type="matrix" values="0 0 0 0 0 0 0 0 0 0 0 0 0 0 0 0 0 0 127 0" result="hardAlpha"/>
<feOffset dy="5"/>
<feGaussianBlur stdDeviation="6"/>
<feColorMatrix type="matrix" values="0 0 0 0 0 0 0 0 0 0 0 0 0 0 0 0 0 0 0.13 0"/>
<feBlend mode="normal" in2="effect1_dropShadow_327_11250" result="effect2_dropShadow_327_11250"/>
<feColorMatrix in="SourceAlpha" type="matrix" values="0 0 0 0 0 0 0 0 0 0 0 0 0 0 0 0 0 0 127 0" result="hardAlpha"/>
<feOffset/>
<feGaussianBlur stdDeviation="0.25"/>
<feColorMatrix type="matrix" values="0 0 0 0 0 0 0 0 0 0 0 0 0 0 0 0 0 0 0.15 0"/>
<feBlend mode="normal" in2="effect2_dropShadow_327_11250" result="effect3_dropShadow_327_11250"/>
<feBlend mode="normal" in="SourceGraphic" in2="effect3_dropShadow_327_11250" result="shape"/>
</filter>
</defs>
</svg>
