<svg width="69" height="54" viewBox="0 0 69 54" fill="none" xmlns="http://www.w3.org/2000/svg">
<g filter="url(#filter0_ddd_327_11234)">
<path d="M12 12C12 9.23858 14.2386 7 17 7H52C54.7614 7 57 9.23858 57 12V26C57 28.7614 54.7614 31 52 31H17C14.2386 31 12 28.7614 12 26V12Z" fill="#1E1E1E"/>
<path d="M20.9219 15H22.2344L24.8672 21.4297H24.9609L27.5938 15H28.9063V23H27.875V17.0664H27.8008L25.3711 22.9922H24.457L22.0273 17.0625H21.9531V23H20.9219V15ZM33.181 23.125C32.6289 23.125 32.1458 22.9961 31.7318 22.7383C31.3177 22.4779 30.9961 22.1159 30.7669 21.6523C30.5377 21.1888 30.4232 20.6484 30.4232 20.0312C30.4232 19.4062 30.5377 18.8607 30.7669 18.3945C30.9961 17.9284 31.3177 17.5664 31.7318 17.3086C32.1458 17.0508 32.6289 16.9219 33.181 16.9219C33.7331 16.9219 34.2161 17.0508 34.6302 17.3086C35.0443 17.5664 35.3659 17.9284 35.595 18.3945C35.8242 18.8607 35.9388 19.4062 35.9388 20.0312C35.9388 20.6484 35.8242 21.1888 35.595 21.6523C35.3659 22.1159 35.0443 22.4779 34.6302 22.7383C34.2161 22.9961 33.7331 23.125 33.181 23.125ZM33.181 22.2188C33.5716 22.2188 33.8919 22.1185 34.1419 21.918C34.3945 21.7148 34.582 21.4479 34.7044 21.1172C34.8268 20.7839 34.888 20.4206 34.888 20.0273C34.888 19.6367 34.8268 19.2747 34.7044 18.9414C34.582 18.6055 34.3945 18.3359 34.1419 18.1328C33.8919 17.9271 33.5716 17.8242 33.181 17.8242C32.793 17.8242 32.4726 17.9271 32.22 18.1328C31.9674 18.3359 31.7799 18.6055 31.6575 18.9414C31.5351 19.2747 31.4739 19.6367 31.4739 20.0273C31.4739 20.4206 31.5351 20.7839 31.6575 21.1172C31.7799 21.4479 31.9674 21.7148 32.22 21.918C32.4726 22.1185 32.793 22.2188 33.181 22.2188ZM42.1559 17L39.9567 23H38.8629L36.6637 17H37.7887L39.3786 21.6992H39.4411L41.027 17H42.1559ZM45.7041 23.125C45.1181 23.125 44.6142 22.9974 44.1923 22.7422C43.7705 22.4844 43.4449 22.125 43.2158 21.6641C42.9892 21.2005 42.8759 20.6602 42.8759 20.043C42.8759 19.4284 42.9892 18.8867 43.2158 18.418C43.4449 17.9466 43.764 17.5794 44.1728 17.3164C44.5843 17.0534 45.0647 16.9219 45.6142 16.9219C45.9397 16.9219 46.2574 16.9766 46.5673 17.0859C46.8798 17.1927 47.1611 17.3646 47.4111 17.6016C47.6637 17.8359 47.8629 18.1445 48.0088 18.5273C48.1572 18.9102 48.2314 19.3776 48.2314 19.9297V20.332H43.5322V19.4961H47.1884C47.1884 19.1732 47.1233 18.8867 46.9931 18.6367C46.8655 18.3841 46.6832 18.1849 46.4463 18.0391C46.2119 17.8932 45.9358 17.8203 45.6181 17.8203C45.2692 17.8203 44.9671 17.9049 44.7119 18.0742C44.4593 18.2435 44.264 18.4648 44.1259 18.7383C43.9879 19.0117 43.9189 19.306 43.9189 19.6211V20.2266C43.9189 20.6536 43.9931 21.0169 44.1416 21.3164C44.2926 21.6133 44.5022 21.8398 44.7705 21.9961C45.0387 22.1497 45.3512 22.2266 45.708 22.2266C45.9397 22.2266 46.1507 22.194 46.3408 22.1289C46.5309 22.0612 46.6936 21.9609 46.8291 21.8281C46.9671 21.6953 47.0739 21.5286 47.1494 21.3281L48.1494 21.5547C48.0582 21.8672 47.8994 22.1419 47.6728 22.3789C47.4489 22.6133 47.1689 22.7969 46.833 22.9297C46.4996 23.0599 46.1233 23.125 45.7041 23.125Z" fill="white"/>
<path d="M35 37L41 31H29L35 37Z" fill="#1E1E1E"/>
</g>
<defs>
<filter id="filter0_ddd_327_11234" x="0" y="0" width="69" height="54" filterUnits="userSpaceOnUse" color-interpolation-filters="sRGB">
<feFlood flood-opacity="0" result="BackgroundImageFix"/>
<feColorMatrix in="SourceAlpha" type="matrix" values="0 0 0 0 0 0 0 0 0 0 0 0 0 0 0 0 0 0 127 0" result="hardAlpha"/>
<feOffset dy="1"/>
<feGaussianBlur stdDeviation="1.5"/>
<feColorMatrix type="matrix" values="0 0 0 0 0 0 0 0 0 0 0 0 0 0 0 0 0 0 0.1 0"/>
<feBlend mode="normal" in2="BackgroundImageFix" result="effect1_dropShadow_327_11234"/>
<feColorMatrix in="SourceAlpha" type="matrix" values="0 0 0 0 0 0 0 0 0 0 0 0 0 0 0 0 0 0 127 0" result="hardAlpha"/>
<feOffset dy="5"/>
<feGaussianBlur stdDeviation="6"/>
<feColorMatrix type="matrix" values="0 0 0 0 0 0 0 0 0 0 0 0 0 0 0 0 0 0 0.13 0"/>
<feBlend mode="normal" in2="effect1_dropShadow_327_11234" result="effect2_dropShadow_327_11234"/>
<feColorMatrix in="SourceAlpha" type="matrix" values="0 0 0 0 0 0 0 0 0 0 0 0 0 0 0 0 0 0 127 0" result="hardAlpha"/>
<feOffset/>
<feGaussianBlur stdDeviation="0.25"/>
<feColorMatrix type="matrix" values="0 0 0 0 0 0 0 0 0 0 0 0 0 0 0 0 0 0 0.15 0"/>
<feBlend mode="normal" in2="effect2_dropShadow_327_11234" result="effect3_dropShadow_327_11234"/>
<feBlend mode="normal" in="SourceGraphic" in2="effect3_dropShadow_327_11234" result="shape"/>
</filter>
</defs>
</svg>
