<svg width="89" height="54" viewBox="0 0 89 54" fill="none" xmlns="http://www.w3.org/2000/svg">
<g filter="url(#filter0_ddd_327_11255)">
<path d="M12 12C12 9.23858 14.2386 7 17 7H72C74.7614 7 77 9.23858 77 12V26C77 28.7614 74.7614 31 72 31H17C14.2386 31 12 28.7614 12 26V12Z" fill="#1E1E1E"/>
<path d="M20.5078 15.9492V15H26.6016V15.9492H24.0977V23H23.0117V15.9492H20.5078ZM29.6634 23.125C29.0775 23.125 28.5736 22.9974 28.1517 22.7422C27.7298 22.4844 27.4043 22.125 27.1751 21.6641C26.9486 21.2005 26.8353 20.6602 26.8353 20.043C26.8353 19.4284 26.9486 18.8867 27.1751 18.418C27.4043 17.9466 27.7233 17.5794 28.1321 17.3164C28.5436 17.0534 29.0241 16.9219 29.5736 16.9219C29.8991 16.9219 30.2168 16.9766 30.5267 17.0859C30.8392 17.1927 31.1204 17.3646 31.3704 17.6016C31.623 17.8359 31.8223 18.1445 31.9681 18.5273C32.1165 18.9102 32.1907 19.3776 32.1907 19.9297V20.332H27.4915V19.4961H31.1478C31.1478 19.1732 31.0827 18.8867 30.9525 18.6367C30.8249 18.3841 30.6426 18.1849 30.4056 18.0391C30.1712 17.8932 29.8952 17.8203 29.5775 17.8203C29.2285 17.8203 28.9264 17.9049 28.6712 18.0742C28.4186 18.2435 28.2233 18.4648 28.0853 18.7383C27.9473 19.0117 27.8782 19.306 27.8782 19.6211V20.2266C27.8782 20.6536 27.9525 21.0169 28.1009 21.3164C28.2519 21.6133 28.4616 21.8398 28.7298 21.9961C28.998 22.1497 29.3105 22.2266 29.6673 22.2266C29.8991 22.2266 30.11 22.194 30.3001 22.1289C30.4902 22.0612 30.653 21.9609 30.7884 21.8281C30.9264 21.6953 31.0332 21.5286 31.1087 21.3281L32.1087 21.5547C32.0176 21.8672 31.8587 22.1419 31.6321 22.3789C31.4082 22.6133 31.1282 22.7969 30.7923 22.9297C30.459 23.0599 30.0827 23.125 29.6634 23.125ZM34.6452 15V23H33.5983V15H34.6452ZM38.8828 23.125C38.2968 23.125 37.7929 22.9974 37.3711 22.7422C36.9492 22.4844 36.6237 22.125 36.3945 21.6641C36.1679 21.2005 36.0546 20.6602 36.0546 20.043C36.0546 19.4284 36.1679 18.8867 36.3945 18.418C36.6237 17.9466 36.9427 17.5794 37.3515 17.3164C37.763 17.0534 38.2435 16.9219 38.7929 16.9219C39.1185 16.9219 39.4362 16.9766 39.7461 17.0859C40.0586 17.1927 40.3398 17.3646 40.5898 17.6016C40.8424 17.8359 41.0416 18.1445 41.1875 18.5273C41.3359 18.9102 41.4101 19.3776 41.4101 19.9297V20.332H36.7109V19.4961H40.3671C40.3671 19.1732 40.302 18.8867 40.1718 18.6367C40.0442 18.3841 39.8619 18.1849 39.625 18.0391C39.3906 17.8932 39.1145 17.8203 38.7968 17.8203C38.4479 17.8203 38.1458 17.9049 37.8906 18.0742C37.638 18.2435 37.4427 18.4648 37.3046 18.7383C37.1666 19.0117 37.0976 19.306 37.0976 19.6211V20.2266C37.0976 20.6536 37.1718 21.0169 37.3203 21.3164C37.4713 21.6133 37.681 21.8398 37.9492 21.9961C38.2174 22.1497 38.5299 22.2266 38.8867 22.2266C39.1185 22.2266 39.3294 22.194 39.5195 22.1289C39.7096 22.0612 39.8724 21.9609 40.0078 21.8281C40.1458 21.6953 40.2526 21.5286 40.3281 21.3281L41.3281 21.5547C41.2369 21.8672 41.0781 22.1419 40.8515 22.3789C40.6276 22.6133 40.3476 22.7969 40.0117 22.9297C39.6783 23.0599 39.302 23.125 38.8828 23.125ZM45.2864 25.375C44.8255 25.375 44.4296 25.3151 44.0989 25.1953C43.7682 25.0781 43.4947 24.9219 43.2786 24.7266C43.0651 24.5313 42.901 24.3203 42.7864 24.0938L43.6536 23.6289C43.7317 23.7409 43.832 23.8646 43.9544 24C44.0794 24.1354 44.2486 24.2526 44.4622 24.3516C44.6757 24.4505 44.9531 24.5 45.2942 24.5C45.7578 24.5 46.1406 24.3867 46.4427 24.1602C46.7447 23.9362 46.8958 23.582 46.8958 23.0977V21.8984H46.8177C46.7499 22.0182 46.6523 22.1576 46.5247 22.3164C46.3971 22.4727 46.2174 22.6107 45.9856 22.7305C45.7565 22.8477 45.4531 22.9062 45.0755 22.9062C44.5963 22.9062 44.1653 22.7943 43.7825 22.5703C43.4023 22.3437 43.1015 22.0117 42.8802 21.5742C42.6588 21.1367 42.5481 20.6029 42.5481 19.9727C42.5481 19.3477 42.6562 18.8073 42.8723 18.3516C43.0885 17.8932 43.388 17.5404 43.7708 17.293C44.1536 17.0456 44.5924 16.9219 45.0872 16.9219C45.47 16.9219 45.776 16.9857 46.0052 17.1133C46.2343 17.2383 46.4114 17.3828 46.5364 17.5469C46.664 17.7109 46.763 17.849 46.8333 17.9609H46.9192V17H47.9387V23.1523C47.9387 23.668 47.8203 24.0885 47.5833 24.4141C47.3489 24.7422 47.0312 24.9844 46.6302 25.1406C46.2291 25.2969 45.7812 25.375 45.2864 25.375ZM45.2669 22.0078C45.621 22.0078 45.9192 21.9271 46.1614 21.7656C46.4062 21.6016 46.5924 21.3659 46.72 21.0586C46.8476 20.7513 46.9114 20.3841 46.9114 19.957C46.9114 19.5378 46.8489 19.1693 46.7239 18.8516C46.5989 18.5339 46.414 18.2852 46.1692 18.1055C45.9244 17.9232 45.6236 17.832 45.2669 17.832C44.8971 17.832 44.5885 17.9271 44.3411 18.1172C44.0937 18.3073 43.9075 18.5625 43.7825 18.8828C43.6601 19.2031 43.5989 19.5612 43.5989 19.957C43.5989 20.3633 43.6614 20.7201 43.7864 21.0273C43.914 21.3346 44.1002 21.5755 44.345 21.75C44.5924 21.9219 44.8997 22.0078 45.2669 22.0078ZM49.6187 23V17H50.6305V17.9297H50.693C50.8023 17.6198 50.9977 17.3724 51.2789 17.1875C51.5628 17 51.8818 16.9062 52.2359 16.9062C52.3062 16.9062 52.3909 16.9089 52.4898 16.9141C52.5914 16.9167 52.6708 16.9219 52.7281 16.9297V17.957C52.6891 17.9466 52.6109 17.9336 52.4937 17.918C52.3792 17.8997 52.262 17.8906 52.1422 17.8906C51.8583 17.8906 51.6044 17.9505 51.3805 18.0703C51.1591 18.1875 50.9846 18.3503 50.857 18.5586C50.7294 18.7669 50.6656 19.0039 50.6656 19.2695V23H49.6187ZM55.5566 23.1367C55.1764 23.1367 54.8313 23.0651 54.5214 22.9219C54.2141 22.7786 53.9693 22.5716 53.787 22.3008C53.6073 22.0273 53.5175 21.694 53.5175 21.3008C53.5175 20.9596 53.5839 20.681 53.7167 20.4648C53.8521 20.2461 54.0318 20.0742 54.2558 19.9492C54.4797 19.8242 54.7284 19.7305 55.0019 19.668C55.2753 19.6055 55.5527 19.5573 55.8339 19.5234C56.1959 19.4766 56.4889 19.4401 56.7128 19.4141C56.9394 19.388 57.1047 19.3451 57.2089 19.2852C57.3131 19.2253 57.3652 19.1224 57.3652 18.9766V18.9453C57.3652 18.5833 57.2649 18.3021 57.0644 18.1016C56.8639 17.901 56.5631 17.8008 56.162 17.8008C55.7454 17.8008 55.4185 17.8919 55.1816 18.0742C54.9446 18.2565 54.7779 18.4557 54.6816 18.6719L53.6972 18.3906C53.8404 18.026 54.0396 17.737 54.2948 17.5234C54.5527 17.3073 54.8404 17.1536 55.1581 17.0625C55.4784 16.9687 55.8053 16.9219 56.1386 16.9219C56.3547 16.9219 56.593 16.9479 56.8534 17C57.1139 17.0495 57.3613 17.1471 57.5956 17.293C57.8326 17.4362 58.0279 17.6484 58.1816 17.9297C58.3352 18.2083 58.412 18.5755 58.412 19.0312V23H57.3808V22.1836H57.3339C57.2662 22.3242 57.1581 22.4687 57.0097 22.6172C56.8613 22.763 56.6672 22.8867 56.4277 22.9883C56.1881 23.0872 55.8977 23.1367 55.5566 23.1367ZM55.7519 22.2539C56.0982 22.2539 56.3912 22.1862 56.6308 22.0508C56.8704 21.9154 57.0527 21.7396 57.1777 21.5234C57.3053 21.3073 57.3691 21.0768 57.3691 20.832V20.0234C57.3274 20.0677 57.2441 20.1081 57.1191 20.1445C56.9941 20.181 56.8508 20.2122 56.6894 20.2383C56.5305 20.2643 56.3743 20.2878 56.2206 20.3086C56.0696 20.3268 55.9446 20.3424 55.8456 20.3555C55.6139 20.3867 55.399 20.4362 55.2011 20.5039C55.0058 20.5716 54.8482 20.6719 54.7284 20.8047C54.6113 20.9349 54.5527 21.1107 54.5527 21.332C54.5527 21.6367 54.6659 21.8672 54.8925 22.0234C55.1191 22.1771 55.4055 22.2539 55.7519 22.2539ZM60.0842 23V17H61.092V17.957H61.1702C61.2952 17.6315 61.497 17.3776 61.7756 17.1953C62.0569 17.013 62.3941 16.9219 62.7873 16.9219C63.1858 16.9219 63.5191 17.013 63.7873 17.1953C64.0582 17.3776 64.2626 17.6315 64.4006 17.957H64.4631C64.6116 17.6419 64.8407 17.3906 65.1506 17.2031C65.4605 17.0156 65.8316 16.9219 66.2639 16.9219C66.803 16.9219 67.2431 17.0911 67.5842 17.4297C67.928 17.7682 68.0998 18.2852 68.0998 18.9805V23H67.0569V19.0352C67.0569 18.6107 66.941 18.306 66.7092 18.1211C66.4774 17.9336 66.2027 17.8398 65.885 17.8398C65.484 17.8398 65.1728 17.9622 64.9514 18.207C64.7301 18.4492 64.6194 18.7578 64.6194 19.1328V23H63.5686V18.9531C63.5686 18.6198 63.4618 18.3516 63.2483 18.1484C63.0373 17.9427 62.7639 17.8398 62.428 17.8398C62.1962 17.8398 61.9814 17.901 61.7834 18.0234C61.5881 18.1458 61.4306 18.3151 61.3108 18.5312C61.191 18.7448 61.1311 18.9922 61.1311 19.2734V23H60.0842Z" fill="white"/>
<path d="M45 37L51 31H39L45 37Z" fill="#1E1E1E"/>
</g>
<defs>
<filter id="filter0_ddd_327_11255" x="0" y="0" width="89" height="54" filterUnits="userSpaceOnUse" color-interpolation-filters="sRGB">
<feFlood flood-opacity="0" result="BackgroundImageFix"/>
<feColorMatrix in="SourceAlpha" type="matrix" values="0 0 0 0 0 0 0 0 0 0 0 0 0 0 0 0 0 0 127 0" result="hardAlpha"/>
<feOffset dy="1"/>
<feGaussianBlur stdDeviation="1.5"/>
<feColorMatrix type="matrix" values="0 0 0 0 0 0 0 0 0 0 0 0 0 0 0 0 0 0 0.1 0"/>
<feBlend mode="normal" in2="BackgroundImageFix" result="effect1_dropShadow_327_11255"/>
<feColorMatrix in="SourceAlpha" type="matrix" values="0 0 0 0 0 0 0 0 0 0 0 0 0 0 0 0 0 0 127 0" result="hardAlpha"/>
<feOffset dy="5"/>
<feGaussianBlur stdDeviation="6"/>
<feColorMatrix type="matrix" values="0 0 0 0 0 0 0 0 0 0 0 0 0 0 0 0 0 0 0.13 0"/>
<feBlend mode="normal" in2="effect1_dropShadow_327_11255" result="effect2_dropShadow_327_11255"/>
<feColorMatrix in="SourceAlpha" type="matrix" values="0 0 0 0 0 0 0 0 0 0 0 0 0 0 0 0 0 0 127 0" result="hardAlpha"/>
<feOffset/>
<feGaussianBlur stdDeviation="0.25"/>
<feColorMatrix type="matrix" values="0 0 0 0 0 0 0 0 0 0 0 0 0 0 0 0 0 0 0.15 0"/>
<feBlend mode="normal" in2="effect2_dropShadow_327_11255" result="effect3_dropShadow_327_11255"/>
<feBlend mode="normal" in="SourceGraphic" in2="effect3_dropShadow_327_11255" result="shape"/>
</filter>
</defs>
</svg>
