<svg width="342" height="105" viewBox="0 0 342 105" fill="none" xmlns="http://www.w3.org/2000/svg">
<rect x="4.26904" y="27.1875" width="328" height="74" transform="rotate(-4 4.26904 27.1875)" fill="#0D99FF" fill-opacity="0.05"/>
<rect x="4.26904" y="27.1875" width="328" height="74" transform="rotate(-4 4.26904 27.1875)" stroke="#0D99FF" stroke-width="1.5" stroke-dasharray="6.88 6.88"/>
<path d="M25.2098 81.8591L22.573 44.1512L50.0998 42.2263L50.5103 48.098L29.9865 49.5331L31.8021 75.4977L53.0801 74.0098L53.4907 79.8815L25.2098 81.8591ZM30.5364 65.1388L30.1333 59.3749L48.8796 58.064L49.2826 63.8279L30.5364 65.1388ZM67.9321 78.8717L53.5847 50.9685L60.5876 50.4788L72.9739 75.1088L69.5263 75.3499L78.7413 49.2094L85.2055 48.7574L74.8811 78.3857L67.9321 78.8717ZM104.184 76.7156C100.988 76.9391 98.1424 76.5065 95.6484 75.4178C93.1878 74.2907 91.2153 72.6604 89.7308 70.5267C88.2823 68.3906 87.4588 65.9039 87.2604 63.0669C87.0595 60.1939 87.5109 57.6181 88.6147 55.3396C89.7518 53.0226 91.3897 51.1578 93.5284 49.7452C95.703 48.3301 98.2268 47.522 101.1 47.3211C103.901 47.1253 106.44 47.5612 108.716 48.6291C110.992 49.6969 112.836 51.3002 114.249 53.4388C115.661 55.5775 116.473 58.1551 116.684 61.1718C116.704 61.4591 116.709 61.7835 116.698 62.1452C116.723 62.5043 116.729 62.8467 116.716 63.1724L92.7441 64.8487L92.4314 60.3776L112.848 58.95L110.306 60.5351C110.226 58.8807 109.783 57.4501 108.977 56.2434C108.171 55.0367 107.115 54.1181 105.807 53.4878C104.536 52.8549 103.093 52.595 101.476 52.708C99.8245 52.8235 98.3951 53.2843 97.1884 54.0905C96.0176 54.8941 95.1183 55.9674 94.4905 57.3105C93.896 58.6152 93.6591 60.1294 93.7796 61.8532L93.855 62.9305C93.9755 64.6543 94.4773 66.153 95.3603 67.4265C96.2432 68.7 97.4281 69.6456 98.9148 70.2634C100.402 70.8812 102.079 71.1248 103.946 70.9943C105.562 70.8813 106.999 70.5282 108.257 69.935C109.514 69.3418 110.608 68.4714 111.538 67.3237L115.438 71.2192C114.25 72.8179 112.698 74.0993 110.781 75.0634C108.897 75.9891 106.698 76.5398 104.184 76.7156ZM124.146 74.9408L122.135 46.175L128.545 45.7268L129.099 53.6454L128.183 51.3818C128.909 49.3823 130.153 47.8157 131.914 46.6821C133.711 45.546 135.992 44.8812 138.758 44.6878L139.206 51.0982C138.914 51.0465 138.642 51.0294 138.39 51.047C138.136 51.0286 137.884 51.0282 137.632 51.0458C135.083 51.2241 133.106 52.1202 131.703 53.734C130.298 55.3118 129.698 57.5732 129.904 60.518L130.88 74.4699L124.146 74.9408ZM149.894 84.0208C148.494 84.1187 147.077 83.9833 145.644 83.6143C144.21 83.2454 142.998 82.6806 142.006 81.9199L144.353 76.7757C145.078 77.3385 145.884 77.7693 146.771 78.0681C147.658 78.367 148.551 78.485 149.449 78.4223C150.67 78.3369 151.636 77.9626 152.347 77.2993C153.059 76.6361 153.688 75.5636 154.234 74.0819L155.64 70.1943L156.122 69.3486L165.225 43.1618L171.69 42.7098L160.396 74.7336C159.649 76.9511 158.763 78.7273 157.737 80.0621C156.748 81.3943 155.588 82.3596 154.259 82.9578C152.965 83.5535 151.51 83.9078 149.894 84.0208ZM155.134 73.8024L140.069 44.9209L147.072 44.4313L159.366 68.5263L155.134 73.8024ZM188.869 70.7939C185.708 71.0149 183.21 70.3776 181.373 68.8821C179.534 67.3506 178.502 64.9868 178.279 61.7906L176.475 35.9876L183.208 35.5168L185.001 61.1582C185.097 62.5228 185.512 63.5584 186.247 64.2648C187.018 64.9688 188.032 65.2768 189.289 65.1889C190.797 65.0834 192.026 64.6005 192.977 63.7401L195.197 68.4026C194.452 69.1042 193.517 69.6569 192.39 70.0604C191.264 70.464 190.09 70.7085 188.869 70.7939ZM172.555 48.0625L172.179 42.6756L191.356 41.3346L191.733 46.7215L172.555 48.0625ZM200.846 69.5774L198.051 29.607L204.784 29.1362L206.11 48.0979L204.49 45.8294C205.368 43.9275 206.724 42.4252 208.56 41.3225C210.429 40.1814 212.62 39.5229 215.134 39.3471C217.432 39.1864 219.511 39.4921 221.369 40.2644C223.263 41.0341 224.796 42.3163 225.969 44.1109C227.138 45.8696 227.825 48.2034 228.028 51.1123L229.181 67.5961L222.447 68.0669L221.355 52.4451C221.176 49.8953 220.433 48.0346 219.124 46.8631C217.851 45.689 216.137 45.1773 213.982 45.328C212.402 45.4385 211.024 45.8596 209.848 46.5914C208.672 47.3233 207.789 48.3594 207.197 49.7C206.638 51.0021 206.427 52.6228 206.562 54.5621L207.579 69.1066L200.846 69.5774ZM237.723 66.9988L235.711 38.233L242.445 37.7621L244.456 66.5279L237.723 66.9988ZM238.773 33.2553C237.516 33.3431 236.447 33.0209 235.566 32.2886C234.721 31.5538 234.259 30.6298 234.181 29.5165C234.101 28.3673 234.429 27.388 235.167 26.5786C235.937 25.7307 236.951 25.2629 238.208 25.175C239.465 25.0871 240.515 25.3926 241.358 26.0915C242.234 26.752 242.711 27.6389 242.789 28.7522C242.872 29.9373 242.547 30.9704 241.815 31.8517C241.08 32.697 240.066 33.1649 238.773 33.2553ZM253.294 65.9099L251.282 37.1441L257.693 36.6959L258.235 44.4529L256.938 42.1618C257.816 40.26 259.172 38.7577 261.008 37.655C262.877 36.5138 265.068 35.8554 267.582 35.6796C269.88 35.5189 271.959 35.8246 273.817 36.5969C275.711 37.3666 277.245 38.6488 278.417 40.4434C279.586 42.2021 280.273 44.5359 280.476 47.4448L281.629 63.9285L274.895 64.3994L273.803 48.7775C273.624 46.2278 272.881 44.3671 271.572 43.1956C270.299 42.0215 268.585 41.5098 266.43 41.6605C264.85 41.771 263.472 42.1921 262.296 42.9239C261.121 43.6557 260.237 44.6919 259.645 46.0325C259.086 47.3346 258.875 48.9553 259.01 50.8946L260.027 65.439L253.294 65.9099ZM304.017 73.2435C301.359 73.4294 298.73 73.2523 296.13 72.7124C293.569 72.2058 291.433 71.3447 289.724 70.1289L292.387 64.8543C293.717 65.8079 295.355 66.5234 297.301 67.0008C299.285 67.5116 301.265 67.698 303.24 67.5598C306.4 67.3388 308.665 66.4407 310.035 64.8653C311.407 63.3259 311.991 61.1017 311.788 58.1928L311.43 53.0753L311.513 46.5195L310.841 40.0165L310.352 33.0136L316.762 32.5654L318.468 56.9678C318.833 62.1751 317.771 66.0926 315.284 68.7205C312.8 71.3843 309.044 72.892 304.017 73.2435ZM302.307 61.1834C299.578 61.3742 297.06 60.9729 294.753 59.9794C292.479 58.9475 290.623 57.4353 289.185 55.4428C287.782 53.4478 286.983 51.0497 286.787 48.2485C286.594 45.4833 287.053 43.0152 288.164 40.8444C289.311 38.6711 290.94 36.9333 293.05 35.6309C295.196 34.326 297.634 33.5781 300.363 33.3873C302.805 33.2165 305.03 33.5481 307.037 34.3822C309.044 35.2162 310.694 36.6165 311.986 38.5832C313.314 40.5473 314.09 43.1275 314.314 46.3237C314.537 49.5198 314.129 52.2008 313.09 54.3666C312.084 56.494 310.646 58.1282 308.777 59.2694C306.906 60.3746 304.749 61.0126 302.307 61.1834ZM302.931 55.4018C304.619 55.2837 306.104 54.8371 307.385 54.0618C308.663 53.2507 309.619 52.2095 310.252 50.9382C310.918 49.6286 311.195 48.1657 311.082 46.5497C310.969 44.9336 310.492 43.5414 309.653 42.3732C308.847 41.1665 307.757 40.2863 306.383 39.7328C305.006 39.1434 303.474 38.9077 301.786 39.0258C300.098 39.1438 298.596 39.5917 297.279 40.3694C295.995 41.1088 295.02 42.1333 294.354 43.4429C293.721 44.7142 293.461 46.1578 293.574 47.7739C293.687 49.3899 294.147 50.8013 294.953 52.008C295.793 53.1763 296.902 54.0731 298.281 54.6984C299.693 55.2854 301.243 55.5198 302.931 55.4018Z" fill="#0D99FF"/>
<rect x="0.80049" y="24.1724" width="6.5" height="6.5" transform="rotate(-4 0.80049 24.1724)" fill="white"/>
<rect x="0.80049" y="24.1724" width="6.5" height="6.5" transform="rotate(-4 0.80049 24.1724)" stroke="#0D99FF" stroke-width="1.5"/>
<rect x="0.80049" y="24.1724" width="6.5" height="6.5" transform="rotate(-4 0.80049 24.1724)" stroke="#0D99FF" stroke-width="1.5"/>
<rect x="0.80049" y="24.1724" width="6.5" height="6.5" transform="rotate(-4 0.80049 24.1724)" stroke="#0D99FF" stroke-width="1.5"/>
<rect x="328.5" y="1.25445" width="6.5" height="6.5" transform="rotate(-4 328.5 1.25445)" fill="white"/>
<rect x="328.5" y="1.25445" width="6.5" height="6.5" transform="rotate(-4 328.5 1.25445)" stroke="#0D99FF" stroke-width="1.5"/>
<rect x="328.5" y="1.25445" width="6.5" height="6.5" transform="rotate(-4 328.5 1.25445)" stroke="#0D99FF" stroke-width="1.5"/>
<rect x="328.5" y="1.25445" width="6.5" height="6.5" transform="rotate(-4 328.5 1.25445)" stroke="#0D99FF" stroke-width="1.5"/>
<rect x="5.89278" y="96.9947" width="6.5" height="6.5" transform="rotate(-4 5.89278 96.9947)" fill="white"/>
<rect x="5.89278" y="96.9947" width="6.5" height="6.5" transform="rotate(-4 5.89278 96.9947)" stroke="#0D99FF" stroke-width="1.5"/>
<rect x="5.89278" y="96.9947" width="6.5" height="6.5" transform="rotate(-4 5.89278 96.9947)" stroke="#0D99FF" stroke-width="1.5"/>
<rect x="5.89278" y="96.9947" width="6.5" height="6.5" transform="rotate(-4 5.89278 96.9947)" stroke="#0D99FF" stroke-width="1.5"/>
<rect x="333.592" y="74.0767" width="6.5" height="6.5" transform="rotate(-4 333.592 74.0767)" fill="white"/>
<rect x="333.592" y="74.0767" width="6.5" height="6.5" transform="rotate(-4 333.592 74.0767)" stroke="#0D99FF" stroke-width="1.5"/>
<rect x="333.592" y="74.0767" width="6.5" height="6.5" transform="rotate(-4 333.592 74.0767)" stroke="#0D99FF" stroke-width="1.5"/>
<rect x="333.592" y="74.0767" width="6.5" height="6.5" transform="rotate(-4 333.592 74.0767)" stroke="#0D99FF" stroke-width="1.5"/>
</svg>
