<svg width="186" height="94" viewBox="0 0 186 94" fill="none" xmlns="http://www.w3.org/2000/svg">
<rect x="4.26904" y="16.3027" width="172" height="74" transform="rotate(-4 4.26904 16.3027)" fill="#0D99FF" fill-opacity="0.05"/>
<rect x="4.26904" y="16.3027" width="172" height="74" transform="rotate(-4 4.26904 16.3027)" stroke="#0D99FF" stroke-width="1.5" stroke-dasharray="6.88 6.88"/>
<path d="M25.2098 70.9743L22.573 33.2664L29.5759 32.7767L32.2127 70.4846L25.2098 70.9743ZM53.9661 69.3424C51.2009 69.5358 48.6623 69.0998 46.3503 68.0345C44.0718 66.9307 42.2275 65.3275 40.8173 63.2247C39.4072 61.122 38.598 58.5802 38.3895 55.5995C38.1811 52.6188 38.6287 49.9891 39.7325 47.7106C40.8362 45.4321 42.4407 43.6057 44.546 42.2315C46.6872 40.8548 49.1404 40.0697 51.9057 39.8764C54.3118 39.7081 56.5042 40.0961 58.4829 41.0404C60.4591 41.9488 62.0791 43.4414 63.3431 45.5183C64.607 47.5952 65.357 50.3215 65.5931 53.6972C65.8266 57.0371 65.4813 59.84 64.5571 62.106C63.6304 64.3361 62.2531 66.0563 60.4251 67.2668C58.5971 68.4773 56.4441 69.1691 53.9661 69.3424ZM54.3711 63.522C55.9872 63.409 57.3985 62.9494 58.6052 62.1433C59.8479 61.3346 60.7985 60.2216 61.4573 58.8042C62.1519 57.3843 62.4352 55.7585 62.3071 53.927C62.1765 52.0596 61.6697 50.4891 60.7868 49.2156C59.9372 47.9037 58.8409 46.9338 57.4978 46.3059C56.1906 45.6756 54.729 45.4169 53.113 45.5299C51.4969 45.6429 50.0676 46.1037 48.825 46.9124C47.6183 47.7185 46.6676 48.8316 45.9729 50.2515C45.3117 51.633 45.0464 53.2574 45.1769 55.1249C45.305 56.9564 45.7938 58.5281 46.6434 59.8401C47.5289 61.1495 48.6253 62.1194 49.9324 62.7497C51.2755 63.3776 52.755 63.635 54.3711 63.522ZM63.4745 68.2986L62.9998 61.5112L62.7343 53.843L61.6607 46.2314L60.4101 28.347L67.0898 27.8799L69.8848 67.8503L63.4745 68.2986ZM92.2948 66.6622C89.0986 66.8857 86.2535 66.4531 83.7595 65.3644C81.2989 64.2373 79.3263 62.607 77.8419 60.4733C76.3933 58.3372 75.5699 55.8505 75.3715 53.0135C75.1706 50.1405 75.622 47.5647 76.7258 45.2862C77.8629 42.9692 79.5008 41.1044 81.6395 39.6918C83.8141 38.2766 86.3378 37.4686 89.2108 37.2677C92.012 37.0719 94.5506 37.5078 96.8266 38.5757C99.1026 39.6435 100.947 41.2467 102.36 43.3854C103.772 45.5241 104.584 48.1017 104.795 51.1184C104.815 51.4057 104.82 51.7301 104.809 52.0918C104.834 52.4509 104.84 52.7933 104.827 53.119L80.8551 54.7953L80.5425 50.3242L100.959 48.8966L98.417 50.4817C98.3374 48.8272 97.8945 47.3967 97.0884 46.19C96.2823 44.9832 95.2256 44.0647 93.9185 43.4344C92.6472 42.8015 91.2036 42.5416 89.5875 42.6546C87.9355 42.7701 86.5062 43.2309 85.2995 44.0371C84.1287 44.8407 83.2294 45.914 82.6015 47.2571C82.0071 48.5617 81.7702 50.076 81.8907 51.7998L81.966 52.8771C82.0866 54.6009 82.5883 56.0996 83.4713 57.3731C84.3543 58.6466 85.5392 59.5922 87.0259 60.21C88.5126 60.8278 90.1897 61.0714 92.0571 60.9408C93.6732 60.8278 95.11 60.4748 96.3677 59.8816C97.6254 59.2884 98.7194 58.418 99.6496 57.2703L103.549 61.1658C102.361 62.7645 100.809 64.0459 98.8916 65.01C97.0076 65.9357 94.8087 66.4864 92.2948 66.6622ZM129.191 63.7032L128.784 57.8855L128.321 56.6728L127.609 46.4917C127.47 44.5165 126.771 43.0317 125.511 42.0372C124.248 41.0068 122.413 40.5757 120.007 40.744C118.391 40.857 116.811 41.2201 115.266 41.8334C113.756 42.4441 112.495 43.2361 111.48 44.2092L108.498 39.4918C109.959 38.1987 111.729 37.1907 113.808 36.468C115.92 35.7068 118.125 35.2459 120.423 35.0851C124.589 34.7938 127.874 35.5746 130.277 37.4275C132.713 39.242 134.077 42.2321 134.368 46.3979L135.548 63.2588L129.191 63.7032ZM120.168 64.7132C118.013 64.8638 116.102 64.6365 114.436 64.0313C112.767 63.3902 111.439 62.4545 110.45 61.2245C109.496 59.956 108.961 58.4958 108.845 56.8438C108.732 55.2277 109.007 53.7469 109.671 52.4014C110.371 51.0533 111.574 49.9406 113.281 49.0634C114.988 48.1862 117.296 47.6459 120.205 47.4425L128.554 46.8586L128.867 51.3297L121.002 51.8797C118.704 52.0404 117.186 52.5254 116.449 53.3348C115.709 54.1083 115.377 55.0338 115.452 56.1111C115.537 57.3322 116.09 58.2679 117.11 58.9183C118.13 59.5688 119.502 59.8337 121.225 59.7132C122.877 59.5977 124.323 59.1176 125.563 58.2731C126.839 57.426 127.713 56.2462 128.185 54.7336L129.599 58.6946C129.07 60.4277 127.995 61.8201 126.372 62.8719C124.786 63.9211 122.717 64.5349 120.168 64.7132ZM153.104 62.41C150.698 62.5783 148.36 62.435 146.091 61.9802C143.855 61.4869 142.059 60.8366 140.704 60.0292L142.931 54.7309C144.282 55.4665 145.874 56.0408 147.707 56.454C149.541 56.8671 151.355 57.0109 153.151 56.8853C155.269 56.7371 156.776 56.3431 157.669 55.7032C158.599 55.0608 159.029 54.2548 158.962 53.2852C158.906 52.4951 158.542 51.9252 157.868 51.5753C157.191 51.1896 156.325 50.9254 155.268 50.7827C154.212 50.6401 153.031 50.5242 151.725 50.435C150.456 50.3434 149.164 50.1991 147.852 50.0022C146.572 49.7669 145.391 49.3983 144.31 48.8965C143.226 48.3589 142.325 47.6098 141.608 46.6495C140.892 45.6892 140.476 44.383 140.36 42.731C140.232 40.8995 140.642 39.283 141.591 37.8814C142.537 36.4439 143.918 35.3007 145.736 34.4519C147.586 33.5646 149.804 33.0306 152.39 32.8498C154.329 32.7142 156.302 32.7928 158.307 33.0856C160.312 33.3785 161.989 33.8747 163.337 34.5744L161.109 39.8727C159.687 39.1421 158.265 38.6822 156.845 38.4928C155.457 38.265 154.081 38.1989 152.717 38.2943C150.67 38.4374 149.165 38.8494 148.202 39.5302C147.275 40.2085 146.844 41.0146 146.909 41.9483C146.97 42.8102 147.338 43.434 148.015 43.8197C148.691 44.2055 149.559 44.4876 150.618 44.6662C151.677 44.8448 152.841 44.9799 154.111 45.0715C155.414 45.1248 156.705 45.2691 157.984 45.5044C159.264 45.7397 160.445 46.1082 161.526 46.61C162.641 47.0734 163.557 47.7852 164.274 48.7456C164.991 49.7059 165.405 50.9941 165.519 52.6101C165.644 54.4058 165.215 56.0056 164.23 57.4097C163.282 58.8113 161.864 59.957 159.978 60.8467C158.089 61.7006 155.797 62.2217 153.104 62.41Z" fill="#0D99FF"/>
<rect x="0.80049" y="13.2877" width="6.5" height="6.5" transform="rotate(-4 0.80049 13.2877)" fill="white"/>
<rect x="0.80049" y="13.2877" width="6.5" height="6.5" transform="rotate(-4 0.80049 13.2877)" stroke="#0D99FF" stroke-width="1.5"/>
<rect x="0.80049" y="13.2877" width="6.5" height="6.5" transform="rotate(-4 0.80049 13.2877)" stroke="#0D99FF" stroke-width="1.5"/>
<rect x="0.80049" y="13.2877" width="6.5" height="6.5" transform="rotate(-4 0.80049 13.2877)" stroke="#0D99FF" stroke-width="1.5"/>
<rect x="172.88" y="1.25445" width="6.5" height="6.5" transform="rotate(-4 172.88 1.25445)" fill="white"/>
<rect x="172.88" y="1.25445" width="6.5" height="6.5" transform="rotate(-4 172.88 1.25445)" stroke="#0D99FF" stroke-width="1.5"/>
<rect x="172.88" y="1.25445" width="6.5" height="6.5" transform="rotate(-4 172.88 1.25445)" stroke="#0D99FF" stroke-width="1.5"/>
<rect x="172.88" y="1.25445" width="6.5" height="6.5" transform="rotate(-4 172.88 1.25445)" stroke="#0D99FF" stroke-width="1.5"/>
<rect x="5.89278" y="86.1099" width="6.5" height="6.5" transform="rotate(-4 5.89278 86.1099)" fill="white"/>
<rect x="5.89278" y="86.1099" width="6.5" height="6.5" transform="rotate(-4 5.89278 86.1099)" stroke="#0D99FF" stroke-width="1.5"/>
<rect x="5.89278" y="86.1099" width="6.5" height="6.5" transform="rotate(-4 5.89278 86.1099)" stroke="#0D99FF" stroke-width="1.5"/>
<rect x="5.89278" y="86.1099" width="6.5" height="6.5" transform="rotate(-4 5.89278 86.1099)" stroke="#0D99FF" stroke-width="1.5"/>
<rect x="177.973" y="74.0767" width="6.5" height="6.5" transform="rotate(-4 177.973 74.0767)" fill="white"/>
<rect x="177.973" y="74.0767" width="6.5" height="6.5" transform="rotate(-4 177.973 74.0767)" stroke="#0D99FF" stroke-width="1.5"/>
<rect x="177.973" y="74.0767" width="6.5" height="6.5" transform="rotate(-4 177.973 74.0767)" stroke="#0D99FF" stroke-width="1.5"/>
<rect x="177.973" y="74.0767" width="6.5" height="6.5" transform="rotate(-4 177.973 74.0767)" stroke="#0D99FF" stroke-width="1.5"/>
</svg>
