<svg width="602" height="61" viewBox="0 0 602 61" fill="none" xmlns="http://www.w3.org/2000/svg">
<rect x="4" y="4" width="594" height="53" fill="white"/>
<rect x="4" y="4" width="594" height="53" stroke="#0D99FF" stroke-width="1.5"/>
<rect x="12.6856" y="12.6856" width="148.629" height="35.6288" rx="17.8144" fill="#0D99FF"/>
<rect x="12.6856" y="12.6856" width="148.629" height="35.6288" rx="17.8144" stroke="#0D99FF" stroke-width="1.37121"/>
<path d="M33.5013 25.8182H35.7584L38.7812 33.196H38.9005L41.9232 25.8182H44.1803V36H42.4104V29.005H42.316L39.502 35.9702H38.1796L35.3657 28.9901H35.2712V36H33.5013V25.8182ZM55.2868 30.9091C55.2868 32.0062 55.0814 32.9458 54.6704 33.728C54.2627 34.5069 53.7059 35.1035 52.9999 35.5178C52.2973 35.9321 51.5001 36.1392 50.6086 36.1392C49.717 36.1392 48.9182 35.9321 48.2123 35.5178C47.5096 35.1001 46.9528 34.5019 46.5418 33.723C46.1341 32.9408 45.9303 32.0028 45.9303 30.9091C45.9303 29.812 46.1341 28.8741 46.5418 28.0952C46.9528 27.313 47.5096 26.7147 48.2123 26.3004C48.9182 25.8861 49.717 25.679 50.6086 25.679C51.5001 25.679 52.2973 25.8861 52.9999 26.3004C53.7059 26.7147 54.2627 27.313 54.6704 28.0952C55.0814 28.8741 55.2868 29.812 55.2868 30.9091ZM53.4324 30.9091C53.4324 30.1368 53.3115 29.4856 53.0695 28.9553C52.8309 28.4216 52.4994 28.0189 52.0752 27.7472C51.651 27.4721 51.1621 27.3345 50.6086 27.3345C50.0551 27.3345 49.5662 27.4721 49.142 27.7472C48.7177 28.0189 48.3846 28.4216 48.1427 28.9553C47.904 29.4856 47.7847 30.1368 47.7847 30.9091C47.7847 31.6813 47.904 32.3343 48.1427 32.8679C48.3846 33.3982 48.7177 33.8009 49.142 34.076C49.5662 34.3478 50.0551 34.4837 50.6086 34.4837C51.1621 34.4837 51.651 34.3478 52.0752 34.076C52.4994 33.8009 52.8309 33.3982 53.0695 32.8679C53.3115 32.3343 53.4324 31.6813 53.4324 30.9091ZM57.0306 36V25.8182H60.9284C61.6642 25.8182 62.2757 25.9342 62.7629 26.1662C63.2534 26.3949 63.6196 26.7081 63.8616 27.1058C64.1069 27.5036 64.2295 27.9543 64.2295 28.4581C64.2295 28.8724 64.1499 29.227 63.9909 29.522C63.8318 29.8137 63.618 30.0507 63.3495 30.233C63.0811 30.4152 62.7811 30.5462 62.4497 30.6257V30.7251C62.8109 30.745 63.1573 30.8561 63.4887 31.0582C63.8235 31.2571 64.0969 31.5388 64.309 31.9034C64.5212 32.268 64.6272 32.7088 64.6272 33.2259C64.6272 33.7528 64.4996 34.2268 64.2444 34.6477C63.9892 35.0653 63.6047 35.3951 63.091 35.6371C62.5773 35.879 61.931 36 61.1521 36H57.0306ZM58.8751 34.4588H60.8588C61.5283 34.4588 62.0105 34.3312 62.3055 34.076C62.6038 33.8175 62.7529 33.486 62.7529 33.0817C62.7529 32.7801 62.6784 32.5083 62.5292 32.2663C62.3801 32.0211 62.1679 31.8288 61.8928 31.6896C61.6177 31.5471 61.2896 31.4759 60.9085 31.4759H58.8751V34.4588ZM58.8751 30.1484H60.6997C61.0178 30.1484 61.3045 30.0904 61.5597 29.9744C61.815 29.8551 62.0155 29.6877 62.1613 29.4723C62.3105 29.2536 62.385 28.995 62.385 28.6967C62.385 28.3023 62.2458 27.9775 61.9674 27.7223C61.6923 27.4671 61.283 27.3395 60.7394 27.3395H58.8751V30.1484ZM68.0763 25.8182V36H66.2318V25.8182H68.0763ZM70.0736 36V25.8182H71.9181V34.4538H76.4024V36H70.0736ZM78.0033 36V25.8182H84.6254V27.3643H79.8477V30.1286H84.2824V31.6747H79.8477V34.4538H84.6652V36H78.0033ZM93.4301 36H89.9798V25.8182H93.4997C94.5106 25.8182 95.379 26.022 96.1048 26.4297C96.834 26.834 97.3941 27.4157 97.7852 28.1747C98.1763 28.9337 98.3719 29.8419 98.3719 30.8991C98.3719 31.9598 98.1747 32.8712 97.7803 33.6335C97.3892 34.3958 96.8241 34.9808 96.085 35.3885C95.3492 35.7962 94.4642 36 93.4301 36ZM91.8243 34.4041H93.3406C94.0499 34.4041 94.6415 34.2749 95.1155 34.0163C95.5895 33.7545 95.9458 33.3651 96.1844 32.848C96.423 32.3277 96.5423 31.678 96.5423 30.8991C96.5423 30.1203 96.423 29.474 96.1844 28.9602C95.9458 28.4432 95.5928 28.0571 95.1254 27.8018C94.6614 27.5433 94.0847 27.4141 93.3953 27.4141H91.8243V34.4041ZM100.124 36V25.8182H106.747V27.3643H101.969V30.1286H106.403V31.6747H101.969V34.4538H106.786V36H100.124ZM114.162 28.6172C114.115 28.183 113.92 27.8449 113.575 27.603C113.234 27.361 112.79 27.2401 112.243 27.2401C111.858 27.2401 111.528 27.2981 111.253 27.4141C110.978 27.5301 110.768 27.6875 110.622 27.8864C110.476 28.0852 110.401 28.3123 110.398 28.5675C110.398 28.7796 110.446 28.9635 110.542 29.1193C110.642 29.2751 110.776 29.4077 110.945 29.517C111.114 29.6231 111.301 29.7126 111.507 29.7855C111.712 29.8584 111.919 29.9197 112.128 29.9695L113.083 30.2081C113.467 30.2976 113.837 30.4186 114.191 30.571C114.549 30.7235 114.869 30.9157 115.151 31.1477C115.436 31.3797 115.661 31.6598 115.827 31.9879C115.993 32.3161 116.076 32.7005 116.076 33.1413C116.076 33.7379 115.923 34.2633 115.618 34.7173C115.313 35.1681 114.873 35.5211 114.296 35.7763C113.723 36.0282 113.028 36.1541 112.213 36.1541C111.421 36.1541 110.733 36.0315 110.15 35.7862C109.57 35.541 109.116 35.183 108.787 34.7124C108.463 34.2417 108.287 33.6683 108.26 32.9922H110.075C110.102 33.3468 110.211 33.6418 110.403 33.8771C110.595 34.1125 110.846 34.2881 111.154 34.4041C111.465 34.5201 111.813 34.5781 112.198 34.5781C112.599 34.5781 112.95 34.5185 113.252 34.3991C113.557 34.2765 113.795 34.1075 113.968 33.892C114.14 33.6733 114.228 33.4181 114.231 33.1264C114.228 32.8613 114.15 32.6425 113.998 32.4702C113.845 32.2945 113.631 32.1487 113.356 32.0327C113.084 31.9134 112.766 31.8073 112.402 31.7145L111.243 31.4162C110.405 31.2008 109.742 30.8743 109.255 30.4368C108.771 29.996 108.529 29.411 108.529 28.6818C108.529 28.0819 108.691 27.5566 109.016 27.1058C109.344 26.6551 109.79 26.3054 110.353 26.0568C110.917 25.8049 111.555 25.679 112.267 25.679C112.99 25.679 113.623 25.8049 114.167 26.0568C114.714 26.3054 115.143 26.6518 115.454 27.0959C115.766 27.5367 115.927 28.0438 115.937 28.6172H114.162ZM119.565 25.8182V36H117.72V25.8182H119.565ZM128.383 29.0696C128.3 28.8011 128.186 28.5608 128.04 28.3487C127.897 28.1333 127.725 27.9493 127.523 27.7969C127.324 27.6444 127.095 27.5301 126.837 27.4538C126.578 27.3743 126.296 27.3345 125.992 27.3345C125.445 27.3345 124.957 27.4721 124.53 27.7472C124.102 28.0223 123.766 28.4266 123.521 28.9602C123.279 29.4905 123.158 30.1368 123.158 30.8991C123.158 31.6681 123.279 32.3194 123.521 32.853C123.763 33.3866 124.099 33.7926 124.53 34.071C124.961 34.3461 125.461 34.4837 126.031 34.4837C126.548 34.4837 126.996 34.3842 127.374 34.1854C127.755 33.9865 128.048 33.7048 128.254 33.3402C128.459 32.9723 128.562 32.5414 128.562 32.0476L128.979 32.1122H126.215V30.6705H130.347V31.8935C130.347 32.7652 130.161 33.5192 129.79 34.1555C129.419 34.7919 128.908 35.2824 128.259 35.6271C127.609 35.9685 126.863 36.1392 126.021 36.1392C125.083 36.1392 124.26 35.9287 123.551 35.5078C122.845 35.0836 122.293 34.482 121.895 33.7031C121.501 32.9209 121.303 31.9929 121.303 30.919C121.303 30.0971 121.419 29.3629 121.651 28.7166C121.887 28.0703 122.215 27.5218 122.636 27.071C123.057 26.617 123.551 26.2723 124.117 26.0369C124.684 25.7983 125.301 25.679 125.967 25.679C126.53 25.679 127.055 25.7618 127.543 25.9276C128.03 26.09 128.462 26.322 128.84 26.6236C129.221 26.9252 129.535 27.2831 129.78 27.6974C130.025 28.1117 130.186 28.5691 130.262 29.0696H128.383ZM140.497 25.8182V36H138.857L134.059 29.0646H133.975V36H132.13V25.8182H133.781L138.573 32.7585H138.663V25.8182H140.497Z" fill="white"/>
<rect x="166" y="12" width="141" height="37" rx="18.5" fill="#F5F5F5"/>
<path d="M189.417 36L186.543 25.8182H188.527L190.361 33.3004H190.456L192.414 25.8182H194.219L196.183 33.3054H196.272L198.107 25.8182H200.091L197.217 36H195.397L193.359 28.8558H193.279L191.236 36H189.417ZM203.214 25.8182V36H201.369V25.8182H203.214ZM205.211 36V25.8182H209.029C209.812 25.8182 210.468 25.9541 210.998 26.2259C211.532 26.4976 211.935 26.8788 212.206 27.3693C212.481 27.8565 212.619 28.425 212.619 29.0746C212.619 29.7275 212.48 30.2943 212.201 30.7749C211.926 31.2521 211.52 31.6217 210.983 31.8835C210.446 32.142 209.787 32.2713 209.005 32.2713H206.285V30.7401H208.756C209.213 30.7401 209.588 30.6771 209.88 30.5511C210.171 30.4219 210.387 30.2346 210.526 29.9893C210.668 29.7408 210.74 29.4358 210.74 29.0746C210.74 28.7133 210.668 28.4051 210.526 28.1499C210.383 27.8913 210.166 27.6958 209.875 27.5632C209.583 27.4273 209.207 27.3594 208.746 27.3594H207.056V36H205.211ZM210.471 31.3864L212.992 36H210.934L208.458 31.3864H210.471ZM214.317 36V25.8182H220.939V27.3643H216.161V30.1286H220.596V31.6747H216.161V34.4538H220.979V36H214.317ZM222.821 36V25.8182H229.343V27.3643H224.665V30.1286H228.896V31.6747H224.665V36H222.821ZM231.024 36V25.8182H234.842C235.624 25.8182 236.28 25.9541 236.811 26.2259C237.344 26.4976 237.747 26.8788 238.019 27.3693C238.294 27.8565 238.431 28.425 238.431 29.0746C238.431 29.7275 238.292 30.2943 238.014 30.7749C237.739 31.2521 237.333 31.6217 236.796 31.8835C236.259 32.142 235.599 32.2713 234.817 32.2713H232.098V30.7401H234.569C235.026 30.7401 235.4 30.6771 235.692 30.5511C235.984 30.4219 236.199 30.2346 236.338 29.9893C236.481 29.7408 236.552 29.4358 236.552 29.0746C236.552 28.7133 236.481 28.4051 236.338 28.1499C236.196 27.8913 235.979 27.6958 235.687 27.5632C235.395 27.4273 235.019 27.3594 234.559 27.3594H232.868V36H231.024ZM236.284 31.3864L238.804 36H236.746L234.27 31.3864H236.284ZM241.437 36H239.468L243.053 25.8182H245.33L248.919 36H246.95L244.231 27.9062H244.151L241.437 36ZM241.501 32.0078H246.871V33.4893H241.501V32.0078ZM250.26 25.8182H252.517L255.54 33.196H255.659L258.682 25.8182H260.939V36H259.169V29.005H259.075L256.261 35.9702H254.938L252.124 28.9901H252.03V36H250.26V25.8182ZM264.792 25.8182V36H262.948V25.8182H264.792ZM275.157 25.8182V36H273.516L268.718 29.0646H268.634V36H266.789V25.8182H268.44L273.233 32.7585H273.322V25.8182H275.157ZM283.987 29.0696C283.905 28.8011 283.79 28.5608 283.644 28.3487C283.502 28.1333 283.329 27.9493 283.127 27.7969C282.928 27.6444 282.7 27.5301 282.441 27.4538C282.183 27.3743 281.901 27.3345 281.596 27.3345C281.049 27.3345 280.562 27.4721 280.134 27.7472C279.707 28.0223 279.37 28.4266 279.125 28.9602C278.883 29.4905 278.762 30.1368 278.762 30.8991C278.762 31.6681 278.883 32.3194 279.125 32.853C279.367 33.3866 279.704 33.7926 280.134 34.071C280.565 34.3461 281.066 34.4837 281.636 34.4837C282.153 34.4837 282.6 34.3842 282.978 34.1854C283.359 33.9865 283.653 33.7048 283.858 33.3402C284.064 32.9723 284.166 32.5414 284.166 32.0476L284.584 32.1122H281.82V30.6705H285.951V31.8935C285.951 32.7652 285.766 33.5192 285.394 34.1555C285.023 34.7919 284.513 35.2824 283.863 35.6271C283.213 35.9685 282.468 36.1392 281.626 36.1392C280.688 36.1392 279.864 35.9287 279.155 35.5078C278.449 35.0836 277.897 34.482 277.499 33.7031C277.105 32.9209 276.908 31.9929 276.908 30.919C276.908 30.0971 277.024 29.3629 277.256 28.7166C277.491 28.0703 277.819 27.5218 278.24 27.071C278.661 26.617 279.155 26.2723 279.722 26.0369C280.289 25.7983 280.905 25.679 281.571 25.679C282.135 25.679 282.66 25.7618 283.147 25.9276C283.634 26.09 284.067 26.322 284.445 26.6236C284.826 26.9252 285.139 27.2831 285.384 27.6974C285.63 28.1117 285.79 28.5691 285.867 29.0696H283.987Z" fill="#1A1A1A"/>
<rect x="311.686" y="12.6856" width="119.629" height="35.6288" rx="17.8144" fill="#0D99FF"/>
<rect x="311.686" y="12.6856" width="119.629" height="35.6288" rx="17.8144" stroke="#0D99FF" stroke-width="1.37121"/>
<path d="M333.692 36H331.723L335.307 25.8182H337.584L341.174 36H339.205L336.486 27.9062H336.406L333.692 36ZM333.756 32.0078H339.126V33.4893H333.756V32.0078ZM350.882 25.8182V36H349.242L344.444 29.0646H344.359V36H342.515V25.8182H344.166L348.958 32.7585H349.048V25.8182H350.882ZM354.736 25.8182V36H352.892V25.8182H354.736ZM356.734 25.8182H358.991L362.014 33.196H362.133L365.156 25.8182H367.413V36H365.643V29.005H365.548L362.734 35.9702H361.412L358.598 28.9901H358.504V36H356.734V25.8182ZM370.729 36H368.76L372.345 25.8182H374.622L378.211 36H376.242L373.523 27.9062H373.443L370.729 36ZM370.793 32.0078H376.163V33.4893H370.793V32.0078ZM377.874 27.3643V25.8182H385.998V27.3643H382.851V36H381.021V27.3643H377.874ZM389.408 25.8182V36H387.564V25.8182H389.408ZM400.504 30.9091C400.504 32.0062 400.298 32.9458 399.887 33.728C399.479 34.5069 398.923 35.1035 398.217 35.5178C397.514 35.9321 396.717 36.1392 395.825 36.1392C394.934 36.1392 394.135 35.9321 393.429 35.5178C392.726 35.1001 392.17 34.5019 391.759 33.723C391.351 32.9408 391.147 32.0028 391.147 30.9091C391.147 29.812 391.351 28.8741 391.759 28.0952C392.17 27.313 392.726 26.7147 393.429 26.3004C394.135 25.8861 394.934 25.679 395.825 25.679C396.717 25.679 397.514 25.8861 398.217 26.3004C398.923 26.7147 399.479 27.313 399.887 28.0952C400.298 28.8741 400.504 29.812 400.504 30.9091ZM398.649 30.9091C398.649 30.1368 398.528 29.4856 398.286 28.9553C398.048 28.4216 397.716 28.0189 397.292 27.7472C396.868 27.4721 396.379 27.3345 395.825 27.3345C395.272 27.3345 394.783 27.4721 394.359 27.7472C393.935 28.0189 393.601 28.4216 393.359 28.9553C393.121 29.4856 393.002 30.1368 393.002 30.9091C393.002 31.6813 393.121 32.3343 393.359 32.8679C393.601 33.3982 393.935 33.8009 394.359 34.076C394.783 34.3478 395.272 34.4837 395.825 34.4837C396.379 34.4837 396.868 34.3478 397.292 34.076C397.716 33.8009 398.048 33.3982 398.286 32.8679C398.528 32.3343 398.649 31.6813 398.649 30.9091ZM410.615 25.8182V36H408.974L404.176 29.0646H404.092V36H402.247V25.8182H403.898L408.691 32.7585H408.78V25.8182H410.615Z" fill="white"/>
<rect x="436" y="12" width="154" height="37" rx="18.5" fill="#F5F5F5"/>
<path d="M457.314 25.8182H459.571L462.594 33.196H462.713L465.736 25.8182H467.993V36H466.223V29.005H466.128L463.315 35.9702H461.992L459.178 28.9901H459.084V36H457.314V25.8182ZM479.099 30.9091C479.099 32.0062 478.894 32.9458 478.483 33.728C478.075 34.5069 477.518 35.1035 476.812 35.5178C476.11 35.9321 475.313 36.1392 474.421 36.1392C473.53 36.1392 472.731 35.9321 472.025 35.5178C471.322 35.1001 470.765 34.5019 470.354 33.723C469.947 32.9408 469.743 32.0028 469.743 30.9091C469.743 29.812 469.947 28.8741 470.354 28.0952C470.765 27.313 471.322 26.7147 472.025 26.3004C472.731 25.8861 473.53 25.679 474.421 25.679C475.313 25.679 476.11 25.8861 476.812 26.3004C477.518 26.7147 478.075 27.313 478.483 28.0952C478.894 28.8741 479.099 29.812 479.099 30.9091ZM477.245 30.9091C477.245 30.1368 477.124 29.4856 476.882 28.9553C476.643 28.4216 476.312 28.0189 475.888 27.7472C475.463 27.4721 474.975 27.3345 474.421 27.3345C473.868 27.3345 473.379 27.4721 472.954 27.7472C472.53 28.0189 472.197 28.4216 471.955 28.9553C471.717 29.4856 471.597 30.1368 471.597 30.9091C471.597 31.6813 471.717 32.3343 471.955 32.8679C472.197 33.3982 472.53 33.8009 472.954 34.076C473.379 34.3478 473.868 34.4837 474.421 34.4837C474.975 34.4837 475.463 34.3478 475.888 34.076C476.312 33.8009 476.643 33.3982 476.882 32.8679C477.124 32.3343 477.245 31.6813 477.245 30.9091ZM479.945 27.3643V25.8182H488.068V27.3643H484.921V36H483.092V27.3643H479.945ZM491.479 25.8182V36H489.634V25.8182H491.479ZM502.574 30.9091C502.574 32.0062 502.368 32.9458 501.957 33.728C501.55 34.5069 500.993 35.1035 500.287 35.5178C499.584 35.9321 498.787 36.1392 497.896 36.1392C497.004 36.1392 496.205 35.9321 495.499 35.5178C494.797 35.1001 494.24 34.5019 493.829 33.723C493.421 32.9408 493.217 32.0028 493.217 30.9091C493.217 29.812 493.421 28.8741 493.829 28.0952C494.24 27.313 494.797 26.7147 495.499 26.3004C496.205 25.8861 497.004 25.679 497.896 25.679C498.787 25.679 499.584 25.8861 500.287 26.3004C500.993 26.7147 501.55 27.313 501.957 28.0952C502.368 28.8741 502.574 29.812 502.574 30.9091ZM500.72 30.9091C500.72 30.1368 500.599 29.4856 500.357 28.9553C500.118 28.4216 499.787 28.0189 499.362 27.7472C498.938 27.4721 498.449 27.3345 497.896 27.3345C497.342 27.3345 496.853 27.4721 496.429 27.7472C496.005 28.0189 495.672 28.4216 495.43 28.9553C495.191 29.4856 495.072 30.1368 495.072 30.9091C495.072 31.6813 495.191 32.3343 495.43 32.8679C495.672 33.3982 496.005 33.8009 496.429 34.076C496.853 34.3478 497.342 34.4837 497.896 34.4837C498.449 34.4837 498.938 34.3478 499.362 34.076C499.787 33.8009 500.118 33.3982 500.357 32.8679C500.599 32.3343 500.72 31.6813 500.72 30.9091ZM512.685 25.8182V36H511.044L506.247 29.0646H506.162V36H504.318V25.8182H505.968L510.761 32.7585H510.85V25.8182H512.685ZM521.618 36H518.167V25.8182H521.687C522.698 25.8182 523.566 26.022 524.292 26.4297C525.022 26.834 525.582 27.4157 525.973 28.1747C526.364 28.9337 526.559 29.8419 526.559 30.8991C526.559 31.9598 526.362 32.8712 525.968 33.6335C525.577 34.3958 525.012 34.9808 524.272 35.3885C523.537 35.7962 522.652 36 521.618 36ZM520.012 34.4041H521.528C522.237 34.4041 522.829 34.2749 523.303 34.0163C523.777 33.7545 524.133 33.3651 524.372 32.848C524.611 32.3277 524.73 31.678 524.73 30.8991C524.73 30.1203 524.611 29.474 524.372 28.9602C524.133 28.4432 523.78 28.0571 523.313 27.8018C522.849 27.5433 522.272 27.4141 521.583 27.4141H520.012V34.4041ZM528.312 36V25.8182H534.934V27.3643H530.156V30.1286H534.591V31.6747H530.156V34.4538H534.974V36H528.312ZM542.349 28.6172C542.303 28.183 542.107 27.8449 541.763 27.603C541.421 27.361 540.977 27.2401 540.43 27.2401C540.046 27.2401 539.716 27.2981 539.441 27.4141C539.166 27.5301 538.955 27.6875 538.809 27.8864C538.664 28.0852 538.589 28.3123 538.586 28.5675C538.586 28.7796 538.634 28.9635 538.73 29.1193C538.829 29.2751 538.964 29.4077 539.133 29.517C539.302 29.6231 539.489 29.7126 539.694 29.7855C539.9 29.8584 540.107 29.9197 540.316 29.9695L541.27 30.2081C541.655 30.2976 542.024 30.4186 542.379 30.571C542.737 30.7235 543.057 30.9157 543.339 31.1477C543.624 31.3797 543.849 31.6598 544.015 31.9879C544.18 32.3161 544.263 32.7005 544.263 33.1413C544.263 33.7379 544.111 34.2633 543.806 34.7173C543.501 35.1681 543.06 35.5211 542.483 35.7763C541.91 36.0282 541.216 36.1541 540.4 36.1541C539.608 36.1541 538.92 36.0315 538.337 35.7862C537.757 35.541 537.303 35.183 536.975 34.7124C536.65 34.2417 536.474 33.6683 536.448 32.9922H538.263C538.289 33.3468 538.398 33.6418 538.591 33.8771C538.783 34.1125 539.033 34.2881 539.341 34.4041C539.653 34.5201 540.001 34.5781 540.385 34.5781C540.786 34.5781 541.138 34.5185 541.439 34.3991C541.744 34.2765 541.983 34.1075 542.155 33.892C542.328 33.6733 542.415 33.4181 542.419 33.1264C542.415 32.8613 542.338 32.6425 542.185 32.4702C542.033 32.2945 541.819 32.1487 541.544 32.0327C541.272 31.9134 540.954 31.8073 540.589 31.7145L539.431 31.4162C538.592 31.2008 537.929 30.8743 537.442 30.4368C536.958 29.996 536.716 29.411 536.716 28.6818C536.716 28.0819 536.879 27.5566 537.204 27.1058C537.532 26.6551 537.977 26.3054 538.541 26.0568C539.104 25.8049 539.742 25.679 540.455 25.679C541.178 25.679 541.811 25.8049 542.354 26.0568C542.901 26.3054 543.33 26.6518 543.642 27.0959C543.953 27.5367 544.114 28.0438 544.124 28.6172H542.349ZM547.752 25.8182V36H545.908V25.8182H547.752ZM556.57 29.0696C556.488 28.8011 556.373 28.5608 556.227 28.3487C556.085 28.1333 555.912 27.9493 555.71 27.7969C555.511 27.6444 555.283 27.5301 555.024 27.4538C554.766 27.3743 554.484 27.3345 554.179 27.3345C553.632 27.3345 553.145 27.4721 552.717 27.7472C552.29 28.0223 551.953 28.4266 551.708 28.9602C551.466 29.4905 551.345 30.1368 551.345 30.8991C551.345 31.6681 551.466 32.3194 551.708 32.853C551.95 33.3866 552.287 33.7926 552.717 34.071C553.148 34.3461 553.649 34.4837 554.219 34.4837C554.736 34.4837 555.183 34.3842 555.561 34.1854C555.942 33.9865 556.236 33.7048 556.441 33.3402C556.647 32.9723 556.749 32.5414 556.749 32.0476L557.167 32.1122H554.403V30.6705H558.534V31.8935C558.534 32.7652 558.349 33.5192 557.977 34.1555C557.606 34.7919 557.096 35.2824 556.446 35.6271C555.796 35.9685 555.051 36.1392 554.209 36.1392C553.271 36.1392 552.447 35.9287 551.738 35.5078C551.032 35.0836 550.48 34.482 550.082 33.7031C549.688 32.9209 549.491 31.9929 549.491 30.919C549.491 30.0971 549.607 29.3629 549.839 28.7166C550.074 28.0703 550.402 27.5218 550.823 27.071C551.244 26.617 551.738 26.2723 552.305 26.0369C552.872 25.7983 553.488 25.679 554.154 25.679C554.718 25.679 555.243 25.7618 555.73 25.9276C556.217 26.09 556.65 26.322 557.028 26.6236C557.409 26.9252 557.722 27.2831 557.967 27.6974C558.213 28.1117 558.373 28.5691 558.45 29.0696H556.57ZM568.685 25.8182V36H567.044L562.247 29.0646H562.162V36H560.318V25.8182H561.968L566.761 32.7585H566.85V25.8182H568.685Z" fill="#1A1A1A"/>
<rect x="0.75" y="0.75" width="6.5" height="6.5" fill="white" stroke="#0D99FF" stroke-width="1.5"/>
<rect x="594.75" y="0.75" width="6.5" height="6.5" fill="white" stroke="#0D99FF" stroke-width="1.5"/>
<rect x="0.75" y="53.75" width="6.5" height="6.5" fill="white" stroke="#0D99FF" stroke-width="1.5"/>
<rect x="594.75" y="53.75" width="6.5" height="6.5" fill="white" stroke="#0D99FF" stroke-width="1.5"/>
</svg>
