<svg width="646" height="61" viewBox="0 0 646 61" fill="none" xmlns="http://www.w3.org/2000/svg">
<rect x="4" y="4" width="638" height="53" fill="white"/>
<rect x="4" y="4" width="638" height="53" stroke="#0D99FF" stroke-width="1.5"/>
<rect x="12" y="12" width="141" height="37" rx="18.5" fill="#F5F5F5"/>
<path d="M33.2123 36V25.8182H37.0305C37.8126 25.8182 38.4689 25.964 38.9992 26.2557C39.5328 26.5473 39.9355 26.9484 40.2073 27.4588C40.4824 27.9659 40.6199 28.5426 40.6199 29.1889C40.6199 29.8419 40.4824 30.4219 40.2073 30.929C39.9322 31.4361 39.5262 31.8355 38.9893 32.1271C38.4523 32.4155 37.7911 32.5597 37.0056 32.5597H34.4751V31.0433H36.757C37.2144 31.0433 37.5889 30.9638 37.8806 30.8047C38.1723 30.6456 38.3877 30.4268 38.5269 30.1484C38.6694 29.87 38.7407 29.5502 38.7407 29.1889C38.7407 28.8277 38.6694 28.5095 38.5269 28.2344C38.3877 27.9593 38.1706 27.7455 37.8756 27.593C37.584 27.4373 37.2078 27.3594 36.7471 27.3594H35.0567V36H33.2123ZM42.222 36V25.8182H46.0402C46.8224 25.8182 47.4787 25.9541 48.009 26.2259C48.5426 26.4976 48.9453 26.8788 49.2171 27.3693C49.4922 27.8565 49.6297 28.425 49.6297 29.0746C49.6297 29.7275 49.4905 30.2943 49.2121 30.7749C48.937 31.2521 48.531 31.6217 47.9941 31.8835C47.4571 32.142 46.7976 32.2713 46.0154 32.2713H43.2959V30.7401H45.7668C46.2242 30.7401 46.5987 30.6771 46.8904 30.5511C47.182 30.4219 47.3975 30.2346 47.5367 29.9893C47.6792 29.7408 47.7504 29.4358 47.7504 29.0746C47.7504 28.7133 47.6792 28.4051 47.5367 28.1499C47.3941 27.8913 47.1771 27.6958 46.8854 27.5632C46.5937 27.4273 46.2175 27.3594 45.7568 27.3594H44.0665V36H42.222ZM47.482 31.3864L50.0026 36H47.9443L45.4685 31.3864H47.482ZM60.4255 30.9091C60.4255 32.0062 60.22 32.9458 59.809 33.728C59.4014 34.5069 58.8445 35.1035 58.1386 35.5178C57.4359 35.9321 56.6388 36.1392 55.7472 36.1392C54.8557 36.1392 54.0569 35.9321 53.3509 35.5178C52.6483 35.1001 52.0915 34.5019 51.6805 33.723C51.2728 32.9408 51.069 32.0028 51.069 30.9091C51.069 29.812 51.2728 28.8741 51.6805 28.0952C52.0915 27.313 52.6483 26.7147 53.3509 26.3004C54.0569 25.8861 54.8557 25.679 55.7472 25.679C56.6388 25.679 57.4359 25.8861 58.1386 26.3004C58.8445 26.7147 59.4014 27.313 59.809 28.0952C60.22 28.8741 60.4255 29.812 60.4255 30.9091ZM58.5711 30.9091C58.5711 30.1368 58.4501 29.4856 58.2082 28.9553C57.9695 28.4216 57.6381 28.0189 57.2139 27.7472C56.7896 27.4721 56.3008 27.3345 55.7472 27.3345C55.1937 27.3345 54.7049 27.4721 54.2806 27.7472C53.8564 28.0189 53.5233 28.4216 53.2813 28.9553C53.0427 29.4856 52.9234 30.1368 52.9234 30.9091C52.9234 31.6813 53.0427 32.3343 53.2813 32.8679C53.5233 33.3982 53.8564 33.8009 54.2806 34.076C54.7049 34.3478 55.1937 34.4837 55.7472 34.4837C56.3008 34.4837 56.7896 34.3478 57.2139 34.076C57.6381 33.8009 57.9695 33.3982 58.2082 32.8679C58.4501 32.3343 58.5711 31.6813 58.5711 30.9091ZM61.2707 27.3643V25.8182H69.3943V27.3643H66.2472V36H64.4177V27.3643H61.2707ZM79.6072 30.9091C79.6072 32.0062 79.4017 32.9458 78.9907 33.728C78.583 34.5069 78.0262 35.1035 77.3202 35.5178C76.6176 35.9321 75.8205 36.1392 74.9289 36.1392C74.0373 36.1392 73.2385 35.9321 72.5326 35.5178C71.8299 35.1001 71.2731 34.5019 70.8621 33.723C70.4545 32.9408 70.2506 32.0028 70.2506 30.9091C70.2506 29.812 70.4545 28.8741 70.8621 28.0952C71.2731 27.313 71.8299 26.7147 72.5326 26.3004C73.2385 25.8861 74.0373 25.679 74.9289 25.679C75.8205 25.679 76.6176 25.8861 77.3202 26.3004C78.0262 26.7147 78.583 27.313 78.9907 28.0952C79.4017 28.8741 79.6072 29.812 79.6072 30.9091ZM77.7528 30.9091C77.7528 30.1368 77.6318 29.4856 77.3898 28.9553C77.1512 28.4216 76.8198 28.0189 76.3955 27.7472C75.9713 27.4721 75.4824 27.3345 74.9289 27.3345C74.3754 27.3345 73.8865 27.4721 73.4623 27.7472C73.038 28.0189 72.7049 28.4216 72.463 28.9553C72.2243 29.4856 72.105 30.1368 72.105 30.9091C72.105 31.6813 72.2243 32.3343 72.463 32.8679C72.7049 33.3982 73.038 33.8009 73.4623 34.076C73.8865 34.3478 74.3754 34.4837 74.9289 34.4837C75.4824 34.4837 75.9713 34.3478 76.3955 34.076C76.8198 33.8009 77.1512 33.3982 77.3898 32.8679C77.6318 32.3343 77.7528 31.6813 77.7528 30.9091ZM80.4523 27.3643V25.8182H88.5759V27.3643H85.4289V36H83.5993V27.3643H80.4523ZM89.4459 25.8182H91.529L94.0198 30.3224H94.1192L96.61 25.8182H98.6931L94.9893 32.2017V36H93.1498V32.2017L89.4459 25.8182ZM99.9994 36V25.8182H103.818C104.6 25.8182 105.256 25.964 105.786 26.2557C106.32 26.5473 106.723 26.9484 106.994 27.4588C107.27 27.9659 107.407 28.5426 107.407 29.1889C107.407 29.8419 107.27 30.4219 106.994 30.929C106.719 31.4361 106.313 31.8355 105.776 32.1271C105.239 32.4155 104.578 32.5597 103.793 32.5597H101.262V31.0433H103.544C104.002 31.0433 104.376 30.9638 104.668 30.8047C104.959 30.6456 105.175 30.4268 105.314 30.1484C105.457 29.87 105.528 29.5502 105.528 29.1889C105.528 28.8277 105.457 28.5095 105.314 28.2344C105.175 27.9593 104.958 27.7455 104.663 27.593C104.371 27.4373 103.995 27.3594 103.534 27.3594H101.844V36H99.9994ZM110.854 25.8182V36H109.009V25.8182H110.854ZM121.218 25.8182V36H119.578L114.78 29.0646H114.695V36H112.851V25.8182H114.502L119.294 32.7585H119.384V25.8182H121.218ZM130.049 29.0696C129.966 28.8011 129.852 28.5608 129.706 28.3487C129.563 28.1333 129.391 27.9493 129.189 27.7969C128.99 27.6444 128.761 27.5301 128.503 27.4538C128.244 27.3743 127.963 27.3345 127.658 27.3345C127.111 27.3345 126.623 27.4721 126.196 27.7472C125.768 28.0223 125.432 28.4266 125.187 28.9602C124.945 29.4905 124.824 30.1368 124.824 30.8991C124.824 31.6681 124.945 32.3194 125.187 32.853C125.429 33.3866 125.765 33.7926 126.196 34.071C126.627 34.3461 127.127 34.4837 127.697 34.4837C128.214 34.4837 128.662 34.3842 129.04 34.1854C129.421 33.9865 129.714 33.7048 129.92 33.3402C130.125 32.9723 130.228 32.5414 130.228 32.0476L130.646 32.1122H127.881V30.6705H132.013V31.8935C132.013 32.7652 131.827 33.5192 131.456 34.1555C131.085 34.7919 130.574 35.2824 129.925 35.6271C129.275 35.9685 128.529 36.1392 127.687 36.1392C126.749 36.1392 125.926 35.9287 125.217 35.5078C124.511 35.0836 123.959 34.482 123.561 33.7031C123.167 32.9209 122.969 31.9929 122.969 30.919C122.969 30.0971 123.085 29.3629 123.317 28.7166C123.553 28.0703 123.881 27.5218 124.302 27.071C124.723 26.617 125.217 26.2723 125.783 26.0369C126.35 25.7983 126.967 25.679 127.633 25.679C128.196 25.679 128.722 25.7618 129.209 25.9276C129.696 26.09 130.128 26.322 130.506 26.6236C130.887 26.9252 131.201 27.2831 131.446 27.6974C131.691 28.1117 131.852 28.5691 131.928 29.0696H130.049Z" fill="#1A1A1A"/>
<rect x="157.686" y="12.6856" width="58.6288" height="35.6288" rx="17.8144" fill="#0D99FF"/>
<rect x="157.686" y="12.6856" width="58.6288" height="35.6288" rx="17.8144" stroke="#0D99FF" stroke-width="1.37121"/>
<path d="M181.927 36.1392C181.211 36.1392 180.575 36.0166 180.018 35.7713C179.465 35.526 179.027 35.1847 178.706 34.7472C178.384 34.3097 178.213 33.8042 178.193 33.2308H180.063C180.079 33.5059 180.17 33.7462 180.336 33.9517C180.502 34.1539 180.722 34.3113 180.997 34.424C181.273 34.5367 181.581 34.593 181.922 34.593C182.287 34.593 182.61 34.5301 182.892 34.4041C183.173 34.2749 183.394 34.0959 183.553 33.8672C183.712 33.6385 183.79 33.375 183.786 33.0767C183.79 32.7685 183.71 32.4967 183.548 32.2614C183.385 32.026 183.15 31.8421 182.842 31.7095C182.537 31.5769 182.169 31.5107 181.738 31.5107H180.838V30.0888H181.738C182.093 30.0888 182.403 30.0275 182.668 29.9048C182.936 29.7822 183.147 29.6098 183.299 29.3878C183.452 29.1624 183.526 28.9022 183.523 28.6072C183.526 28.3189 183.462 28.0687 183.329 27.8565C183.2 27.6411 183.016 27.4737 182.777 27.3544C182.542 27.2351 182.265 27.1754 181.947 27.1754C181.635 27.1754 181.347 27.2318 181.082 27.3445C180.817 27.4571 180.603 27.6179 180.441 27.8267C180.278 28.0322 180.192 28.2775 180.182 28.5625H178.407C178.42 27.9924 178.585 27.492 178.899 27.0611C179.218 26.6269 179.642 26.2888 180.172 26.0469C180.702 25.8016 181.297 25.679 181.957 25.679C182.636 25.679 183.226 25.8066 183.727 26.0618C184.231 26.3137 184.62 26.6534 184.895 27.081C185.17 27.5085 185.308 27.9808 185.308 28.4979C185.311 29.0713 185.142 29.5518 184.801 29.9396C184.463 30.3274 184.018 30.581 183.468 30.7003V30.7798C184.184 30.8793 184.733 31.1444 185.114 31.5753C185.498 32.0028 185.689 32.5348 185.686 33.1712C185.686 33.7412 185.523 34.2517 185.198 34.7024C184.877 35.1499 184.433 35.5012 183.866 35.7564C183.303 36.0116 182.656 36.1392 181.927 36.1392ZM190.942 36H187.492V25.8182H191.011C192.022 25.8182 192.891 26.022 193.617 26.4297C194.346 26.834 194.906 27.4157 195.297 28.1747C195.688 28.9337 195.884 29.8419 195.884 30.8991C195.884 31.9598 195.686 32.8712 195.292 33.6335C194.901 34.3958 194.336 34.9808 193.597 35.3885C192.861 35.7962 191.976 36 190.942 36ZM189.336 34.4041H190.852C191.562 34.4041 192.153 34.2749 192.627 34.0163C193.101 33.7545 193.457 33.3651 193.696 32.848C193.935 32.3277 194.054 31.678 194.054 30.8991C194.054 30.1203 193.935 29.474 193.696 28.9602C193.457 28.4432 193.104 28.0571 192.637 27.8018C192.173 27.5433 191.596 27.4141 190.907 27.4141H189.336V34.4041Z" fill="white"/>
<rect x="221" y="12" width="156" height="37" rx="18.5" fill="#F5F5F5"/>
<path d="M248.57 25.8182H250.415V32.4702C250.415 33.1993 250.242 33.8407 249.897 34.3942C249.556 34.9477 249.075 35.3802 248.456 35.6918C247.836 36 247.112 36.1541 246.283 36.1541C245.451 36.1541 244.725 36 244.106 35.6918C243.486 35.3802 243.005 34.9477 242.664 34.3942C242.322 33.8407 242.152 33.1993 242.152 32.4702V25.8182H243.996V32.3161C243.996 32.7403 244.089 33.1181 244.275 33.4496C244.464 33.781 244.729 34.0412 245.07 34.2301C245.411 34.4157 245.816 34.5085 246.283 34.5085C246.75 34.5085 247.155 34.4157 247.496 34.2301C247.841 34.0412 248.106 33.781 248.292 33.4496C248.477 33.1181 248.57 32.7403 248.57 32.3161V25.8182ZM257.953 28.6172C257.906 28.183 257.711 27.8449 257.366 27.603C257.025 27.361 256.581 27.2401 256.034 27.2401C255.649 27.2401 255.319 27.2981 255.044 27.4141C254.769 27.5301 254.559 27.6875 254.413 27.8864C254.267 28.0852 254.193 28.3123 254.189 28.5675C254.189 28.7796 254.237 28.9635 254.333 29.1193C254.433 29.2751 254.567 29.4077 254.736 29.517C254.905 29.6231 255.092 29.7126 255.298 29.7855C255.503 29.8584 255.71 29.9197 255.919 29.9695L256.874 30.2081C257.258 30.2976 257.628 30.4186 257.983 30.571C258.34 30.7235 258.66 30.9157 258.942 31.1477C259.227 31.3797 259.452 31.6598 259.618 31.9879C259.784 32.3161 259.867 32.7005 259.867 33.1413C259.867 33.7379 259.714 34.2633 259.409 34.7173C259.104 35.1681 258.664 35.5211 258.087 35.7763C257.514 36.0282 256.819 36.1541 256.004 36.1541C255.212 36.1541 254.524 36.0315 253.941 35.7862C253.361 35.541 252.907 35.183 252.578 34.7124C252.254 34.2417 252.078 33.6683 252.051 32.9922H253.866C253.893 33.3468 254.002 33.6418 254.194 33.8771C254.386 34.1125 254.637 34.2881 254.945 34.4041C255.256 34.5201 255.604 34.5781 255.989 34.5781C256.39 34.5781 256.741 34.5185 257.043 34.3991C257.348 34.2765 257.586 34.1075 257.759 33.892C257.931 33.6733 258.019 33.4181 258.022 33.1264C258.019 32.8613 257.941 32.6425 257.789 32.4702C257.636 32.2945 257.422 32.1487 257.147 32.0327C256.876 31.9134 256.557 31.8073 256.193 31.7145L255.034 31.4162C254.196 31.2008 253.533 30.8743 253.046 30.4368C252.562 29.996 252.32 29.411 252.32 28.6818C252.32 28.0819 252.482 27.5566 252.807 27.1058C253.135 26.6551 253.581 26.3054 254.144 26.0568C254.708 25.8049 255.346 25.679 256.059 25.679C256.781 25.679 257.414 25.8049 257.958 26.0568C258.505 26.3054 258.934 26.6518 259.245 27.0959C259.557 27.5367 259.718 28.0438 259.728 28.6172H257.953ZM261.511 36V25.8182H268.133V27.3643H263.356V30.1286H267.79V31.6747H263.356V34.4538H268.173V36H261.511ZM270.015 36V25.8182H273.833C274.615 25.8182 275.272 25.9541 275.802 26.2259C276.336 26.4976 276.738 26.8788 277.01 27.3693C277.285 27.8565 277.423 28.425 277.423 29.0746C277.423 29.7275 277.283 30.2943 277.005 30.7749C276.73 31.2521 276.324 31.6217 275.787 31.8835C275.25 32.142 274.591 32.2713 273.808 32.2713H271.089V30.7401H273.56C274.017 30.7401 274.392 30.6771 274.683 30.5511C274.975 30.4219 275.19 30.2346 275.33 29.9893C275.472 29.7408 275.543 29.4358 275.543 29.0746C275.543 28.7133 275.472 28.4051 275.33 28.1499C275.187 27.8913 274.97 27.6958 274.678 27.5632C274.387 27.4273 274.011 27.3594 273.55 27.3594H271.859V36H270.015ZM275.275 31.3864L277.796 36H275.737L273.261 31.3864H275.275ZM282.593 36V25.8182H286.411C287.194 25.8182 287.85 25.9541 288.38 26.2259C288.914 26.4976 289.316 26.8788 289.588 27.3693C289.863 27.8565 290.001 28.425 290.001 29.0746C290.001 29.7275 289.862 30.2943 289.583 30.7749C289.308 31.2521 288.902 31.6217 288.365 31.8835C287.828 32.142 287.169 32.2713 286.386 32.2713H283.667V30.7401H286.138C286.595 30.7401 286.97 30.6771 287.261 30.5511C287.553 30.4219 287.769 30.2346 287.908 29.9893C288.05 29.7408 288.122 29.4358 288.122 29.0746C288.122 28.7133 288.05 28.4051 287.908 28.1499C287.765 27.8913 287.548 27.6958 287.256 27.5632C286.965 27.4273 286.589 27.3594 286.128 27.3594H284.438V36H282.593ZM287.853 31.3864L290.374 36H288.315L285.84 31.3864H287.853ZM291.699 36V25.8182H298.321V27.3643H293.543V30.1286H297.978V31.6747H293.543V34.4538H298.361V36H291.699ZM305.736 28.6172C305.689 28.183 305.494 27.8449 305.149 27.603C304.808 27.361 304.364 27.2401 303.817 27.2401C303.432 27.2401 303.103 27.2981 302.828 27.4141C302.552 27.5301 302.342 27.6875 302.196 27.8864C302.05 28.0852 301.976 28.3123 301.972 28.5675C301.972 28.7796 302.02 28.9635 302.117 29.1193C302.216 29.2751 302.35 29.4077 302.519 29.517C302.688 29.6231 302.876 29.7126 303.081 29.7855C303.287 29.8584 303.494 29.9197 303.703 29.9695L304.657 30.2081C305.042 30.2976 305.411 30.4186 305.766 30.571C306.124 30.7235 306.444 30.9157 306.725 31.1477C307.01 31.3797 307.236 31.6598 307.401 31.9879C307.567 32.3161 307.65 32.7005 307.65 33.1413C307.65 33.7379 307.497 34.2633 307.193 34.7173C306.888 35.1681 306.447 35.5211 305.87 35.7763C305.297 36.0282 304.602 36.1541 303.787 36.1541C302.995 36.1541 302.307 36.0315 301.724 35.7862C301.144 35.541 300.69 35.183 300.362 34.7124C300.037 34.2417 299.861 33.6683 299.835 32.9922H301.649C301.676 33.3468 301.785 33.6418 301.977 33.8771C302.17 34.1125 302.42 34.2881 302.728 34.4041C303.04 34.5201 303.388 34.5781 303.772 34.5781C304.173 34.5781 304.524 34.5185 304.826 34.3991C305.131 34.2765 305.37 34.1075 305.542 33.892C305.714 33.6733 305.802 33.4181 305.805 33.1264C305.802 32.8613 305.724 32.6425 305.572 32.4702C305.419 32.2945 305.206 32.1487 304.93 32.0327C304.659 31.9134 304.341 31.8073 303.976 31.7145L302.818 31.4162C301.979 31.2008 301.316 30.8743 300.829 30.4368C300.345 29.996 300.103 29.411 300.103 28.6818C300.103 28.0819 300.265 27.5566 300.59 27.1058C300.918 26.6551 301.364 26.3054 301.928 26.0568C302.491 25.8049 303.129 25.679 303.842 25.679C304.564 25.679 305.197 25.8049 305.741 26.0568C306.288 26.3054 306.717 26.6518 307.028 27.0959C307.34 27.5367 307.501 28.0438 307.511 28.6172H305.736ZM309.294 36V25.8182H315.916V27.3643H311.139V30.1286H315.573V31.6747H311.139V34.4538H315.956V36H309.294ZM319.106 36H317.137L320.722 25.8182H322.998L326.588 36H324.619L321.9 27.9062H321.82L319.106 36ZM319.17 32.0078H324.54V33.4893H319.17V32.0078ZM327.929 36V25.8182H331.747C332.529 25.8182 333.186 25.9541 333.716 26.2259C334.25 26.4976 334.652 26.8788 334.924 27.3693C335.199 27.8565 335.337 28.425 335.337 29.0746C335.337 29.7275 335.198 30.2943 334.919 30.7749C334.644 31.2521 334.238 31.6217 333.701 31.8835C333.164 32.142 332.505 32.2713 331.722 32.2713H329.003V30.7401H331.474C331.931 30.7401 332.306 30.6771 332.597 30.5511C332.889 30.4219 333.104 30.2346 333.244 29.9893C333.386 29.7408 333.457 29.4358 333.457 29.0746C333.457 28.7133 333.386 28.4051 333.244 28.1499C333.101 27.8913 332.884 27.6958 332.592 27.5632C332.301 27.4273 331.925 27.3594 331.464 27.3594H329.774V36H327.929ZM333.189 31.3864L335.71 36H333.651L331.176 31.3864H333.189ZM345.75 29.2536H343.89C343.837 28.9486 343.74 28.6785 343.597 28.4432C343.455 28.2045 343.277 28.0024 343.065 27.8366C342.853 27.6709 342.611 27.5466 342.339 27.4638C342.071 27.3776 341.781 27.3345 341.469 27.3345C340.916 27.3345 340.425 27.4737 339.998 27.7521C339.57 28.0272 339.235 28.4316 338.993 28.9652C338.751 29.4955 338.63 30.1435 338.63 30.9091C338.63 31.688 338.751 32.3442 338.993 32.8778C339.239 33.4081 339.573 33.8092 339.998 34.081C340.425 34.3494 340.914 34.4837 341.464 34.4837C341.769 34.4837 342.054 34.4439 342.319 34.3643C342.588 34.2815 342.828 34.1605 343.04 34.0014C343.256 33.8423 343.436 33.6468 343.582 33.4148C343.731 33.1828 343.834 32.9176 343.89 32.6193L345.75 32.6293C345.68 33.1132 345.529 33.5672 345.297 33.9915C345.069 34.4157 344.769 34.7902 344.397 35.1151C344.026 35.4366 343.592 35.6884 343.095 35.8707C342.598 36.0497 342.046 36.1392 341.439 36.1392C340.544 36.1392 339.746 35.9321 339.043 35.5178C338.34 35.1035 337.787 34.5052 337.383 33.723C336.978 32.9408 336.776 32.0028 336.776 30.9091C336.776 29.812 336.98 28.8741 337.388 28.0952C337.795 27.313 338.35 26.7147 339.053 26.3004C339.756 25.8861 340.551 25.679 341.439 25.679C342.006 25.679 342.533 25.7585 343.02 25.9176C343.508 26.0767 343.942 26.3104 344.323 26.6186C344.704 26.9235 345.017 27.2981 345.263 27.7422C345.511 28.183 345.674 28.6868 345.75 29.2536ZM347.439 36V25.8182H349.283V30.1286H354.001V25.8182H355.851V36H354.001V31.6747H349.283V36H347.439Z" fill="#1A1A1A"/>
<rect x="381" y="12" width="121" height="37" rx="18.5" fill="#F5F5F5"/>
<path d="M408.495 25.8182H410.339V32.4702C410.339 33.1993 410.167 33.8407 409.822 34.3942C409.481 34.9477 409 35.3802 408.381 35.6918C407.761 36 407.037 36.1541 406.208 36.1541C405.376 36.1541 404.65 36 404.03 35.6918C403.411 35.3802 402.93 34.9477 402.589 34.3942C402.247 33.8407 402.077 33.1993 402.077 32.4702V25.8182H403.921V32.3161C403.921 32.7403 404.014 33.1181 404.199 33.4496C404.388 33.781 404.653 34.0412 404.995 34.2301C405.336 34.4157 405.741 34.5085 406.208 34.5085C406.675 34.5085 407.08 34.4157 407.421 34.2301C407.766 34.0412 408.031 33.781 408.216 33.4496C408.402 33.1181 408.495 32.7403 408.495 32.3161V25.8182ZM417.877 28.6172C417.831 28.183 417.636 27.8449 417.291 27.603C416.949 27.361 416.505 27.2401 415.958 27.2401C415.574 27.2401 415.244 27.2981 414.969 27.4141C414.694 27.5301 414.484 27.6875 414.338 27.8864C414.192 28.0852 414.117 28.3123 414.114 28.5675C414.114 28.7796 414.162 28.9635 414.258 29.1193C414.358 29.2751 414.492 29.4077 414.661 29.517C414.83 29.6231 415.017 29.7126 415.223 29.7855C415.428 29.8584 415.635 29.9197 415.844 29.9695L416.799 30.2081C417.183 30.2976 417.553 30.4186 417.907 30.571C418.265 30.7235 418.585 30.9157 418.867 31.1477C419.152 31.3797 419.377 31.6598 419.543 31.9879C419.709 32.3161 419.792 32.7005 419.792 33.1413C419.792 33.7379 419.639 34.2633 419.334 34.7173C419.029 35.1681 418.588 35.5211 418.012 35.7763C417.438 36.0282 416.744 36.1541 415.929 36.1541C415.136 36.1541 414.449 36.0315 413.865 35.7862C413.285 35.541 412.831 35.183 412.503 34.7124C412.178 34.2417 412.003 33.6683 411.976 32.9922H413.791C413.817 33.3468 413.927 33.6418 414.119 33.8771C414.311 34.1125 414.561 34.2881 414.87 34.4041C415.181 34.5201 415.529 34.5781 415.914 34.5781C416.315 34.5781 416.666 34.5185 416.968 34.3991C417.273 34.2765 417.511 34.1075 417.684 33.892C417.856 33.6733 417.944 33.4181 417.947 33.1264C417.944 32.8613 417.866 32.6425 417.713 32.4702C417.561 32.2945 417.347 32.1487 417.072 32.0327C416.8 31.9134 416.482 31.8073 416.118 31.7145L414.959 31.4162C414.121 31.2008 413.458 30.8743 412.971 30.4368C412.487 29.996 412.245 29.411 412.245 28.6818C412.245 28.0819 412.407 27.5566 412.732 27.1058C413.06 26.6551 413.506 26.3054 414.069 26.0568C414.633 25.8049 415.271 25.679 415.983 25.679C416.706 25.679 417.339 25.8049 417.882 26.0568C418.429 26.3054 418.859 26.6518 419.17 27.0959C419.482 27.5367 419.642 28.0438 419.652 28.6172H417.877ZM421.436 36V25.8182H428.058V27.3643H423.28V30.1286H427.715V31.6747H423.28V34.4538H428.098V36H421.436ZM429.94 36V25.8182H433.758C434.54 25.8182 435.196 25.9541 435.727 26.2259C436.26 26.4976 436.663 26.8788 436.935 27.3693C437.21 27.8565 437.347 28.425 437.347 29.0746C437.347 29.7275 437.208 30.2943 436.93 30.7749C436.655 31.2521 436.249 31.6217 435.712 31.8835C435.175 32.142 434.515 32.2713 433.733 32.2713H431.014V30.7401H433.485C433.942 30.7401 434.316 30.6771 434.608 30.5511C434.9 30.4219 435.115 30.2346 435.254 29.9893C435.397 29.7408 435.468 29.4358 435.468 29.0746C435.468 28.7133 435.397 28.4051 435.254 28.1499C435.112 27.8913 434.895 27.6958 434.603 27.5632C434.311 27.4273 433.935 27.3594 433.475 27.3594H431.784V36H429.94ZM435.2 31.3864L437.72 36H435.662L433.186 31.3864H435.2ZM442.518 36V25.8182H449.041V27.3643H444.362V30.1286H448.593V31.6747H444.362V36H442.518ZM450.721 36V25.8182H452.566V34.4538H457.05V36H450.721ZM467.352 30.9091C467.352 32.0062 467.147 32.9458 466.736 33.728C466.328 34.5069 465.771 35.1035 465.065 35.5178C464.363 35.9321 463.566 36.1392 462.674 36.1392C461.782 36.1392 460.984 35.9321 460.278 35.5178C459.575 35.1001 459.018 34.5019 458.607 33.723C458.2 32.9408 457.996 32.0028 457.996 30.9091C457.996 29.812 458.2 28.8741 458.607 28.0952C459.018 27.313 459.575 26.7147 460.278 26.3004C460.984 25.8861 461.782 25.679 462.674 25.679C463.566 25.679 464.363 25.8861 465.065 26.3004C465.771 26.7147 466.328 27.313 466.736 28.0952C467.147 28.8741 467.352 29.812 467.352 30.9091ZM465.498 30.9091C465.498 30.1368 465.377 29.4856 465.135 28.9553C464.896 28.4216 464.565 28.0189 464.141 27.7472C463.716 27.4721 463.228 27.3345 462.674 27.3345C462.121 27.3345 461.632 27.4721 461.207 27.7472C460.783 28.0189 460.45 28.4216 460.208 28.9553C459.969 29.4856 459.85 30.1368 459.85 30.9091C459.85 31.6813 459.969 32.3343 460.208 32.8679C460.45 33.3982 460.783 33.8009 461.207 34.076C461.632 34.3478 462.121 34.4837 462.674 34.4837C463.228 34.4837 463.716 34.3478 464.141 34.076C464.565 33.8009 464.896 33.3982 465.135 32.8679C465.377 32.3343 465.498 31.6813 465.498 30.9091ZM470.979 36L468.105 25.8182H470.089L471.924 33.3004H472.018L473.977 25.8182H475.782L477.745 33.3054H477.835L479.669 25.8182H481.653L478.779 36H476.96L474.922 28.8558H474.842L472.799 36H470.979Z" fill="#1A1A1A"/>
<rect x="506.686" y="12.6856" width="126.629" height="35.6288" rx="17.8144" fill="#0D99FF"/>
<rect x="506.686" y="12.6856" width="126.629" height="35.6288" rx="17.8144" stroke="#0D99FF" stroke-width="1.37121"/>
<path d="M529.247 36L526.373 25.8182H528.357L530.191 33.3004H530.286L532.244 25.8182H534.049L536.013 33.3054H536.102L537.937 25.8182H539.921L537.047 36H535.227L533.189 28.8558H533.11L531.066 36H529.247ZM541.2 36V25.8182H547.822V27.3643H543.044V30.1286H547.479V31.6747H543.044V34.4538H547.862V36H541.2ZM549.703 36V25.8182H553.601C554.337 25.8182 554.949 25.9342 555.436 26.1662C555.926 26.3949 556.292 26.7081 556.534 27.1058C556.78 27.5036 556.902 27.9543 556.902 28.4581C556.902 28.8724 556.823 29.227 556.664 29.522C556.505 29.8137 556.291 30.0507 556.022 30.233C555.754 30.4152 555.454 30.5462 555.123 30.6257V30.7251C555.484 30.745 555.83 30.8561 556.162 31.0582C556.496 31.2571 556.77 31.5388 556.982 31.9034C557.194 32.268 557.3 32.7088 557.3 33.2259C557.3 33.7528 557.172 34.2268 556.917 34.6477C556.662 35.0653 556.278 35.3951 555.764 35.6371C555.25 35.879 554.604 36 553.825 36H549.703ZM551.548 34.4588H553.532C554.201 34.4588 554.683 34.3312 554.978 34.076C555.277 33.8175 555.426 33.486 555.426 33.0817C555.426 32.7801 555.351 32.5083 555.202 32.2663C555.053 32.0211 554.841 31.8288 554.566 31.6896C554.291 31.5471 553.962 31.4759 553.581 31.4759H551.548V34.4588ZM551.548 30.1484H553.373C553.691 30.1484 553.977 30.0904 554.233 29.9744C554.488 29.8551 554.688 29.6877 554.834 29.4723C554.983 29.2536 555.058 28.995 555.058 28.6967C555.058 28.3023 554.919 27.9775 554.64 27.7223C554.365 27.4671 553.956 27.3395 553.412 27.3395H551.548V30.1484ZM565.828 36H562.377V25.8182H565.897C566.908 25.8182 567.776 26.022 568.502 26.4297C569.231 26.834 569.792 27.4157 570.183 28.1747C570.574 28.9337 570.769 29.8419 570.769 30.8991C570.769 31.9598 570.572 32.8712 570.178 33.6335C569.787 34.3958 569.222 34.9808 568.482 35.3885C567.747 35.7962 566.862 36 565.828 36ZM564.222 34.4041H565.738C566.447 34.4041 567.039 34.2749 567.513 34.0163C567.987 33.7545 568.343 33.3651 568.582 32.848C568.82 32.3277 568.94 31.678 568.94 30.8991C568.94 30.1203 568.82 29.474 568.582 28.9602C568.343 28.4432 567.99 28.0571 567.523 27.8018C567.059 27.5433 566.482 27.4141 565.793 27.4141H564.222V34.4041ZM572.522 36V25.8182H579.144V27.3643H574.366V30.1286H578.801V31.6747H574.366V34.4538H579.184V36H572.522ZM586.559 28.6172C586.513 28.183 586.317 27.8449 585.972 27.603C585.631 27.361 585.187 27.2401 584.64 27.2401C584.256 27.2401 583.926 27.2981 583.651 27.4141C583.376 27.5301 583.165 27.6875 583.019 27.8864C582.874 28.0852 582.799 28.3123 582.796 28.5675C582.796 28.7796 582.844 28.9635 582.94 29.1193C583.039 29.2751 583.173 29.4077 583.343 29.517C583.512 29.6231 583.699 29.7126 583.904 29.7855C584.11 29.8584 584.317 29.9197 584.526 29.9695L585.48 30.2081C585.865 30.2976 586.234 30.4186 586.589 30.571C586.947 30.7235 587.267 30.9157 587.548 31.1477C587.834 31.3797 588.059 31.6598 588.225 31.9879C588.39 32.3161 588.473 32.7005 588.473 33.1413C588.473 33.7379 588.321 34.2633 588.016 34.7173C587.711 35.1681 587.27 35.5211 586.693 35.7763C586.12 36.0282 585.426 36.1541 584.61 36.1541C583.818 36.1541 583.13 36.0315 582.547 35.7862C581.967 35.541 581.513 35.183 581.185 34.7124C580.86 34.2417 580.684 33.6683 580.658 32.9922H582.472C582.499 33.3468 582.608 33.6418 582.801 33.8771C582.993 34.1125 583.243 34.2881 583.551 34.4041C583.863 34.5201 584.211 34.5781 584.595 34.5781C584.996 34.5781 585.348 34.5185 585.649 34.3991C585.954 34.2765 586.193 34.1075 586.365 33.892C586.538 33.6733 586.625 33.4181 586.629 33.1264C586.625 32.8613 586.548 32.6425 586.395 32.4702C586.243 32.2945 586.029 32.1487 585.754 32.0327C585.482 31.9134 585.164 31.8073 584.799 31.7145L583.641 31.4162C582.802 31.2008 582.139 30.8743 581.652 30.4368C581.168 29.996 580.926 29.411 580.926 28.6818C580.926 28.0819 581.089 27.5566 581.414 27.1058C581.742 26.6551 582.187 26.3054 582.751 26.0568C583.314 25.8049 583.952 25.679 584.665 25.679C585.387 25.679 586.021 25.8049 586.564 26.0568C587.111 26.3054 587.54 26.6518 587.852 27.0959C588.163 27.5367 588.324 28.0438 588.334 28.6172H586.559ZM591.962 25.8182V36H590.118V25.8182H591.962ZM600.78 29.0696C600.698 28.8011 600.583 28.5608 600.437 28.3487C600.295 28.1333 600.122 27.9493 599.92 27.7969C599.721 27.6444 599.493 27.5301 599.234 27.4538C598.976 27.3743 598.694 27.3345 598.389 27.3345C597.842 27.3345 597.355 27.4721 596.927 27.7472C596.5 28.0223 596.163 28.4266 595.918 28.9602C595.676 29.4905 595.555 30.1368 595.555 30.8991C595.555 31.6681 595.676 32.3194 595.918 32.853C596.16 33.3866 596.497 33.7926 596.927 34.071C597.358 34.3461 597.859 34.4837 598.429 34.4837C598.946 34.4837 599.393 34.3842 599.771 34.1854C600.152 33.9865 600.446 33.7048 600.651 33.3402C600.857 32.9723 600.959 32.5414 600.959 32.0476L601.377 32.1122H598.613V30.6705H602.744V31.8935C602.744 32.7652 602.559 33.5192 602.187 34.1555C601.816 34.7919 601.306 35.2824 600.656 35.6271C600.006 35.9685 599.261 36.1392 598.419 36.1392C597.481 36.1392 596.657 35.9287 595.948 35.5078C595.242 35.0836 594.69 34.482 594.292 33.7031C593.898 32.9209 593.701 31.9929 593.701 30.919C593.701 30.0971 593.817 29.3629 594.049 28.7166C594.284 28.0703 594.612 27.5218 595.033 27.071C595.454 26.617 595.948 26.2723 596.515 26.0369C597.081 25.7983 597.698 25.679 598.364 25.679C598.928 25.679 599.453 25.7618 599.94 25.9276C600.427 26.09 600.86 26.322 601.238 26.6236C601.619 26.9252 601.932 27.2831 602.177 27.6974C602.423 28.1117 602.583 28.5691 602.66 29.0696H600.78ZM612.895 25.8182V36H611.254L606.457 29.0646H606.372V36H604.528V25.8182H606.178L610.971 32.7585H611.06V25.8182H612.895Z" fill="white"/>
<rect x="0.75" y="0.75" width="6.5" height="6.5" fill="white" stroke="#0D99FF" stroke-width="1.5"/>
<rect x="638.75" y="0.75" width="6.5" height="6.5" fill="white" stroke="#0D99FF" stroke-width="1.5"/>
<rect x="0.75" y="53.75" width="6.5" height="6.5" fill="white" stroke="#0D99FF" stroke-width="1.5"/>
<rect x="638.75" y="53.75" width="6.5" height="6.5" fill="white" stroke="#0D99FF" stroke-width="1.5"/>
</svg>
