<svg width="298" height="102" viewBox="0 0 298 102" fill="none" xmlns="http://www.w3.org/2000/svg">
<rect x="9.36157" y="4.26953" width="284" height="74" transform="rotate(4 9.36157 4.26953)" fill="#0D99FF" fill-opacity="0.05"/>
<rect x="9.36157" y="4.26953" width="284" height="74" transform="rotate(4 9.36157 4.26953)" stroke="#0D99FF" stroke-width="1.5" stroke-dasharray="6.88 6.88"/>
<path d="M34.1413 62.6812C31.1965 62.4752 28.4063 61.8651 25.7706 60.8508C23.1374 59.8006 21.0773 58.5558 19.59 57.1166L22.3946 51.8454C23.82 53.1359 25.6184 54.2541 27.7897 55.1999C29.961 56.1456 32.2138 56.7001 34.5481 56.8634C36.5233 57.0015 38.1365 56.8978 39.3876 56.5522C40.6388 56.2066 41.5768 55.6948 42.2016 55.0167C42.8289 54.3028 43.1752 53.4789 43.2405 52.5452C43.3209 51.396 42.9719 50.4514 42.1937 49.7113C41.4179 48.9353 40.3795 48.3033 39.0783 47.8153C37.8156 47.294 36.3888 46.7972 34.7978 46.3251C33.2428 45.8555 31.6736 45.3308 30.0902 44.7509C28.5452 44.1376 27.1347 43.4075 25.8587 42.5604C24.6211 41.6799 23.6345 40.5644 22.8989 39.2138C22.1633 37.8632 21.8659 36.1823 22.0065 34.1712C22.1496 32.1242 22.8189 30.2945 24.0143 28.6819C25.2481 27.036 27.0135 25.7881 29.3104 24.9382C31.6457 24.055 34.5371 23.7339 37.9847 23.975C40.2472 24.1332 42.4716 24.5774 44.658 25.3077C46.8443 26.038 48.7259 26.9996 50.3025 28.1925L47.7134 33.4788C46.0959 32.3552 44.4056 31.4972 42.6426 30.9048C40.8822 30.2764 39.176 29.9045 37.524 29.789C35.5847 29.6534 33.9883 29.7763 32.7346 30.1578C31.5168 30.5418 30.5943 31.0908 29.967 31.8048C29.3755 32.5212 29.0459 33.3643 28.9781 34.3339C28.8978 35.4831 29.2275 36.4445 29.9674 37.218C30.7456 37.9581 31.7674 38.5708 33.0326 39.0563C34.3337 39.5442 35.7785 40.0422 37.3669 40.5503C38.9579 41.0224 40.5271 41.5471 42.0746 42.1245C43.658 42.7043 45.0698 43.4166 46.3099 44.2611C47.5859 45.1082 48.5737 46.2058 49.2734 47.5539C50.009 48.9045 50.3077 50.5674 50.1696 52.5425C50.029 54.5536 49.3417 56.3821 48.1079 58.0281C46.9125 59.6406 45.1472 60.8885 42.8119 61.7718C40.4791 62.6191 37.5889 62.9222 34.1413 62.6812ZM68.6234 64.93C65.6786 64.7241 63.1009 63.9123 60.8904 62.4946C58.6824 61.0411 56.9919 59.1545 55.8189 56.8351C54.6458 54.5156 54.1585 51.9373 54.3568 49.1002C54.5577 46.2273 55.3992 43.7419 56.8811 41.6442C58.3656 39.5105 60.3009 37.8956 62.6872 36.7994C65.0735 35.7032 67.739 35.258 70.6838 35.4639C73.6646 35.6724 76.2602 36.4854 78.4707 37.9031C80.7171 39.3232 82.4101 41.1738 83.5498 43.4549C84.7253 45.7385 85.2114 48.3347 85.008 51.2436C84.8096 54.0807 83.9682 56.566 82.4837 58.6997C81.0352 60.8358 79.0986 62.4687 76.6739 63.5983C74.2876 64.6945 71.6041 65.1384 68.6234 64.93ZM69.0264 59.1661C70.6784 59.2816 72.1759 59.0254 73.519 58.3976C74.862 57.7697 75.9404 56.7986 76.7541 55.4841C77.6037 54.1722 78.0925 52.6005 78.2206 50.769C78.3512 48.9015 78.0858 47.2771 77.4246 45.8956C76.8018 44.4807 75.869 43.3689 74.6264 42.5602C73.3838 41.7516 71.9545 41.2908 70.3384 41.1778C68.6865 41.0622 67.1889 41.3184 65.8459 41.9462C64.5387 42.5766 63.4603 43.5477 62.6108 44.8597C61.7637 46.1357 61.2749 47.7074 61.1443 49.5749C61.0162 51.4064 61.2815 53.0309 61.9403 54.4483C62.599 55.8657 63.5317 56.9774 64.7384 57.7836C65.981 58.5922 67.4104 59.0531 69.0264 59.1661ZM90.4412 66.0767L93.2362 26.1063L99.9698 26.5772L97.1748 66.5476L90.4412 66.0767ZM118.16 68.394C115.718 68.2232 113.595 67.6236 111.79 66.5952C109.988 65.5309 108.632 64.0286 107.721 62.0884C106.813 60.1122 106.459 57.6876 106.66 54.8146L107.809 38.3847L114.542 38.8556L113.457 54.3697C113.276 56.9554 113.715 58.9348 114.774 60.308C115.871 61.6479 117.497 62.3931 119.652 62.5438C121.232 62.6543 122.62 62.4265 123.814 61.8604C125.044 61.2969 126.028 60.3913 126.765 59.1436C127.537 57.8985 127.99 56.3243 128.123 54.4209L129.14 39.8764L135.874 40.3473L133.863 69.113L127.452 68.6648L127.995 60.9077L128.96 63.357C127.86 65.1567 126.341 66.494 124.403 67.3689C122.468 68.208 120.387 68.5497 118.16 68.394ZM153.48 70.8637C150.32 70.6428 147.934 69.664 146.323 67.9274C144.715 66.1549 144.023 63.6705 144.246 60.4743L146.051 34.6713L152.784 35.1422L150.991 60.7836C150.896 62.1482 151.163 63.2315 151.792 64.0334C152.458 64.8378 153.419 65.2839 154.676 65.3718C156.184 65.4773 157.469 65.1701 158.53 64.4504L160.08 69.3765C159.245 69.9677 158.241 70.3847 157.069 70.6275C155.898 70.8704 154.701 70.9491 153.48 70.8637ZM140.489 46.0832L140.866 40.6963L160.043 42.0373L159.666 47.4242L140.489 46.0832ZM165.51 71.326L167.521 42.5603L174.255 43.0311L172.243 71.7969L165.51 71.326ZM171.247 38.0572C169.99 37.9693 168.976 37.5014 168.205 36.6536C167.47 35.8083 167.142 34.829 167.22 33.7157C167.3 32.5665 167.762 31.6424 168.604 30.9435C169.486 30.2112 170.555 29.889 171.812 29.9769C173.069 30.0648 174.066 30.5134 174.803 31.3228C175.579 32.0988 175.928 33.0435 175.85 34.1568C175.767 35.3419 175.302 36.3198 174.454 37.0905C173.608 37.8253 172.539 38.1476 171.247 38.0572ZM193.983 73.696C191.038 73.4901 188.461 72.6783 186.25 71.2606C184.042 69.8071 182.352 67.9206 181.179 65.6011C180.006 63.2816 179.518 60.7033 179.717 57.8663C179.918 54.9933 180.759 52.5079 182.241 50.4102C183.725 48.2765 185.661 46.6616 188.047 45.5654C190.433 44.4692 193.099 44.024 196.044 44.23C199.024 44.4384 201.62 45.2514 203.831 46.6691C206.077 48.0892 207.77 49.9398 208.91 52.2209C210.085 54.5045 210.571 57.1007 210.368 60.0096C210.17 62.8467 209.328 65.332 207.844 67.4657C206.395 69.6018 204.458 71.2347 202.034 72.3643C199.647 73.4605 196.964 73.9044 193.983 73.696ZM194.386 67.9321C196.038 68.0476 197.536 67.7914 198.879 67.1636C200.222 66.5357 201.3 65.5646 202.114 64.2502C202.964 62.9382 203.452 61.3665 203.58 59.535C203.711 57.6675 203.446 56.0431 202.784 54.6616C202.162 53.2467 201.229 52.1349 199.986 51.3263C198.744 50.5176 197.314 50.0568 195.698 49.9438C194.046 49.8283 192.549 50.0844 191.206 50.7123C189.899 51.3426 188.82 52.3138 187.971 53.6257C187.124 54.9017 186.635 56.4734 186.504 58.3409C186.376 60.1724 186.641 61.7969 187.3 63.2143C187.959 64.6317 188.892 65.7435 190.098 66.5496C191.341 67.3582 192.77 67.8191 194.386 67.9321ZM215.801 74.8427L217.813 46.077L224.223 46.5252L223.681 54.2823L222.715 51.833C223.849 50.0718 225.401 48.7729 227.372 47.9363C229.382 47.0664 231.643 46.7193 234.157 46.8951C236.456 47.0558 238.471 47.6479 240.204 48.6713C241.973 49.6971 243.313 51.1802 244.224 53.1205C245.137 55.0248 245.492 57.4314 245.289 60.3403L244.136 76.8241L237.402 76.3532L238.495 60.7314C238.673 58.1816 238.196 56.2356 237.063 54.8933C235.965 53.5535 234.339 52.8082 232.185 52.6575C230.604 52.547 229.181 52.7723 227.915 53.3334C226.649 53.8944 225.629 54.7975 224.857 56.0426C224.122 57.2543 223.687 58.8298 223.552 60.7691L222.535 75.3136L215.801 74.8427ZM261.54 78.42C259.134 78.2518 256.839 77.7845 254.655 77.0183C252.509 76.2187 250.822 75.3248 249.592 74.3366L252.535 69.3999C253.77 70.3163 255.267 71.1066 257.025 71.7709C258.783 72.4351 260.559 72.83 262.355 72.9556C264.474 73.1037 266.02 72.9232 266.994 72.4139C268.004 71.9071 268.543 71.1688 268.61 70.1992C268.666 69.4091 268.384 68.794 267.765 68.3538C267.149 67.8776 266.328 67.4954 265.301 67.2071C264.275 66.9188 263.121 66.6396 261.841 66.3697C260.597 66.1022 259.338 65.7796 258.065 65.4019C256.831 64.9908 255.713 64.4616 254.712 63.8142C253.713 63.1308 252.926 62.2638 252.35 61.213C251.774 60.1623 251.543 58.8109 251.659 57.159C251.787 55.3274 252.418 53.7837 253.552 52.5278C254.689 51.2359 256.217 50.2962 258.134 49.7085C260.09 49.0875 262.361 48.8673 264.947 49.0481C266.886 49.1837 268.828 49.5361 270.773 50.1051C272.718 50.6742 274.31 51.399 275.547 52.2795L272.604 57.2162C271.297 56.2947 269.953 55.6414 268.573 55.2562C267.231 54.8375 265.877 54.5805 264.513 54.4851C262.466 54.3419 260.918 54.5405 259.87 55.0807C258.857 55.6234 258.319 56.3616 258.253 57.2953C258.193 58.1572 258.471 58.8262 259.087 59.3024C259.704 59.7785 260.524 60.1787 261.548 60.5029C262.572 60.8271 263.706 61.123 264.95 61.3904C266.233 61.6245 267.491 61.947 268.726 62.3582C269.96 62.7693 271.078 63.2985 272.079 63.9459C273.119 64.56 273.927 65.3923 274.503 66.4431C275.079 67.4938 275.31 68.8272 275.197 70.4433C275.072 72.2389 274.424 73.7634 273.254 75.0168C272.119 76.2728 270.556 77.21 268.564 77.8286C266.575 78.4112 264.233 78.6084 261.54 78.42Z" fill="#0D99FF"/>
<rect x="6.34625" y="0.80049" width="6.5" height="6.5" transform="rotate(4 6.34625 0.80049)" fill="white"/>
<rect x="6.34625" y="0.80049" width="6.5" height="6.5" transform="rotate(4 6.34625 0.80049)" stroke="#0D99FF" stroke-width="1.5"/>
<rect x="6.34625" y="0.80049" width="6.5" height="6.5" transform="rotate(4 6.34625 0.80049)" stroke="#0D99FF" stroke-width="1.5"/>
<rect x="6.34625" y="0.80049" width="6.5" height="6.5" transform="rotate(4 6.34625 0.80049)" stroke="#0D99FF" stroke-width="1.5"/>
<rect x="290.153" y="20.6462" width="6.5" height="6.5" transform="rotate(4 290.153 20.6462)" fill="white"/>
<rect x="290.153" y="20.6462" width="6.5" height="6.5" transform="rotate(4 290.153 20.6462)" stroke="#0D99FF" stroke-width="1.5"/>
<rect x="290.153" y="20.6462" width="6.5" height="6.5" transform="rotate(4 290.153 20.6462)" stroke="#0D99FF" stroke-width="1.5"/>
<rect x="290.153" y="20.6462" width="6.5" height="6.5" transform="rotate(4 290.153 20.6462)" stroke="#0D99FF" stroke-width="1.5"/>
<rect x="1.25396" y="73.6228" width="6.5" height="6.5" transform="rotate(4 1.25396 73.6228)" fill="white"/>
<rect x="1.25396" y="73.6228" width="6.5" height="6.5" transform="rotate(4 1.25396 73.6228)" stroke="#0D99FF" stroke-width="1.5"/>
<rect x="1.25396" y="73.6228" width="6.5" height="6.5" transform="rotate(4 1.25396 73.6228)" stroke="#0D99FF" stroke-width="1.5"/>
<rect x="1.25396" y="73.6228" width="6.5" height="6.5" transform="rotate(4 1.25396 73.6228)" stroke="#0D99FF" stroke-width="1.5"/>
<rect x="285.061" y="93.4704" width="6.5" height="6.5" transform="rotate(4 285.061 93.4704)" fill="white"/>
<rect x="285.061" y="93.4704" width="6.5" height="6.5" transform="rotate(4 285.061 93.4704)" stroke="#0D99FF" stroke-width="1.5"/>
<rect x="285.061" y="93.4704" width="6.5" height="6.5" transform="rotate(4 285.061 93.4704)" stroke="#0D99FF" stroke-width="1.5"/>
<rect x="285.061" y="93.4704" width="6.5" height="6.5" transform="rotate(4 285.061 93.4704)" stroke="#0D99FF" stroke-width="1.5"/>
</svg>
