<svg width="112" height="36" viewBox="0 0 112 36" fill="none" xmlns="http://www.w3.org/2000/svg">
<g clip-path="url(#clip0_341_8429)">
<path d="M11.2275 25.5286C9.16703 25.5286 8.1776 23.9502 8.69271 22.1233C9.76134 18.3388 16.625 12.7298 21.3018 12.7298C24.7165 12.7298 24.4541 15.7693 22.4552 18.3635L21.3498 19.5809C17.3849 23.4578 13.7087 25.5286 11.2275 25.5286ZM27.9463 0.00585938C21.9769 0.00824959 15.4012 3.64616 11.2747 7.09205L11.6002 7.56212C18.0064 3.08844 26.8985 0.177955 29.3501 4.54249C30.6443 6.84586 28.4462 11.4948 25.3523 15.171C26.0946 13.5472 25.6051 10.4312 21.2914 10.4312C14.1174 10.4304 -0.000244141 19.8956 -0.000244141 29.58C-0.000244141 33.4609 2.70091 35.9929 7.15057 35.9929C19.0646 35.9929 35.2235 16.5398 35.2235 6.76937C35.2227 3.3187 33.2294 0.00585938 27.9463 0.00585938ZM43.2838 25.5286C42.5919 25.5286 42.0144 25.2856 41.6536 24.8482C41.2769 24.386 41.1649 23.7335 41.3441 23.0571C41.7384 21.5903 43.3246 20.4422 44.9539 20.4422H48.7869L47.4191 25.5294L43.2838 25.5286ZM54.3059 10.2758C53.2077 8.93251 51.4344 8.33257 50.1626 8.33257H43.1942L42.0112 12.7266H48.5821L49.2108 12.7927C49.218 12.7927 49.8163 12.862 50.1466 13.309C50.417 13.6811 50.4554 14.2364 50.2626 14.9622L49.9515 16.1175H45.8122C42.2479 16.1175 37.2808 18.6631 36.1746 22.7766C35.6234 24.8282 36.1058 26.605 37.176 27.9108C38.2382 29.2063 40.2403 29.9194 42.4047 29.9194H46.2385L46.2369 29.921H51.1113L53.3965 21.4182L55.0794 15.1678C55.7401 12.713 55.0242 11.1514 54.3059 10.2758ZM102.167 8.33257C100.282 8.33257 98.5322 8.8879 97.106 9.94039C95.6679 11.0016 94.8744 12.278 94.4017 14.0356C93.3771 17.8456 96.3814 19.6845 98.7994 20.9872C100.531 21.9233 102.028 22.7296 101.705 23.9247C101.475 24.7828 101.1 25.5326 98.9681 25.5326H92.462L91.2806 29.9274H98.481C100.412 29.9274 102.195 29.5258 103.631 28.4279C105.07 27.3268 105.88 25.7907 106.384 23.9176C106.865 22.1337 106.538 20.431 105.388 19.1586C104.429 18.0934 103.046 17.3516 101.829 16.6967C100.27 15.8602 98.8002 15.0714 99.0577 14.1145C99.2129 13.5377 99.792 12.7298 101.05 12.7298H107.377L108.56 8.33576H102.165V8.33257H102.167ZM64.4075 8.33257C62.523 8.33257 60.7721 8.8879 59.3467 9.94039C57.9085 11.0016 57.1159 12.278 56.64 14.0356C55.6153 17.8456 58.6228 19.6845 61.0384 20.9872C62.7709 21.9233 64.2683 22.7296 63.9459 23.9247C63.7148 24.7828 63.3396 25.5326 61.2072 25.5326H54.7035L53.5205 29.9274H60.7217C62.6542 29.9274 64.4371 29.5258 65.8712 28.4279C67.311 27.3268 68.1212 25.7907 68.6244 23.9176C69.1059 22.1337 68.7779 20.431 67.6301 19.1586C66.6719 18.0934 65.2873 17.3516 64.0683 16.6967C62.511 15.8602 61.0408 15.0714 61.2992 14.1145C61.4536 13.5377 62.0335 12.7298 63.2892 12.7298H69.6146L70.7984 8.33576H64.4067L64.4075 8.33257ZM74.2338 8.33257L68.586 29.9234H73.3572L79.0018 8.33257H74.2338ZM91.6981 8.33257C83.2979 8.36285 78.9027 13.936 77.5053 19.1276C75.8504 25.284 79.1402 29.9242 85.1568 29.9242H89.1897L90.3712 25.5294H86.3406C84.0882 25.5294 80.9911 23.763 82.2397 19.1276C83.2307 15.4419 86.8357 12.7266 90.7959 12.7266H93.3547L94.5377 8.33257H91.6981ZM108.227 28.9362H108.643V28.0024H108.975C109.198 28.0024 109.354 28.0263 109.44 28.0773C109.59 28.1658 109.667 28.3482 109.667 28.6223V28.8111L109.674 28.8868C109.678 28.898 109.678 28.9059 109.682 28.9147L109.687 28.9362H110.08L110.065 28.9075C110.052 28.8677 110.045 28.826 110.045 28.784C110.04 28.7252 110.038 28.6662 110.038 28.6072V28.4335C110.034 28.3009 109.989 28.1727 109.91 28.0662C109.823 27.9403 109.686 27.863 109.498 27.8327C109.645 27.8104 109.761 27.7746 109.844 27.7172C110 27.6168 110.077 27.4631 110.076 27.2495C110.077 26.9523 109.954 26.7524 109.709 26.6496C109.57 26.5938 109.354 26.5667 109.058 26.5667H108.227V28.9362ZM109.422 27.659C109.335 27.6933 109.202 27.7116 109.024 27.7116H108.644V26.8535H109.001C109.234 26.8535 109.403 26.8814 109.509 26.9404C109.615 26.9993 109.668 27.1149 109.668 27.2878C109.668 27.4702 109.586 27.5937 109.422 27.659ZM110.637 26.2345C110.437 26.0313 110.197 25.8708 109.932 25.7628C109.668 25.6547 109.384 25.6013 109.098 25.6059C108.503 25.6059 107.992 25.8162 107.57 26.2345C107.366 26.4318 107.204 26.6686 107.095 26.9305C106.986 27.1924 106.933 27.4737 106.937 27.757C106.937 28.3578 107.147 28.8693 107.566 29.29C107.987 29.7122 108.499 29.9242 109.099 29.9242C109.7 29.9242 110.213 29.7122 110.636 29.29C111.06 28.8669 111.272 28.3562 111.272 27.757C111.272 27.1619 111.061 26.6536 110.637 26.2345ZM110.42 26.444C110.785 26.8065 110.966 27.2447 110.966 27.7563C110.966 28.2741 110.785 28.7147 110.42 29.0796C110.059 29.4445 109.618 29.6278 109.101 29.6278C108.583 29.6278 108.144 29.4453 107.779 29.0796C107.604 28.9068 107.466 28.7005 107.373 28.473C107.28 28.2456 107.235 28.0018 107.239 27.7563C107.239 27.2432 107.421 26.8065 107.782 26.444C107.952 26.2679 108.157 26.1285 108.384 26.0344C108.61 25.9402 108.854 25.8933 109.099 25.8967C109.345 25.893 109.589 25.9397 109.817 26.0339C110.044 26.128 110.249 26.2676 110.42 26.444Z" fill="#898989"/>
</g>
<defs>
<clipPath id="clip0_341_8429">
<rect width="111.273" height="36" fill="white"/>
</clipPath>
</defs>
</svg>
