<svg width="193" height="34" viewBox="0 0 193 34" fill="none" xmlns="http://www.w3.org/2000/svg">
<g clip-path="url(#clip0_341_8395)">
<path d="M136.465 0.578125L130.016 14.9023H128.874L122.425 0.578125H117.011L126.809 21.2195V33.4258H129.115H132.085V21.2195L141.879 0.578125H136.465Z" fill="#898989"/>
<path d="M49.5935 5.02407H40.5758V33.4492H35.0598V5.02407H25.9497V0.601562H49.5935V5.02407Z" fill="#898989"/>
<path d="M146.015 30.1335L160.036 4.92842H146.297V0.601562H166.485V4.33177L152.608 29.0267H166.296V33.4492H146.015V30.1335Z" fill="#898989"/>
<path d="M172.576 0.601562V33.4492H192.344V28.84H178.087V18.8882H189.396V14.3746H178.087V5.1607H192.293V0.601562H172.576Z" fill="#898989"/>
<path d="M71.3842 23.3605V10.3708C71.3842 6.68158 68.908 4.50904 65.0782 4.50904C61.1515 4.50904 59.0033 7.04139 59.0033 10.7762V23.3605C59.0033 27.0907 61.2439 29.4545 65.263 29.4545C69.0974 29.4545 71.3842 26.9632 71.3842 23.3605ZM53.4873 23.5472V10.8263C53.4873 3.7803 58.569 0 65.1706 0C71.6383 0 76.9464 3.13356 76.9464 10.4756V23.192C76.9464 30.5157 71.666 34.0182 65.2168 34.0182C58.7677 34.0182 53.4873 30.9302 53.4873 23.5427" fill="#898989"/>
<path d="M17.0585 0.556641H9.90254L0.00244141 33.5H5.08415L7.56033 24.696H19.3684L21.8446 33.5H26.9263L17.0585 0.556641ZM8.74298 20.5057L12.9007 5.93105H14.0418L18.1996 20.5057H8.74298Z" fill="#898989"/>
<path d="M112.234 33.4499H107.24V5.49382H106.066L102.375 21.4804H93.2604L89.5646 5.49382H88.3912V33.4499H83.3972V0.570312H93.5468L97.2426 16.5569H98.3883L102.084 0.570312H112.234V33.4499Z" fill="#898989"/>
</g>
<defs>
<clipPath id="clip0_341_8395">
<rect width="192.343" height="34" fill="white"/>
</clipPath>
</defs>
</svg>
