<svg width="103" height="38" viewBox="0 0 103 38" fill="none" xmlns="http://www.w3.org/2000/svg">
<path fill-rule="evenodd" clip-rule="evenodd" d="M6.96739 32.8987C6.96739 32.8987 5.26906 33.676 5.37199 32.1215C5.42346 30.5669 10.5184 7.71561 11.0845 5.43566C11.7021 3.00026 12.4226 1.80846 12.6285 0.875753C12.8858 -0.367857 10.2611 -0.056951 9.38621 0.409403C7.5335 1.34211 6.55567 5.02113 4.85735 11.7055C3.10756 18.3899 -0.289081 28.8052 0.0197049 32.8987C0.277027 37.0441 2.02681 38.1841 3.82806 37.9768C5.62931 37.7695 10.6214 36.3186 12.0624 35.9559C13.5034 35.5932 15.5105 35.2305 15.9736 34.2978C16.4883 33.3132 16.2824 31.6551 16.0251 30.8778C15.7678 30.1006 15.3561 29.3233 14.7385 29.6342C14.0695 29.8933 9.02596 32.4324 6.96739 32.8987Z" fill="#898989"/>
<path fill-rule="evenodd" clip-rule="evenodd" d="M23.0756 15.6952C23.0756 15.6952 22.6639 14.2443 21.2744 14.0889C19.8848 13.9334 18.5468 14.7107 17.9292 18.1306C17.3116 21.5505 17.4145 30.6185 17.7233 31.7067C18.0321 32.7948 18.6497 33.5721 19.4217 33.6239C20.1936 33.7275 21.5832 32.9503 21.6346 31.6548C21.6861 30.4112 22.5095 21.706 22.7668 20.1515C22.9727 18.6488 23.1785 16.5761 23.0756 15.6952Z" fill="#898989"/>
<path fill-rule="evenodd" clip-rule="evenodd" d="M29.2 30.8778C29.2 30.8778 30.0749 31.396 31.5673 29.8933C33.523 27.9242 35.3757 22.6389 35.8904 20.7735C36.3535 18.908 36.3021 16.2135 34.4494 17.1981C32.5966 18.1826 30.2293 21.6543 29.8176 23.0016C28.4795 27.147 28.0163 30.256 29.2 30.8778ZM35.0155 13.7781C36.1991 13.6227 38.3606 14.3481 39.1841 17.4053C40.0075 20.4626 38.4121 25.9033 37.3314 28.6497C36.1991 31.3441 32.1849 34.9195 30.3837 35.3341C28.5824 35.7486 26.1121 34.1941 25.3916 33.5723C24.6197 32.8987 24.0536 31.7587 24.2594 31.2923C24.4653 30.7741 24.5167 29.8414 24.4138 26.4215C24.2594 23.0016 24.5682 15.0218 26.1636 9.6846C27.759 4.29562 30.2807 0.616608 31.3615 0.461157C32.4422 0.305706 33.7288 1.4975 34.1406 1.91203C34.5523 2.32657 34.192 3.36291 33.7289 4.2438C33.2142 5.07287 32.1849 6.57558 30.7439 10.9282C29.3029 15.2808 28.9427 19.6335 28.9427 19.6335C30.9498 15.9545 33.8832 13.9336 35.0155 13.7781Z" fill="#898989"/>
<path fill-rule="evenodd" clip-rule="evenodd" d="M45.5143 18.7014C45.5143 18.7014 46.1319 16.266 45.5658 15.126C44.9997 13.9861 44.2792 13.8824 43.5587 13.9343C42.8382 13.9861 42.1691 13.9861 41.7574 13.9861C41.3457 13.9861 40.7796 14.2452 40.8311 15.7997C40.8825 17.3542 41.7574 24.8158 40.9855 27.8731C40.2135 30.9303 39.5959 33.4693 39.8532 34.1429C40.1106 34.8684 40.7796 36.0083 42.0662 36.2156C43.3528 36.4229 44.6394 35.542 44.5365 34.972C44.485 34.402 44.7424 27.7176 45.3599 25.4895C45.9775 23.2613 47.5214 20.4632 49.5285 19.4787C51.5357 18.4942 51.7415 18.6496 52.462 18.4423C53.131 18.2351 53.8515 17.3024 52.9252 15.6442C51.9988 13.9861 49.5285 14.7115 48.2934 15.696C47.1097 16.7324 45.6687 18.1314 45.5143 18.7014Z" fill="#898989"/>
<path fill-rule="evenodd" clip-rule="evenodd" d="M56.3732 24.0897C56.3732 24.0897 59.2038 24.297 60.7992 21.1362C62.3946 17.9753 60.5933 17.509 59.564 18.0789C58.5348 18.6489 56.9394 20.1516 56.3732 24.0897ZM57.7113 32.7432C59.3067 32.795 61.4682 31.085 62.549 29.4787C63.4753 28.1833 63.7841 30.2041 63.1151 31.7068C62.446 33.2613 59.1009 36.3186 55.8586 35.6967C51.6385 34.8677 50.8666 30.3078 51.2268 26.7842C51.5871 23.2088 54.0059 14.089 59.7699 14.1408C65.5339 14.1927 64.8134 20.5662 62.446 24.0379C60.0787 27.5096 55.9101 27.0433 55.9101 27.0433C54.7779 31.1368 56.1159 32.6914 57.7113 32.7432Z" fill="#898989"/>
<path fill-rule="evenodd" clip-rule="evenodd" d="M94.3534 23.3124C94.3534 23.3124 97.4413 23.5196 99.0367 20.4106C100.632 17.2498 98.8308 16.7834 97.8015 17.3534C96.7208 17.8716 94.6622 20.1515 94.3534 23.3124ZM95.8973 31.9658C97.4927 32.0176 99.6543 30.3077 100.735 28.7014C101.661 27.4059 102.022 29.4268 101.301 30.9295C100.014 33.5722 97.2869 35.5412 94.0446 34.9194C89.8246 34.0903 89.0526 29.5304 89.4129 26.0069C89.7731 22.4315 92.1919 13.3117 97.9559 13.3635C103.72 13.4153 102.999 19.7888 100.632 23.2606C98.2647 26.7323 93.9932 26.1623 93.9932 26.1623C93.1697 29.4268 94.302 31.914 95.8973 31.9658Z" fill="#898989"/>
<path fill-rule="evenodd" clip-rule="evenodd" d="M70.8862 16.7326C71.5038 15.4371 73.408 15.1262 74.746 15.1781C76.1356 15.2299 76.187 16.5253 77.2163 15.748C78.2456 14.9708 77.6795 13.1572 76.187 12.4836C74.9004 11.8618 72.3787 11.2918 69.2393 12.9499C65.7398 14.8153 65.431 18.8053 66.3573 20.4634C67.6439 22.8988 71.4523 27.6142 71.5038 29.3759C71.5552 31.345 70.6803 32.485 68.6732 32.7959C67.2837 33.0031 66.3059 32.3813 65.5339 31.9668C64.7619 31.5523 63.1665 32.3813 63.5783 33.7286C63.99 35.024 68.6218 37.5112 72.3787 35.3867C76.1356 33.2622 76.2385 28.7541 75.6209 27.3033C75.0033 25.8524 73.6653 24.4015 72.636 23.0024C71.9155 22.1215 69.8055 19.0125 70.8862 16.7326Z" fill="#898989"/>
<path fill-rule="evenodd" clip-rule="evenodd" d="M82.7742 16.8872C83.3918 15.5917 85.4503 15.0736 86.6855 15.5399C87.9721 16.0063 89.2072 16.8872 90.0821 15.8508C90.8541 14.9181 89.3102 13.5191 88.075 13.0527C86.8399 12.5864 84.7813 12.0682 81.9508 13.4154C78.6056 14.9699 78.1424 18.5453 78.9144 20.2035C79.9951 22.5352 83.4947 27.5097 83.7006 29.2196C83.9064 31.396 82.2081 32.795 80.87 32.5877C79.2232 32.3287 79.5834 30.6705 78.76 30.5669C77.1646 30.3596 76.8558 31.9659 77.2161 33.2096C77.7822 34.9195 80.973 37.044 84.4725 35.0232C87.9721 33.0023 88.0236 29.0642 87.4575 27.6651C86.8913 26.2661 85.8621 24.5561 84.8328 23.2089C84.0608 22.328 81.642 19.2708 82.7742 16.8872Z" fill="#898989"/>
<path fill-rule="evenodd" clip-rule="evenodd" d="M24.3625 8.95841C24.2595 10.3057 23.1273 11.342 21.7892 11.2384C20.4512 11.1347 19.4734 9.94294 19.5763 8.59569C19.6792 7.24845 20.8114 6.21211 22.1495 6.31574C23.4876 6.41937 24.4654 7.61117 24.3625 8.95841Z" fill="#898989"/>
</svg>
