<svg width="206" height="34" viewBox="0 0 206 34" fill="none" xmlns="http://www.w3.org/2000/svg">
<path d="M28.2324 2.42969C28.7353 2.42984 29.1426 2.83794 29.1426 3.34082V17.001C29.1426 25.0486 22.6189 31.5723 14.5713 31.5723C6.52378 31.5722 0 25.0485 0 17.001C7.47376e-05 8.95351 6.52382 2.42976 14.5713 2.42969H28.2324ZM13.082 10.9297C12.8809 10.9297 12.7178 11.0928 12.7178 11.2939V15.0146C12.7178 15.2157 12.5545 15.3787 12.3535 15.3789H8.86523C8.66408 15.3789 8.50103 15.542 8.50098 15.7432V18.29C8.50107 18.4911 8.6641 18.6543 8.86523 18.6543H12.3535C12.5545 18.6545 12.7178 18.8175 12.7178 19.0186V22.708C12.7178 22.9092 12.8808 23.0723 13.082 23.0723H16.0312C16.2323 23.0721 16.3955 22.9091 16.3955 22.708V19.0186C16.3955 18.8174 16.5586 18.6543 16.7598 18.6543H20.2793C20.4804 18.6543 20.6435 18.4911 20.6436 18.29V15.7432C20.6435 15.542 20.4805 15.3789 20.2793 15.3789H16.7598C16.5586 15.3789 16.3955 15.2158 16.3955 15.0146V11.2939C16.3955 11.0929 16.2323 10.9298 16.0312 10.9297H13.082Z" fill="#898989"/>
<path d="M50.1665 26.0993V23.2616H43.2103L43.2104 7.89258H40.0713L40.0712 26.0993H50.1665Z" fill="#898989"/>
<path d="M52.2947 22.8849C52.2947 25.0195 53.2741 26.0993 55.2078 26.0993C55.9109 26.0993 56.4132 26.024 56.7145 25.8984V23.362C56.589 23.3871 56.4132 23.4122 56.1872 23.4122C55.5091 23.4122 55.3082 23.0607 55.3082 22.0813V13.0909H52.2947V22.8849ZM53.8298 11.4586C54.8092 11.4586 55.6128 10.6801 55.6128 9.67558C55.6128 8.67107 54.8092 7.89258 53.8298 7.89258C52.8253 7.89258 52.0216 8.67107 52.0216 9.67558C52.0216 10.6801 52.8253 11.4586 53.8298 11.4586Z" fill="#898989"/>
<path d="M62.306 26.0993V15.8282H64.6917V13.0909H62.306V12.2371C62.306 10.9563 62.8334 10.4541 63.9635 10.4541C64.4908 10.4541 64.8926 10.5043 65.1187 10.5796V7.99303C64.742 7.91769 64.315 7.89258 63.8128 7.89258C62.3814 7.89258 61.3518 8.16882 60.6737 8.7213C59.6943 9.49979 59.2925 10.5294 59.2925 12.4631V13.0909H57.2333V15.8282H59.2925V26.0993H62.306Z" fill="#898989"/>
<path d="M65.5248 19.5198C65.5248 21.5037 66.1526 23.0858 67.3831 24.2661C68.6136 25.4464 70.246 26.0491 72.2299 26.0491C74.3645 26.0491 76.1223 25.2957 77.5538 23.7889L75.7457 22.031C74.7663 23.0104 73.6362 23.4876 72.3303 23.4876C70.0953 23.4876 68.6136 22.1817 68.5132 20.1727H78.3574C78.3825 19.8462 78.4076 19.4947 78.4076 19.118C78.4076 17.3098 77.83 15.8031 76.6497 14.5726C75.4945 13.342 73.9878 12.7393 72.1545 12.7393C70.2209 12.7393 68.6388 13.342 67.3831 14.5726C66.1526 15.8031 65.5248 17.4103 65.5248 19.4193V19.5198ZM68.5885 18.0632C68.6639 17.2847 69.0406 16.6318 69.7186 16.1044C70.3966 15.5771 71.2254 15.3008 72.1545 15.3008C73.0335 15.3008 73.7617 15.5771 74.3896 16.1296C75.0174 16.6569 75.3438 17.3098 75.3438 18.0632H68.5885Z" fill="#898989"/>
<path d="M81.1773 21.805C81.1773 24.6679 82.5333 26.0993 85.2706 26.0993C85.8733 26.0993 86.4007 26.0491 86.8276 25.9486V23.2616C86.5012 23.3369 86.1496 23.362 85.7729 23.362C84.6679 23.362 84.1908 22.8598 84.1908 21.4786V15.8282H88.8111V13.0909H84.1908V7.89258H81.1773V13.0909H79.5952V15.8282H81.1773V21.805Z" fill="#898989"/>
<path d="M88.8111 22.8924C88.8111 25.027 89.7905 26.1069 91.7242 26.1069C92.4274 26.1069 92.9296 26.0315 93.231 25.906V23.3696C93.1054 23.3947 92.9296 23.4198 92.7036 23.4198C92.0256 23.4198 91.8247 23.0682 91.8247 22.0888V13.0909H88.8111V22.8924ZM90.3179 11.4586C91.2973 11.4586 92.1009 10.6801 92.1009 9.67558C92.1009 8.67107 91.2973 7.89258 90.3179 7.89258C89.3134 7.89258 88.5098 8.67107 88.5098 9.67558C88.5098 10.6801 89.3134 11.4586 90.3179 11.4586Z" fill="#898989"/>
<path d="M97.9796 26.0491V18.465C97.9796 16.7574 99.0344 15.5268 100.441 15.5268C101.872 15.5268 102.701 16.6067 102.701 18.3395V26.0491H105.689V18.465C105.689 16.7574 106.719 15.5268 108.125 15.5268C109.531 15.5268 110.335 16.6067 110.335 18.3395V22.5584C110.335 24.7683 111.34 26.0491 113.323 26.0491C113.901 26.0491 114.328 25.9989 114.629 25.8984V23.362C114.504 23.3871 114.353 23.4122 114.202 23.4122C113.524 23.4122 113.323 22.8849 113.323 21.9055V17.9126C113.323 14.7735 111.741 12.8398 109.004 12.8398C107.02 12.8398 105.664 13.5681 104.936 15.0497C104.308 13.5681 103.103 12.8398 101.37 12.8398C99.7626 12.8398 98.507 13.6685 97.9796 14.899V13.0909H94.9912V26.0491H97.9796Z" fill="#898989"/>
<path d="M115.775 19.5198C115.775 21.5037 116.403 23.0858 117.633 24.2661C118.864 25.4464 120.496 26.0491 122.48 26.0491C124.614 26.0491 126.372 25.2957 127.804 23.7889L125.996 22.031C125.016 23.0104 123.886 23.4876 122.58 23.4876C120.345 23.4876 118.864 22.1817 118.763 20.1727H128.607C128.632 19.8462 128.658 19.4947 128.658 19.118C128.658 17.3098 128.08 15.8031 126.9 14.5726C125.744 13.342 124.238 12.7393 122.404 12.7393C120.471 12.7393 118.889 13.342 117.633 14.5726C116.403 15.8031 115.775 17.4103 115.775 19.4193V19.5198ZM118.838 18.0632C118.914 17.2847 119.291 16.6318 119.969 16.1044C120.647 15.5771 121.475 15.3008 122.404 15.3008C123.283 15.3008 124.012 15.5771 124.64 16.1296C125.267 16.6569 125.594 17.3098 125.594 18.0632H118.838Z" fill="#898989"/>
<path d="M146.826 7.89258V26.1021H145.037V17.2969H134.116V26.1021H132.3V7.89258H134.116V15.6996H145.037V7.89258H146.826Z" fill="#898989"/>
<path d="M155.811 26.1078C154.842 26.1078 153.943 25.9274 153.113 25.5667C152.283 25.1889 151.565 24.6822 150.96 24.0467C150.355 23.3941 149.879 22.647 149.533 21.8054C149.205 20.9638 149.04 20.0621 149.04 19.1003C149.04 17.8465 149.326 16.6958 149.896 15.6481C150.484 14.6004 151.288 13.7674 152.309 13.1491C153.329 12.5136 154.488 12.1958 155.785 12.1958C157.116 12.1958 158.275 12.5136 159.26 13.1491C160.263 13.7846 161.05 14.6261 161.621 15.6738C162.192 16.7043 162.477 17.8379 162.477 19.0745C162.477 19.2119 162.477 19.3493 162.477 19.4867C162.477 19.6069 162.468 19.7014 162.451 19.7701H150.882C150.969 20.7319 151.237 21.5907 151.686 22.3464C152.153 23.0849 152.75 23.6775 153.476 24.124C154.22 24.5534 155.024 24.7681 155.888 24.7681C156.77 24.7681 157.6 24.5448 158.379 24.0983C159.174 23.6517 159.727 23.0677 160.039 22.3464L161.569 22.7586C161.292 23.3941 160.869 23.9694 160.298 24.4847C159.727 25 159.053 25.4036 158.275 25.6955C157.514 25.9704 156.692 26.1078 155.811 26.1078ZM150.83 18.5077H160.817C160.748 17.5287 160.48 16.67 160.013 15.9315C159.563 15.1929 158.966 14.6176 158.223 14.2053C157.497 13.776 156.692 13.5613 155.811 13.5613C154.929 13.5613 154.125 13.776 153.398 14.2053C152.672 14.6176 152.075 15.2015 151.608 15.9572C151.159 16.6958 150.899 17.5459 150.83 18.5077Z" fill="#898989"/>
<path d="M164.109 21.9857C164.109 21.1441 164.351 20.4228 164.835 19.8216C165.319 19.2033 165.985 18.731 166.832 18.4047C167.697 18.0612 168.691 17.8894 169.815 17.8894C170.473 17.8894 171.156 17.941 171.865 18.044C172.574 18.1471 173.205 18.3016 173.758 18.5077V17.3742C173.758 16.2406 173.421 15.3389 172.747 14.6691C172.072 13.9992 171.138 13.6643 169.945 13.6643C169.219 13.6643 168.501 13.8017 167.792 14.0765C167.1 14.3342 166.374 14.7206 165.613 15.2359L164.939 13.9992C165.821 13.3981 166.685 12.9516 167.533 12.6596C168.38 12.3504 169.245 12.1958 170.127 12.1958C171.787 12.1958 173.101 12.6682 174.069 13.6128C175.038 14.5574 175.522 15.8628 175.522 17.5287V23.9291C175.522 24.1696 175.574 24.3499 175.678 24.4701C175.781 24.5732 175.946 24.6333 176.171 24.6505V26.0417C175.98 26.0588 175.816 26.076 175.678 26.0932C175.539 26.1104 175.436 26.1104 175.366 26.0932C174.934 26.076 174.606 25.9386 174.381 25.681C174.156 25.4233 174.035 25.1485 174.018 24.8566L173.992 23.6861C173.386 24.4589 172.6 25.0601 171.631 25.4894C170.663 25.9016 169.677 26.1078 168.674 26.1078C167.809 26.1078 167.023 25.9274 166.314 25.5667C165.622 25.1889 165.077 24.6908 164.679 24.0725C164.299 23.437 164.109 22.7414 164.109 21.9857ZM173.162 23.0162C173.352 22.7758 173.499 22.5439 173.603 22.3206C173.706 22.0973 173.758 21.8998 173.758 21.7281V19.7701C173.17 19.5468 172.556 19.3751 171.916 19.2549C171.294 19.1346 170.663 19.0745 170.023 19.0745C168.761 19.0745 167.74 19.3236 166.962 19.8216C166.184 20.3197 165.795 20.9981 165.795 21.8569C165.795 22.355 165.925 22.8273 166.184 23.2738C166.443 23.7032 166.824 24.0639 167.325 24.3559C167.827 24.6307 168.415 24.7681 169.089 24.7681C169.936 24.7681 170.723 24.6049 171.45 24.2786C172.193 23.9523 172.764 23.5315 173.162 23.0162Z" fill="#898989"/>
<path d="M179.489 7.89347H181.253V26.1084C181.253 26.1084 181.192 26.1084 181.071 26.1084C180.95 26.1084 180.794 26.1084 180.604 26.1084C180.414 26.1084 180.215 26.1084 180.007 26.1084C179.817 26.1084 179.644 26.1084 179.489 26.1084V7.89347Z" fill="#898989"/>
<path d="M191.745 25.3058C191.607 25.3573 191.391 25.4518 191.097 25.5892C190.803 25.7266 190.448 25.8468 190.033 25.9499C189.618 26.0529 189.169 26.1044 188.684 26.1044C188.183 26.1044 187.707 26.01 187.258 25.8211C186.826 25.6321 186.48 25.3487 186.22 24.9709C185.961 24.5759 185.831 24.0949 185.831 23.5282V13.8189H183.964V12.4277H185.831V7.89347H187.595V12.4277H190.708V13.8189H187.595V23.0387C187.63 23.5196 187.803 23.8803 188.114 24.1207C188.442 24.3612 188.814 24.4814 189.229 24.4814C189.713 24.4814 190.154 24.4041 190.552 24.2495C190.95 24.0778 191.192 23.9575 191.278 23.8888L191.745 25.3058Z" fill="#898989"/>
<path d="M205.31 26.1087H203.547V18.3532C203.547 16.8417 203.279 15.7082 202.742 14.9525C202.206 14.1796 201.437 13.7931 200.434 13.7931C199.777 13.7931 199.12 13.9649 198.463 14.3084C197.823 14.6347 197.252 15.0899 196.751 15.6738C196.266 16.2406 195.92 16.8933 195.713 17.6318V26.1055H193.949V7.89466H195.713V15.4677C196.249 14.4716 196.993 13.6815 197.944 13.0975C198.912 12.4964 199.941 12.1958 201.03 12.1958C201.809 12.1958 202.466 12.3333 203.002 12.6081C203.555 12.8829 203.996 13.2865 204.325 13.8189C204.671 14.3342 204.921 14.9439 205.077 15.6481C205.233 16.3351 205.31 17.1165 205.31 17.9925V26.1087Z" fill="#898989"/>
</svg>
