<svg width="212" height="38" viewBox="0 0 212 38" fill="none" xmlns="http://www.w3.org/2000/svg">
<g clip-path="url(#clip0_341_8413)">
<path d="M21.0414 0.482422V19.6897C21.0414 20.5879 20.347 21.2097 19.5137 21.2097H17.222C17.0831 21.2097 17.0137 21.3479 17.0137 21.417V37.5151C17.5692 37.5151 18.1248 37.6533 18.7498 37.6533C29.097 37.6533 37.4998 29.2933 37.4998 18.9988C37.4998 9.53333 30.347 1.58788 21.0414 0.482422ZM20.6248 29.2242C19.3053 29.2242 18.3331 28.1188 18.3331 26.9442C18.3331 25.6315 19.4442 24.6642 20.6248 24.6642C21.9442 24.6642 22.9164 25.7697 22.9164 26.9442C23.0553 28.1879 21.9442 29.2242 20.6248 29.2242ZM26.1109 29.2242C24.7914 29.2242 23.8192 28.1188 23.8192 26.9442C23.8192 25.6315 24.9303 24.6642 26.1109 24.6642C27.4303 24.6642 28.4026 25.7697 28.4026 26.9442C28.4026 28.1188 27.4998 29.2242 26.1109 29.2242ZM31.6664 29.2242C30.347 29.2242 29.3748 28.1188 29.3748 26.9442C29.3748 25.6315 30.4859 24.6642 31.6664 24.6642C32.9859 24.6642 33.9581 25.7697 33.9581 26.9442C33.9581 28.1188 32.9859 29.2242 31.6664 29.2242Z" fill="#898989"/>
<path d="M18.7498 0.414062C8.40253 0.414062 -0.000244141 8.77406 -0.000244141 19.0686C-0.000244141 28.1195 6.3192 35.5122 14.7914 37.2395V20.4504C14.7914 19.6904 15.4859 19.0686 16.1803 18.9304H18.472C18.6109 18.9304 18.6803 18.7922 18.6803 18.7232L18.7498 0.414062ZM15.1386 15.7522C13.8192 15.7522 12.847 14.6468 12.847 13.4722C12.847 12.1595 13.9581 11.1922 15.1386 11.1922C16.4581 11.1922 17.4303 12.2977 17.4303 13.4722C17.4303 14.6468 16.3886 15.7522 15.1386 15.7522Z" fill="#898989"/>
<path d="M206.458 10.571V17.6183H197.014V10.571H192.222V29.2255H197.014V21.6946H206.458V29.2255H211.111V10.571H206.458ZM128.403 12.7128C127.639 11.0546 126.111 10.1565 124.583 10.1565C123.055 10.1565 121.458 11.0546 120.764 12.7128L113.194 29.2946H118.194L119.861 25.3565H129.583L131.25 29.2946H136.25L128.403 12.7128ZM121.18 21.6255L124.028 14.7855C124.167 14.5783 124.236 14.5783 124.375 14.5783C124.514 14.5783 124.722 14.5783 124.722 14.7855L127.569 21.6255H121.18ZM72.5693 7.25464C70.3471 7.25464 68.9582 8.42918 67.9166 10.7783L61.8749 24.8037L55.7638 10.7092C54.7916 8.42918 53.3332 7.18555 51.111 7.18555C49.0277 7.18555 46.9443 8.56737 46.9443 11.8146V29.1565H51.5971V12.4365L57.7777 26.3237C58.5416 28.3274 59.9999 29.5019 61.8749 29.5019C63.8888 29.5019 65.2082 28.3274 65.9721 26.3237L72.1527 12.4365V29.3637H76.8054V12.0219C76.736 8.77464 74.6527 7.25464 72.5693 7.25464ZM84.9999 25.2874C84.7916 25.2874 84.5138 25.0801 84.5138 24.8037V21.4874H96.1804V17.6874H84.5138V14.8546C84.5138 14.6474 84.7221 14.371 84.9999 14.371H96.5971V10.4328H82.7082C81.0416 10.4328 79.9304 11.7455 79.9304 13.1965V26.2546C79.9304 27.6365 81.111 29.0183 82.7082 29.0183H96.5971V25.0801H84.9999V25.2874ZM104.444 29.2255V14.9928C104.444 14.7855 104.653 14.5092 104.93 14.5092H116.528V10.571H102.639C100.972 10.571 99.861 11.8837 99.861 13.3346V29.1565L104.444 29.2255ZM189.167 19.9674C189.167 13.4728 186.319 10.4328 179.236 10.4328H177.569C170.486 10.4328 167.639 13.5419 167.639 19.9674C167.639 26.3237 170.486 29.5019 177.569 29.5019H179.097C186.319 29.3637 189.167 26.3237 189.167 19.9674ZM179.097 25.5637H177.569C173.75 25.5637 172.153 23.8365 172.153 19.9674C172.153 16.2365 173.472 14.371 177.569 14.371H179.097C183.055 14.371 184.514 16.2365 184.514 19.9674C184.514 23.7674 183.055 25.5637 179.097 25.5637ZM154.653 7.66918H145.347C138.403 7.66918 135.625 11.1928 135.625 17.2037C135.625 18.171 135.764 19.0692 135.833 19.8292C136.597 24.1128 139.167 26.7383 145.625 26.7383H147.708V29.1565H152.361V26.7383H154.375C160.903 26.7383 163.472 24.1128 164.167 19.8292C164.305 19.0692 164.375 18.171 164.375 17.2037C164.305 11.1928 161.458 7.66918 154.653 7.66918ZM147.569 22.8692H145.486C142.292 22.8692 141.18 21.6946 140.486 19.7601C140.278 19.0692 140.278 18.1019 140.278 17.1346C140.278 13.1965 142.153 11.5383 144.792 11.5383H147.639V22.8692H147.569ZM159.514 19.9674C158.819 21.8328 157.639 23.0765 154.514 23.0765H152.43V11.6765H155.278C157.917 11.6765 159.792 13.3346 159.792 17.2728C159.722 18.3092 159.722 19.1383 159.514 19.9674Z" fill="#898989"/>
</g>
<defs>
<clipPath id="clip0_341_8413">
<rect width="211.111" height="38" fill="white"/>
</clipPath>
</defs>
</svg>
