<svg width="60" height="60" viewBox="0 0 60 60" fill="none" xmlns="http://www.w3.org/2000/svg">
<g clip-path="url(#clip0_341_8403)">
<mask id="mask0_341_8403" style="mask-type:luminance" maskUnits="userSpaceOnUse" x="0" y="0" width="60" height="60">
<path d="M60 0H0V60H60V0Z" fill="white"/>
</mask>
<g mask="url(#mask0_341_8403)">
<path d="M60 60H0V0H60V60ZM47.7881 41.2354C46.1681 41.2354 44.7688 41.4688 43.6152 41.9229C42.4496 42.3892 41.5419 43.1628 40.916 44.2305C40.3147 45.2489 40.008 46.6231 39.9834 48.292V48.4521L40.167 48.4639L39.9834 48.4766V48.6357C40.0079 50.3048 40.3147 51.6796 40.916 52.6982C41.5419 53.7657 42.4498 54.5386 43.6152 55.0049C44.7688 55.459 46.1681 55.6924 47.7881 55.6924C49.322 55.6924 50.6849 55.5334 51.7158 55.2266C52.7834 54.9075 53.63 54.3914 54.2559 53.6797C54.9308 52.9065 55.3233 51.9245 55.4092 50.7832H52.0342V50.7715C51.9482 51.3235 51.7278 51.7776 51.3721 52.1211C51.0407 52.4402 50.586 52.6736 50.0215 52.8086C49.4692 52.9313 48.647 53.0049 47.7881 53.0049C46.8922 53.0049 46.1066 52.8943 45.4316 52.6611C44.7814 52.4403 44.266 52.0476 43.9102 51.5078C43.542 50.9678 43.3574 50.1817 43.3574 49.1631V47.752C43.3574 46.7457 43.542 45.9604 43.9102 45.4082C44.2783 44.8683 44.7813 44.4758 45.4316 44.2549C46.0943 44.0217 46.8922 43.9111 47.7881 43.9111C48.6471 43.9111 49.4692 43.9847 50.0215 44.1074C50.586 44.2424 51.0407 44.4626 51.3721 44.7939C51.728 45.1376 51.9483 45.5923 52.0342 46.1445H55.4092C55.311 45.0032 54.9309 44.0335 54.2559 43.248C53.6423 42.5364 52.7833 42.0212 51.7158 41.7021C50.6849 41.3953 49.322 41.2354 47.7881 41.2354ZM4.61426 18.458H8.00098V8.55371L12.3086 16.9238H15.3896L19.6973 8.55371V18.458H23.0723V4.61426H18.2617L13.8428 13.7695L9.4375 4.61426H4.61426V18.458ZM39.9707 7.37598H46.0088V18.458H49.3838V7.37598H55.4092V4.61426H39.9707V7.37598Z" fill="#898989"/>
</g>
</g>
<defs>
<clipPath id="clip0_341_8403">
<rect width="60" height="60" fill="white"/>
</clipPath>
</defs>
</svg>
