<svg width="130" height="40" viewBox="0 0 130 40" fill="none" xmlns="http://www.w3.org/2000/svg">
<g clip-path="url(#clip0_341_8382)">
<path d="M39.8857 20.1172C39.8857 25.2742 37.1425 30.0393 32.6895 32.6182L19.9434 40L7.19629 32.6182C2.74326 30.0393 2.83957e-05 25.2741 0 20.1172V0H39.8857V20.1172ZM10.9463 16.8447C11.7994 15.8787 13.3506 15.2247 15.124 15.2246H17.0518V22.498C17.0518 24.4329 16.5277 26.1269 15.75 27.0586H24.1338C23.3575 26.126 22.834 24.4346 22.834 22.502V15.2246H24.7617C26.5351 15.2247 28.0863 15.8787 28.9395 16.8447V10.5879H10.9463V16.8447Z" fill="#898989"/>
<path d="M49.29 27.0589V10.5898H65.9703V14.3539H54.2639V16.7071H60.0585C64.164 16.7071 67.2138 17.6481 67.2138 21.8826C67.2138 26.1179 64.164 27.0589 60.0585 27.0589H49.29ZM54.2639 20.4711V23.2941H60.0818C61.7712 23.2941 62.1697 22.9653 62.1697 21.8826C62.1697 20.8006 61.7712 20.4711 60.0818 20.4711H54.2639Z" fill="#898989"/>
<path d="M94.7494 20.9416V27.0589H89.7755V10.5898H94.7494V16.5895H102.89V10.5898H107.864V27.0589H102.89V20.9416H94.7494Z" fill="#898989"/>
<path d="M115.877 20.8474V27.0589H110.903V10.5898H115.877V16.7305H118.857L124.041 10.5898H129.672L123.173 18.283V18.5891L130 27.0589H123.83L118.833 20.8474H115.877Z" fill="#898989"/>
<path d="M81.8579 24.6355H74.0923L73.2243 27.0589H68.0162L74.5149 10.5898H81.6936L88.1686 27.0589H82.7259L81.8579 24.6355ZM80.5207 20.8715L78.2215 14.378H77.799L75.4532 20.8715H80.5207Z" fill="#898989"/>
</g>
<defs>
<clipPath id="clip0_341_8382">
<rect width="130" height="40" fill="white"/>
</clipPath>
</defs>
</svg>
